<svg width="36" height="36" viewBox="0 0 36 36" fill="none" xmlns="http://www.w3.org/2000/svg">
<rect width="36" height="36" rx="6" fill="#1A1B22"/>
<path fill-rule="evenodd" clip-rule="evenodd" d="M8.01736 4.63537L2.27361 16.7705C2.25176 16.8156 2.24483 16.8666 2.25385 16.916C2.26287 16.9653 2.28735 17.0105 2.32373 17.0449L17.8362 31.9963C17.8803 32.0388 17.9389 32.0625 18 32.0625C18.0611 32.0625 18.1197 32.0388 18.1638 31.9963L33.6763 17.0458C33.7126 17.0115 33.7371 16.9663 33.7462 16.9169C33.7552 16.8675 33.7482 16.8165 33.7264 16.7714L27.9826 4.6363C27.9641 4.59555 27.9343 4.56103 27.8968 4.53686C27.8592 4.51269 27.8156 4.4999 27.771 4.50002H8.23081C8.18604 4.49946 8.14207 4.51194 8.10419 4.53596C8.06632 4.55997 8.03616 4.5945 8.01736 4.63537Z" fill="#50AF95"/>
<path fill-rule="evenodd" clip-rule="evenodd" d="M19.3466 18.315C19.2348 18.3235 18.6568 18.3585 17.3675 18.3585C16.3421 18.3585 15.614 18.3273 15.3586 18.315C11.3957 18.1384 8.43781 17.4394 8.43781 16.6025C8.43781 15.7656 11.3957 15.0675 15.3586 14.8881V17.6189C15.6178 17.6378 16.3598 17.6821 17.3852 17.6821C18.6158 17.6821 19.232 17.6302 19.3429 17.6198V14.89C23.2974 15.0685 26.2488 15.7675 26.2488 16.6025C26.2488 17.4375 23.2983 18.1365 19.3429 18.3141L19.3466 18.315ZM19.3466 14.6075V12.1639H24.8653V8.4375H9.83987V12.1639H15.3577V14.6066C10.8728 14.8153 7.5 15.7155 7.5 16.7942C7.5 17.873 10.8728 18.7722 15.3577 18.9819V26.8125H19.3457V18.9791C23.8203 18.7703 27.1875 17.8711 27.1875 16.7933C27.1875 15.7155 23.8231 14.8163 19.3457 14.6066L19.3466 14.6075Z" fill="white"/>
</svg>
