<svg width="36" height="36" viewBox="0 0 36 36" fill="none" xmlns="http://www.w3.org/2000/svg">
<rect width="36" height="36" rx="6" fill="#1A1B22"/>
<path d="M33.2791 21.8125C31.1752 30.251 22.6279 35.3861 14.1884 33.2823C5.75284 31.1784 0.617267 22.6311 2.72161 14.1931C4.82447 5.75358 13.3713 0.617524 21.8083 2.72137C30.2473 4.82522 35.3829 13.3735 33.2791 21.8125Z" fill="#F7931A"/>
<path d="M24.9454 15.7579C25.2584 13.6619 23.6626 12.5352 21.4805 11.7835L22.1883 8.94427L20.4596 8.51356L19.7704 11.278C19.3166 11.1648 18.8499 11.058 18.3862 10.9521L19.0803 8.16948L17.353 7.73877L16.6447 10.577C16.2686 10.4914 15.8994 10.4067 15.5411 10.3176L15.543 10.3088L13.1596 9.71365L12.6998 11.5596C12.6998 11.5596 13.9821 11.8534 13.9551 11.8716C14.655 12.0464 14.782 12.5096 14.7604 12.8768L13.9541 16.1113C14.0023 16.1236 14.0648 16.1414 14.1337 16.1689L13.9516 16.1236L12.8209 20.6547C12.7353 20.8674 12.5182 21.1864 12.0289 21.0653C12.0461 21.0904 10.7727 20.7517 10.7727 20.7517L9.91473 22.7305L12.1643 23.2912C12.5827 23.396 12.9927 23.5058 13.3959 23.6092L12.6806 26.4814L14.4069 26.9121L15.1158 24.0709C15.5868 24.1989 16.0446 24.317 16.4926 24.4283L15.7867 27.2562L17.515 27.6869L18.2302 24.8206C21.1772 25.3783 23.3938 25.1533 24.3256 22.4883C25.0773 20.3422 24.2887 19.1042 22.7382 18.2964C23.8674 18.035 24.7184 17.2922 24.9454 15.7579ZM20.9961 21.2951C20.4615 23.4413 16.8485 22.2816 15.6764 21.9902L16.6255 18.1856C17.797 18.478 21.5528 19.0569 20.9961 21.2951ZM21.5302 15.7269C21.0429 17.6791 18.0353 16.6873 17.0591 16.4441L17.9196 12.9935C18.8957 13.2366 22.0382 13.6905 21.5302 15.7269Z" fill="white"/>
</svg>
