<svg width="36" height="36" viewBox="0 0 36 36" fill="none" xmlns="http://www.w3.org/2000/svg">
<rect width="36" height="36" rx="6" fill="#1A1B22"/>
<path d="M33.75 18C33.75 9.29337 26.6897 2.25 18 2.25C9.29337 2.25 2.25 9.29337 2.25 18C2.25 26.6897 9.29337 33.75 18 33.75C26.6897 33.75 33.75 26.6897 33.75 18Z" fill="url(#paint0_radial_3853_651)"/>
<path d="M28.7093 13.0783C28.6414 13.4687 28.5735 13.6554 28.4717 13.859C28.3698 14.0966 28.268 14.3512 28.1662 14.8943C28.1322 15.098 28.0983 15.2677 28.0813 15.4035V15.4204C28.0474 15.6411 28.0304 15.7938 27.9455 16.0484C27.8777 16.269 27.7589 16.6255 27.4703 16.9988C27.2327 17.3043 26.8424 17.8305 26.3162 17.8984C26.2653 17.8984 26.1805 17.8984 26.1295 17.8814C24.636 17.1176 23.3631 16.5576 22.9218 16.4388C22.4127 16.286 22.4806 15.1659 22.5315 14.1815C22.5654 13.7402 22.5824 13.3159 22.5654 12.9595C22.4975 11.7036 22.2769 10.3458 21.1907 9.68391C20.5458 9.29356 19.6972 9.17475 18.8995 9.17475C19.0522 9.10687 19.205 9.00503 19.3917 8.9032C19.8669 8.63165 20.4439 8.29221 21.0379 8.22432C21.2246 8.20735 21.4113 8.19038 21.598 8.15644C22.7691 8.02066 23.7874 7.90186 24.8566 8.27524C25.3488 8.44496 26.3332 8.98806 26.5878 9.51419C26.7745 9.87061 27.08 10.1591 27.674 10.7192C27.9965 11.0077 28.2001 11.1774 28.3529 11.3132C28.5735 11.4829 28.6074 11.5339 28.6753 11.6527C28.879 12.06 28.8111 12.4843 28.7093 13.0783Z" fill="white"/>
<path d="M23.2953 18.2212C23.3632 18.2382 23.3971 18.323 23.3462 18.3909C23.1934 18.6285 23.0067 18.9679 22.7861 19.3583C22.6843 19.545 22.5824 19.7317 22.4976 19.8675C22.2091 20.3596 22.1921 20.7839 22.1751 21.1064C22.1581 21.4628 22.1412 21.6156 21.9205 21.7514C21.7508 21.8702 21.5641 21.9041 20.3421 22.0908C20.1215 22.1247 20.0367 22.1587 19.9518 22.2096C19.9348 22.2266 19.9009 22.2266 19.8839 22.2435C19.816 22.2775 19.7481 22.2096 19.7481 22.1417C19.7651 21.972 19.7651 21.7514 19.7651 21.4628V21.4119C19.7651 21.1743 19.7651 20.9706 19.7481 20.8179C19.7312 20.5124 19.7312 20.3766 19.816 20.2408C19.9178 20.0711 20.0027 20.0202 20.1215 19.9353C20.3082 19.8165 20.5628 19.6638 20.9192 19.1546C21.1229 18.8831 21.1568 18.7303 21.1907 18.6115C21.2077 18.5606 21.2077 18.5436 21.3605 18.4248C21.5132 18.306 22.0054 17.9327 22.6334 18.0345C22.837 18.0684 23.0577 18.1363 23.2953 18.2212Z" fill="white"/>
<path d="M18.4243 23.8556C18.3903 23.8895 18.3734 23.9065 18.3225 23.9065C18.1867 23.9065 18.1018 23.8725 18.0509 23.8046C17.9321 23.6519 17.9491 23.3464 17.966 23.1597L18.4922 23.0239C18.5261 23.3124 18.5431 23.7028 18.4243 23.8556Z" fill="white"/>
<path d="M18.4583 21.9887C18.4413 22.0566 18.4413 22.1414 18.4413 22.2432C18.4413 22.2772 18.4413 22.3111 18.4413 22.3451C18.4413 22.4299 18.4413 22.5657 18.4413 22.6336C18.2716 22.6845 18.1358 22.6845 17.9661 22.6845C17.9661 22.6336 17.9661 22.5487 17.9661 22.4978C17.9661 22.4639 17.9661 22.413 17.9661 22.379C17.9661 22.3281 17.9661 22.2942 17.9661 22.2432C17.9661 22.1414 17.9661 21.9887 17.9831 21.9377C18.034 21.9377 18.0849 21.9208 18.1358 21.9038C18.2377 21.8868 18.3904 21.8529 18.4753 21.8699C18.4753 21.9038 18.4753 21.9547 18.4583 21.9887Z" fill="white"/>
<path d="M17.5078 23.7026C17.4908 23.9742 17.406 24.2967 17.1514 24.3476C17.0326 24.3645 16.9817 24.3306 16.9477 24.2967C16.778 24.1439 16.761 23.6687 16.778 23.3293C16.8968 23.3293 17.0326 23.3123 17.2023 23.2783C17.3041 23.2614 17.406 23.2274 17.4908 23.2104C17.5078 23.3462 17.5248 23.5159 17.5078 23.7026Z" fill="white"/>
<path d="M17.3891 22.7525L16.829 22.9562C16.8629 22.7355 16.8969 22.43 16.9138 22.2264C16.9308 22.0906 16.9648 22.0397 16.9817 22.0227C16.9817 22.0227 16.9987 22.0057 17.0157 22.0057C17.0157 22.0057 17.0157 22.0057 17.0326 22.0057H17.0496L17.406 21.9888C17.3891 22.1585 17.3891 22.5319 17.3891 22.7525Z" fill="white"/>
<path d="M16.4725 22.5826C16.4386 22.6675 16.4047 22.9051 16.3877 23.0748L15.6918 23.0578C15.7258 22.8372 15.7937 22.6166 15.8446 22.4468C15.9125 22.2771 15.9634 22.1413 16.0313 22.1074C16.0992 22.0735 16.2519 22.0565 16.3537 22.1413C16.5065 22.2432 16.5404 22.3959 16.4725 22.5826Z" fill="white"/>
<path d="M16.2179 24.7383C16.167 24.8062 16.0991 24.8572 16.0312 24.8572C15.9463 24.8741 15.8954 24.8402 15.8445 24.8062C15.6239 24.6026 15.6408 23.9407 15.6578 23.6182C15.9463 23.5503 16.2688 23.4994 16.4216 23.4824C16.4216 23.737 16.4385 24.4329 16.2179 24.7383Z" fill="white"/>
<path d="M15.3015 23.024C15.2676 23.1089 15.2336 23.1938 15.2166 23.2786C15.1318 23.3126 14.8772 23.2786 14.6226 23.2277L14.7923 22.1245C15.0809 22.0397 15.4203 22.0227 15.4882 22.1075C15.607 22.2264 15.3864 22.7864 15.3015 23.024Z" fill="white"/>
<path d="M14.979 24.8907C14.8432 25.0604 14.6395 25.1452 14.351 25.1283C14.1473 25.1283 14.0795 25.0434 14.0455 24.9925C13.8928 24.7379 14.0455 24.1439 14.1983 23.7705L15.1487 23.8214C15.1657 23.8893 15.1657 23.9742 15.1657 24.059C15.1826 24.3476 15.1487 24.687 14.979 24.8907Z" fill="white"/>
<path d="M22.854 16.8633C21.9884 16.6257 22.0733 15.3697 22.1412 14.1477C22.1581 13.7234 22.1921 13.3161 22.1751 12.9767C22.1072 11.8396 21.9205 10.6006 21.004 10.0405C20.0197 9.44651 18.4073 9.58228 17.423 9.70109C17.0665 9.80292 16.7271 9.88778 16.4555 9.87081C15.8785 9.83686 15.4203 9.59926 15.0129 9.37862C14.7074 9.2089 14.4359 9.05615 14.1643 9.05615C14.1474 9.05615 14.1304 9.05615 14.1304 9.05615C13.3666 9.10707 13.0102 9.29376 12.6878 9.58228C12.6029 9.65017 12.5011 9.85384 12.1786 10.7873C12.0089 11.2625 11.9919 11.5171 11.958 11.7547C11.924 11.9753 11.9071 12.2129 11.7883 12.5694C11.7034 12.807 11.6355 13.0106 11.5846 13.2143C11.4318 13.7404 11.2961 14.1647 10.9227 14.6739C10.8718 14.7248 10.8208 14.8266 10.753 14.9115C10.6681 15.0473 10.5663 15.217 10.4135 15.4037C10.3117 15.5394 10.0911 16.0486 10.108 16.2014C10.125 16.4559 10.2099 16.6087 10.2947 16.7784C10.3796 16.9481 10.4984 17.1518 10.5154 17.4403V17.4912C10.5493 17.9325 10.4814 18.1531 9.64978 18.8999C9.12365 19.3751 8.7333 19.8334 8.47872 20.1728C8.46174 20.2067 8.47872 20.2407 8.52963 20.2407C8.5466 20.2407 8.5466 20.2407 8.5466 20.2407C8.56358 20.2407 8.58055 20.2407 8.59752 20.2407C8.61449 20.2407 8.63146 20.2407 8.64844 20.2407C8.66541 20.2407 8.68238 20.2407 8.69935 20.2407C8.90302 20.2577 9.10668 20.3425 9.24245 20.4953C9.25943 20.5292 9.31034 20.5292 9.34429 20.5122C9.48006 20.4613 9.63281 20.4613 9.76859 20.4783C9.93831 20.4953 10.125 20.5462 10.2438 20.665C10.2777 20.6989 10.3287 20.7159 10.3796 20.6989C10.5154 20.665 10.6681 20.665 10.8039 20.7159C10.9057 20.7498 11.0075 20.8177 11.0754 20.9026C11.1263 20.9535 11.2112 20.9705 11.2791 20.9365C11.313 20.9196 11.364 20.8856 11.4149 20.8687C11.6016 20.8008 11.8052 20.8347 11.9749 20.9026C12.0598 20.9365 12.1447 20.9535 12.2295 21.0214C12.3653 21.1232 12.4671 21.259 12.518 21.4118C12.552 21.4966 12.6708 21.5306 12.7387 21.4627C12.8745 21.3608 12.9763 21.3439 13.0781 21.3778C13.129 21.3948 13.163 21.4287 13.1969 21.4796C13.2478 21.5475 13.3327 21.6154 13.4006 21.5815C13.6891 21.4966 14.0286 21.5475 14.2831 21.6833C14.368 21.7342 14.4698 21.8021 14.5207 21.9039V21.853C14.5207 21.8361 14.5377 21.8191 14.5547 21.8021L14.6056 21.7851C14.7414 21.7342 15.4542 21.5306 15.7258 21.8191C15.7427 21.8361 15.7597 21.8361 15.7767 21.8191C15.8106 21.7851 15.8446 21.7512 15.8615 21.7512C16.0482 21.6494 16.3537 21.6324 16.5574 21.8191C16.5913 21.853 16.6592 21.8361 16.6932 21.8021C16.7101 21.7682 16.7271 21.7512 16.761 21.7342C16.8289 21.6663 16.9308 21.6494 17.0326 21.6494L17.423 21.6324C17.5248 21.6324 17.8303 21.5984 17.9151 21.5815H17.9321C17.9661 21.5815 18.017 21.5645 18.0679 21.5475C18.2546 21.5136 18.4752 21.4627 18.6449 21.5475C18.8147 21.6324 18.7977 21.8191 18.7807 21.9888C18.7807 22.0567 18.7637 22.1246 18.7637 22.1925C18.7637 22.2264 18.7637 22.2604 18.7637 22.2943C18.7637 22.447 18.7637 22.5828 18.7468 22.6847L18.7637 22.7695C18.7637 22.7695 18.7637 22.7695 18.7637 22.7865C18.7807 22.8544 18.8656 22.9053 18.9165 22.8544C19.0523 22.7695 19.188 22.6677 19.239 22.5998V22.5828C19.239 22.5659 19.2559 22.5319 19.2729 22.464C19.2899 22.3113 19.3238 22.0227 19.3238 21.4287C19.3238 21.3948 19.3238 21.3778 19.3238 21.3608C19.3238 21.1402 19.3238 20.9535 19.3068 20.8008C19.2899 20.4783 19.2729 20.2237 19.4426 19.9691C19.5954 19.7146 19.7481 19.6297 19.9009 19.5279C20.0706 19.426 20.2573 19.3072 20.5797 18.866C20.7325 18.6453 20.7495 18.5605 20.7664 18.4926C20.8004 18.3229 20.8513 18.221 21.1059 18.0513C21.3095 17.8986 21.9036 17.4403 22.7182 17.5761C22.9898 17.627 23.4141 17.7628 23.8553 17.9325C23.8723 17.9325 23.8893 17.9495 23.9062 17.9495H23.9232C24.3136 18.1022 24.67 18.2719 24.9246 18.4077C24.9755 18.4417 25.0434 18.4247 25.0943 18.3738C25.1791 18.2719 25.264 18.221 25.3489 18.1531C25.3828 18.1362 25.4168 18.1192 25.4337 18.1022C25.4507 18.1022 25.4507 18.0852 25.4507 18.0852C25.5186 18.0343 25.5186 17.8986 25.4337 17.8646C24.2966 17.3045 23.2104 16.9651 22.854 16.8633ZM14.6735 17.1178C14.4019 18.2719 12.6029 19.5618 11.7883 19.5618H11.7713C11.7543 19.5618 11.7373 19.5618 11.7373 19.5618C11.7204 19.5618 11.7034 19.5618 11.6864 19.5448C11.6694 19.5448 11.6694 19.5448 11.6525 19.5448C11.4997 19.4939 11.2961 19.3921 11.1433 19.2393C11.0415 19.1375 10.9566 19.0017 10.9227 18.8829C10.9227 18.866 10.9057 18.832 10.9057 18.815C10.8548 18.6114 10.8039 18.3738 10.9736 17.9664C10.9906 17.9155 11.0245 17.8646 11.0415 17.8137C11.0415 17.7967 11.0585 17.7798 11.0585 17.7628C11.0754 17.7119 11.0924 17.6779 11.1094 17.644C11.1263 17.5761 11.1603 17.5252 11.1773 17.4912C11.1773 17.4743 11.1942 17.4573 11.1942 17.4403C11.2451 17.3045 11.2451 17.2536 11.2621 17.2027C11.2621 17.1688 11.2791 17.1009 11.2961 17.033C11.347 16.8123 11.3809 16.6257 11.3979 16.4729C11.4318 16.1844 11.4828 15.9298 11.6355 15.6922C11.6694 15.6583 11.6864 15.6243 11.7204 15.5904C11.7373 15.5734 11.7373 15.5734 11.7543 15.5564C11.7713 15.5394 11.7713 15.5394 11.7883 15.5225C11.8222 15.4885 11.8731 15.4716 11.9071 15.4546C11.924 15.4546 11.941 15.4376 11.958 15.4376C11.9919 15.4206 12.0259 15.4206 12.0598 15.4037C12.2126 15.3697 12.3823 15.3697 12.5859 15.3867C12.8066 15.4037 13.0102 15.4376 13.18 15.4885C13.3327 15.5225 13.4685 15.5734 13.5703 15.6243C13.5873 15.6243 13.5873 15.6413 13.6043 15.6413C13.6212 15.6583 13.6382 15.6583 13.6721 15.6752C13.7061 15.6922 13.7231 15.6922 13.757 15.7092C13.7909 15.7261 13.8249 15.7431 13.8588 15.7601L13.8928 15.7771C14.0116 15.828 14.1304 15.8959 14.2152 15.9637C14.2662 15.9977 14.3001 16.0316 14.334 16.0656C14.351 16.0826 14.368 16.0826 14.368 16.0995C14.385 16.1165 14.385 16.1165 14.4019 16.1335C14.7583 16.439 14.7414 16.8633 14.6735 17.1178ZM15.5221 12.7221L15.4881 12.9258C15.4033 13.401 15.2166 14.0459 14.5377 14.2156C13.8758 14.3684 13.7231 14.4023 13.2648 14.4363C13.2478 14.4363 13.2478 14.4363 13.2309 14.4363C12.8914 14.4363 12.2295 14.2156 12.1107 13.6895C12.0428 13.3501 12.1956 13.0955 12.4332 12.6882C12.4671 12.6203 12.518 12.5524 12.569 12.4675C12.9084 11.9074 13.0272 11.5001 13.129 11.1776C13.2309 10.8552 13.3157 10.6006 13.5364 10.38C13.5873 10.3291 13.6382 10.2781 13.7061 10.2442C13.74 10.2102 13.7909 10.1933 13.8419 10.1593C13.9098 10.1254 13.9776 10.1084 14.0455 10.0745C14.1983 10.0236 14.368 10.0066 14.5207 10.0066C14.8432 10.0066 15.1657 10.0914 15.3863 10.2781C15.4881 10.363 15.6409 10.5157 15.7258 11.0079C15.7597 11.2625 15.6918 11.7208 15.5221 12.7221ZM20.393 14.0799C20.1554 14.4872 20.0366 14.7078 19.833 14.8775C19.4256 15.217 18.9674 15.2849 18.577 15.2849C18.3055 15.2849 18.0679 15.234 17.9151 15.217C17.5078 15.1491 16.778 15.0133 16.5234 14.4193C16.4725 14.3005 16.4725 14.2326 16.4725 14.1308C16.4725 14.0459 16.4725 13.8762 16.4216 13.5198V13.5028C16.4046 13.3331 16.3877 13.1464 16.4216 12.9088V12.8748C16.5574 12.162 16.6083 12.0602 16.6253 11.9923C16.6932 11.8565 16.8629 11.7886 17.0156 11.8735C17.1514 11.9414 17.2023 12.1111 17.1514 12.2469C17.1344 12.2808 17.1005 12.4336 16.9817 12.9937V13.0276C16.9477 13.1803 16.9647 13.2991 16.9817 13.4519V13.4689C17.0326 13.8762 17.0326 14.0459 17.0326 14.1477C17.0326 14.1647 17.0326 14.1817 17.0326 14.1987V14.2156C17.0835 14.3344 17.1853 14.4023 17.3041 14.4702C17.389 14.5042 17.4739 14.4363 17.4569 14.3514C17.3381 13.7234 17.3381 12.9937 17.5757 12.5354C17.6606 12.3827 17.7963 12.1451 17.9321 11.9074C17.9491 11.8905 17.9661 11.8565 17.9661 11.8396C17.983 11.8226 17.983 11.8056 18 11.7886C18.0679 11.6868 18.1188 11.6019 18.1697 11.5171C18.1697 11.5001 18.1867 11.5001 18.1867 11.4831L18.2037 11.4662C18.2206 11.4492 18.2206 11.4322 18.2376 11.4153C18.2376 11.4153 18.2376 11.3983 18.2546 11.3983L18.2715 11.3813C18.2715 11.3643 18.2885 11.3643 18.2885 11.3474C18.3394 11.2795 18.3904 11.2116 18.4243 11.1437C18.4922 11.0588 18.4073 10.957 18.3225 10.991C18.0849 11.0928 17.9321 11.2116 17.8982 11.2286C17.7794 11.3304 17.5927 11.3134 17.4908 11.1776C17.389 11.0588 17.406 10.8722 17.5418 10.7703C17.6945 10.6515 18.4752 10.0914 19.4087 10.346C20.0876 10.5327 20.427 11.0588 20.5628 11.2455C20.6646 11.3983 21.004 11.8735 20.9871 12.5524C20.9871 13.0446 20.7834 13.418 20.393 14.0799Z" fill="white"/>
<path d="M14.3171 10.6006C14.2661 10.7194 14.2152 10.8552 14.1473 11.0079C14.0116 11.3643 13.8418 11.7717 13.757 11.9244C13.6212 12.179 13.5194 12.3487 13.4345 12.4675C13.3327 12.6203 13.2648 12.7391 13.1969 12.9088C13.0951 13.1973 13.0781 13.5198 13.146 13.8762C12.9593 13.8592 12.6708 13.7404 12.6368 13.5707C12.6199 13.4519 12.6878 13.3331 12.8914 12.9767C12.9254 12.9088 12.9763 12.8239 13.0272 12.756C13.3836 12.145 13.5364 11.6868 13.6382 11.3474C13.757 10.9909 13.8079 10.8382 13.9946 10.7024C14.1134 10.6515 14.2152 10.6176 14.3171 10.6006Z" fill="white"/>
<path d="M13.9608 23.4313C13.7571 23.8386 13.5195 24.212 13.3667 24.3987C13.231 24.0592 13.0103 23.2616 13.0782 22.6336C13.0782 22.6166 13.0782 22.5997 13.0782 22.5827C13.0952 22.379 13.1461 22.2093 13.2479 22.0566C13.3158 21.9547 13.4856 21.9038 13.6722 21.9038C13.808 21.9038 13.9608 21.9378 14.0965 22.0056C14.1644 22.0396 14.2663 22.1244 14.2663 22.3451C14.3002 22.6506 14.1475 23.0579 13.9608 23.4313Z" fill="white"/>
<path d="M24.8228 18.8997C24.8398 18.9167 24.8398 18.9337 24.8398 18.9506C24.7889 19.0694 24.704 19.1543 24.6191 19.2561C24.5173 19.3749 24.3985 19.5107 24.2967 19.7313C24.1439 20.0368 24.093 20.3084 24.076 21.0212C24.0421 21.8528 24.076 22.3111 24.11 22.6505C24.127 22.973 24.1439 23.1767 24.093 23.4991C23.9742 24.1441 23.7027 24.5684 23.3462 25.1115C22.905 25.7903 22.4637 26.4862 21.7169 26.7068C21.649 26.7238 21.649 26.7238 21.4454 26.7238C21.2757 26.7238 20.9871 26.7238 20.461 26.7408C19.4766 26.7747 18.9844 26.7917 18.5771 26.8765C18.1358 26.9614 17.9152 27.0632 17.6776 27.1481C17.4739 27.233 17.2872 27.3008 16.9308 27.3857C16.7102 27.4366 16.3877 27.4706 15.2845 27.4875C14.1305 27.4875 13.4346 27.4875 12.5351 27.3857C11.2792 27.2499 10.6512 27.1651 10.2269 26.9444C9.24252 26.4183 8.81822 25.4679 8.13934 23.9064C8.13934 23.8895 8.15632 23.8725 8.17329 23.8725C8.20723 23.8895 8.24118 23.9064 8.27512 23.9234C8.30906 23.9404 8.34301 23.9404 8.35998 23.9404C8.42787 23.9574 8.49575 23.9574 8.56364 23.9404C8.58061 23.9404 8.58061 23.9404 8.59759 23.9234C8.61456 23.9234 8.63153 23.9234 8.63153 23.9404C8.68245 24.0592 8.75033 24.161 8.86914 24.2289C8.98794 24.2968 9.12372 24.2968 9.24252 24.2968C9.3783 24.2968 9.51407 24.2798 9.64985 24.2629C9.71774 24.2629 9.78563 24.2968 9.81957 24.3477C9.93837 24.6532 10.0911 24.8569 10.3287 24.8908C10.3457 24.8908 10.3627 24.8908 10.3796 24.8908C10.4306 24.8908 10.5154 24.8739 10.6173 24.806C10.7021 24.7381 10.8379 24.789 10.9058 24.8739C10.9567 24.9587 11.0246 25.0096 11.0925 25.0605C11.3301 25.2981 11.9071 25.417 12.3823 25.417C12.6369 25.417 12.8745 25.383 13.0103 25.3151C13.214 25.2133 13.214 25.0775 13.197 25.0096C13.18 24.9078 13.163 24.789 13.1461 24.6872C13.1461 24.6702 13.1631 24.6702 13.1631 24.6872C13.197 24.755 13.2309 24.8229 13.3158 24.8399C13.3328 24.8399 13.3328 24.8399 13.3497 24.8399C13.4855 24.8399 13.6892 24.8908 13.7231 25.0096C13.7401 25.0775 13.774 25.1284 13.808 25.1963C13.8928 25.3151 14.0456 25.4679 14.3681 25.4848H14.385C14.7584 25.4848 15.0469 25.366 15.2336 25.1284C15.2506 25.1115 15.2506 25.0945 15.2676 25.0775C15.3355 24.9757 15.5391 24.9757 15.624 25.0605C15.7258 25.1454 15.8446 25.1963 15.9804 25.1963C15.9974 25.1963 16.0313 25.1963 16.0483 25.1963C16.218 25.1793 16.3538 25.0945 16.4726 24.9417C16.5405 24.8399 16.5914 24.7211 16.6253 24.5853C16.6423 24.5514 16.6932 24.5344 16.7272 24.5684C16.7951 24.6362 16.9139 24.7041 17.0836 24.7041C17.1175 24.7041 17.1684 24.7041 17.2194 24.6872C17.5418 24.6193 17.7115 24.3477 17.7794 24.0592C17.7794 24.0422 17.7964 24.0422 17.7964 24.0592C17.8813 24.161 18.034 24.2798 18.2886 24.2798C18.3056 24.2798 18.3225 24.2798 18.3225 24.2798C18.4583 24.2798 18.5771 24.2119 18.662 24.1101C18.7638 23.9743 18.7977 23.7707 18.8147 23.584C18.8147 23.5331 18.8487 23.4821 18.9166 23.4482C19.1881 23.3294 19.5275 23.0748 19.6294 22.9051C19.6294 22.9051 19.6294 22.8881 19.6463 22.8881C19.6633 22.8372 19.7142 22.8033 19.7482 22.8033C19.9688 22.7693 20.0537 22.7184 20.1385 22.6845C20.2064 22.6505 20.2573 22.6336 20.4271 22.5996C21.666 22.4129 21.9036 22.362 22.1752 22.1923C22.5825 21.9207 22.5995 21.5473 22.6164 21.1909C22.6334 20.8854 22.6504 20.546 22.888 20.1387C22.9729 19.9859 23.0747 19.8162 23.1765 19.6125C23.3632 19.2731 23.6178 18.7979 23.8045 18.5433C23.8384 18.4924 23.9063 18.4754 23.9572 18.5094C24.3815 18.6621 24.7549 18.8318 24.8228 18.8997Z" fill="white"/>
<path d="M12.7727 22.5998C12.7218 23.0241 12.6878 23.6012 12.7557 24.3479C12.7727 24.5516 12.8066 24.7722 12.8406 24.9929C12.7897 25.0268 12.603 25.0777 12.2975 25.0608C11.8562 25.0438 11.4149 24.942 11.2792 24.7892L11.2622 24.7722C11.1604 24.6874 11.0755 24.6195 11.0755 24.4667C11.0755 24.4158 11.0925 24.3649 11.1434 24.2801C11.1773 24.2461 11.2113 24.1952 11.2452 24.1273C11.3131 24.0255 11.4149 23.9067 11.5168 23.737C11.8053 23.2617 11.9071 23.109 12.0429 22.9223C12.0599 22.9053 12.0599 22.8884 12.0768 22.8714C12.1617 22.7695 12.2466 22.6338 12.3993 22.4131C12.5011 22.2604 12.586 22.1246 12.6709 22.0228C12.7897 21.8531 12.8745 21.7682 12.9254 21.7173C12.9254 21.7852 12.9085 21.887 12.8915 21.9888C12.8236 22.1925 12.7897 22.3792 12.7727 22.5998Z" fill="white"/>
<path d="M12.5519 15.9128C12.5519 15.9298 12.5519 15.9298 12.5519 15.9128C12.4841 15.9977 12.4162 16.0995 12.3313 16.2693C12.1107 16.7445 12.1107 17.016 12.1107 17.2367C12.1107 17.3555 12.1107 17.4403 12.0767 17.5422C12.0598 17.61 12.0258 17.6949 11.9749 17.7798C11.8561 18.0683 11.6864 18.4417 11.7543 18.9508C11.6524 18.8999 11.4997 18.7811 11.4657 18.7302C11.4657 18.6963 11.4488 18.6793 11.4488 18.6453C11.4148 18.4926 11.3979 18.3908 11.4827 18.1532C11.7543 17.5422 11.7882 17.3894 11.8052 17.2197C11.8052 17.1857 11.8222 17.1518 11.8222 17.1009C11.8731 16.8633 11.907 16.6596 11.924 16.4899C11.9579 16.2353 11.9919 16.0656 12.0767 15.9468C12.1107 15.8959 12.1955 15.8789 12.3143 15.8789C12.3653 15.8789 12.4162 15.8789 12.4841 15.8959H12.501C12.5519 15.9128 12.5519 15.9128 12.5519 15.9128Z" fill="white"/>
<path d="M12.2125 21.9717C12.1956 21.819 12.1786 21.6832 12.1107 21.5305C12.1107 21.5305 12.0937 21.4965 12.0937 21.4795C12.0768 21.4626 12.0768 21.4456 12.0598 21.4286L12.0428 21.4117C12.0258 21.3947 12.0258 21.3947 12.0089 21.3947L11.9919 21.3777C11.9749 21.3777 11.9749 21.3607 11.958 21.3607H11.941C11.8561 21.3268 11.7713 21.2929 11.6694 21.2759C11.6525 21.2759 11.6355 21.2759 11.6355 21.2759C11.6185 21.2759 11.6185 21.2759 11.6015 21.2759H11.5846C11.5676 21.2759 11.5506 21.2929 11.5167 21.2929C11.4997 21.2929 11.4997 21.3098 11.4827 21.3098L11.4658 21.3268C11.4488 21.3438 11.4488 21.3438 11.4318 21.3607L11.4149 21.3777V21.3947C11.3809 21.4456 11.347 21.4965 11.313 21.5474C11.2282 21.6662 11.1433 21.802 11.0584 21.9208C10.9736 22.0396 10.9057 22.1415 10.8208 22.2603C10.7699 22.3281 10.736 22.3791 10.6851 22.4469C10.6851 22.4639 10.6681 22.4639 10.6681 22.4809C10.719 22.4979 10.7699 22.4979 10.8208 22.5148C10.9396 22.5318 11.0584 22.5488 11.1603 22.5658C11.3979 22.5997 11.6525 22.6167 11.8901 22.5997C11.907 22.5997 11.907 22.5997 11.924 22.5997C11.9749 22.5148 12.0598 22.413 12.1447 22.2772C12.1956 22.2093 12.2465 22.1415 12.2804 22.0736C12.2295 22.0566 12.2125 22.0057 12.2125 21.9717Z" fill="white"/>
<path d="M11.347 22.9731C11.33 23.1598 11.1264 23.635 10.8039 24.0932C10.5324 24.4666 10.3626 24.5684 10.3287 24.5684C10.1929 24.5515 10.0741 24.229 9.97229 23.9065C9.93835 23.7708 9.88743 23.652 9.87046 23.5332C9.80257 23.2955 9.7856 22.9561 9.80257 22.7524C10.0741 22.9052 10.5493 22.9391 11.2282 22.9391C11.2622 22.9561 11.3131 22.9561 11.347 22.9731Z" fill="white"/>
<path d="M10.8717 21.4453C10.7529 21.632 10.6341 21.8017 10.5153 21.9714C10.4474 22.0563 10.3965 22.1411 10.3286 22.226C10.2947 22.2769 10.2438 22.3278 10.2098 22.3787C10.108 22.3618 10.0231 22.3278 9.92129 22.3109C9.83643 22.2939 9.76854 22.2599 9.68368 22.226C9.66671 22.226 9.64974 22.209 9.63276 22.209C9.61579 22.192 9.59882 22.1581 9.58185 22.1411C9.61579 22.0902 9.63276 22.0223 9.66671 21.9714C9.71762 21.8696 9.76854 21.7677 9.83643 21.6659C9.93826 21.4962 10.0571 21.3095 10.2438 21.1907C10.2607 21.1907 10.2607 21.1737 10.2777 21.1737C10.3456 21.1398 10.4135 21.1058 10.4983 21.0889C10.5153 21.0889 10.5662 21.0889 10.6002 21.0889H10.6171C10.6171 21.0889 10.6171 21.0889 10.6341 21.0889C10.6511 21.0889 10.6681 21.1058 10.702 21.1058C10.702 21.1058 10.719 21.1058 10.719 21.1228C10.7359 21.1398 10.7529 21.1398 10.7699 21.1568C10.7359 21.1398 10.8038 21.2077 10.8038 21.1907C10.8378 21.2925 10.8547 21.3434 10.8717 21.4453Z" fill="white"/>
<path d="M9.95525 20.9537C9.73461 21.1234 9.58187 21.361 9.46306 21.6156C9.39518 21.7513 9.32729 21.8871 9.2594 22.0229C9.2594 22.0399 9.24243 22.0568 9.24243 22.0568C9.17454 22.0399 9.10665 22.0229 9.05574 22.0059C8.98785 21.989 8.91996 21.955 8.85207 21.938C8.81813 21.9211 8.80116 21.9041 8.76721 21.8871C8.8351 21.7683 8.90299 21.6495 8.98785 21.5307C9.08968 21.378 9.20848 21.2082 9.32729 21.0725C9.3782 21.0216 9.42912 20.9537 9.48003 20.9197C9.54792 20.8858 9.61581 20.8858 9.70067 20.9027C9.78553 20.9027 9.87039 20.9027 9.93828 20.9367C9.92131 20.9367 9.93828 20.9537 9.95525 20.9537Z" fill="white"/>
<path d="M9.61587 23.8383C9.59889 23.8553 9.59889 23.8553 9.58192 23.8723H9.56495C9.51403 23.8723 9.46312 23.8893 9.4122 23.8893C9.31037 23.8893 9.20854 23.9062 9.10671 23.8893C9.05579 23.8893 9.00487 23.8723 8.97093 23.8383C8.93699 23.7874 8.92001 23.6856 8.90304 23.6177C8.83515 23.2443 8.83515 22.8709 8.8691 22.4976C9.05579 22.5654 9.25945 22.6164 9.46312 22.6503C9.4122 22.9897 9.49706 23.4819 9.53101 23.6177C9.58192 23.6856 9.59889 23.7705 9.61587 23.8383Z" fill="white"/>
<path d="M9.00483 20.8345C8.83511 21.0382 8.68237 21.2588 8.54659 21.4964C8.49567 21.5813 8.42779 21.6831 8.37687 21.7849C8.30898 21.7679 8.2411 21.734 8.19018 21.7001C8.13926 21.6661 8.08835 21.6322 8.0544 21.5982C8.03743 21.5813 8.00349 21.5643 7.98652 21.5473C7.98652 21.5473 7.96954 21.5473 7.96954 21.5303C7.98652 21.4794 8.02046 21.4455 8.02046 21.4115C8.0544 21.3267 8.08835 21.2588 8.13926 21.1909C8.22412 21.0551 8.30898 20.9193 8.41081 20.7836C8.44476 20.7327 8.4787 20.6817 8.54659 20.6648C8.59751 20.6478 8.66539 20.6648 8.71631 20.6648C8.81814 20.6817 8.91997 20.7496 9.00483 20.8345Z" fill="white"/>
<path d="M7.69804 21.7339C7.69804 21.7169 7.71501 21.7169 7.69804 21.7339C7.76592 21.8018 7.81684 21.8527 7.88473 21.9036C7.91867 21.9206 7.93564 21.9546 7.96959 21.9715C7.96959 21.9715 7.96959 21.9715 7.96959 21.9885C7.9017 22.277 7.85078 22.5825 7.85078 22.888C7.85078 22.905 7.83381 22.905 7.83381 22.888C7.74895 22.5316 7.64712 21.9546 7.69804 21.7339Z" fill="white"/>
<path d="M8.52966 22.3619C8.49571 22.6164 8.47874 22.871 8.49571 23.1256C8.49571 23.2614 8.51269 23.3971 8.52966 23.5499C8.49571 23.5499 8.46177 23.5499 8.42783 23.5499H8.41085H8.39388C8.35994 23.5329 8.35994 23.5329 8.32599 23.5159C8.29205 23.499 8.25811 23.4481 8.22416 23.3971C8.15627 23.2783 8.1393 23.1426 8.1393 23.0068C8.12233 22.7522 8.15627 22.4807 8.20719 22.2261C8.24113 22.243 8.29205 22.26 8.34297 22.277C8.41085 22.3109 8.46177 22.3449 8.52966 22.3619Z" fill="white"/>
<mask id="mask0_3853_651" style="mask-type:luminance" maskUnits="userSpaceOnUse" x="2" y="2" width="32" height="32">
<path d="M33.75 18C33.75 9.29337 26.6897 2.25 18 2.25C9.29337 2.25 2.25 9.29337 2.25 18C2.25 26.6897 9.29337 33.75 18 33.75C26.6897 33.75 33.75 26.6897 33.75 18Z" fill="white"/>
</mask>
<g mask="url(#mask0_3853_651)">
<g opacity="0.8">
<path opacity="0.8" d="M15.2167 35.6C14.0626 35.6 12.9764 35.5321 12.0599 35.4643L11.8054 35.4473L11.5508 35.4133C11.432 35.3964 11.2962 35.3794 11.1435 35.3624C10.2609 35.2606 8.61464 35.0909 6.79863 34.2423L6.51011 34.1065L6.25553 33.9537C2.7593 31.985 1.46943 29.0488 0.756609 27.4704C0.705693 27.3686 0.654777 27.2498 0.603861 27.131C0.247449 26.4012 0.0268136 25.7563 -0.159878 25.1453L-0.193822 25.0095L-0.227766 24.8737C-0.736926 23.0747 -0.85573 21.5303 -0.635094 19.9858C-0.397486 18.4414 0.162589 17.0497 1.16394 15.5731L1.6731 14.7415C1.77493 14.5717 1.84282 14.3851 1.89373 14.1984C2.28409 12.2636 3.16663 10.8888 3.6079 10.2269C3.72671 9.42923 3.93037 8.64852 4.20192 7.88478L4.23586 7.76598L4.28678 7.64717C4.28678 7.6302 4.30375 7.59626 4.32072 7.54534C4.52439 6.95132 4.98263 5.57659 6.1537 4.117L6.59497 3.60784L7.05321 3.20052C8.20731 2.14825 9.59901 1.36754 11.0925 0.926269C11.9242 0.67169 12.7897 0.518942 13.6723 0.468026H13.7571H13.876C14.0287 0.468026 14.1814 0.451054 14.3172 0.451054C14.8603 0.451054 15.4034 0.50197 15.9465 0.58683C16.286 0.637746 16.6254 0.603802 16.9479 0.468026C17.8813 0.0776704 18.8487 -0.176909 19.8501 -0.312685C19.9349 -0.329657 20.0028 -0.329657 20.0707 -0.346629C20.2235 -0.363601 20.4781 -0.397545 20.7835 -0.431489C21.3097 -0.482405 22.1243 -0.550293 22.9899 -0.550293C24.7041 -0.550293 26.1806 -0.329657 27.5045 0.128586L27.6233 0.16253L27.7251 0.196474C30.6443 1.29965 32.1208 2.8441 33.1901 4.18489L33.241 4.25278L33.3937 4.38855C34.3611 5.13532 35.1758 6.06878 35.8207 7.10407L36.0244 7.42654L36.1941 7.76598C37.6198 10.6682 37.1615 13.3667 36.9918 14.3681L36.9748 14.419C36.856 15.1658 36.6523 15.8956 36.3978 16.6084C36.2959 17.2873 36.1432 17.9661 35.9226 18.6111C35.5492 19.7652 34.9891 20.8683 34.2763 21.8527C33.8689 22.4298 33.3937 22.9898 32.8846 23.482C32.6979 23.6518 32.5791 23.8894 32.5451 24.1439C32.5282 24.2967 32.4942 24.4494 32.4772 24.6022C32.0529 26.8425 31.0855 28.4039 30.6782 29.0319L29.4732 30.763C28.0136 32.579 26.2825 33.7671 24.1949 34.412L23.6858 34.5647L23.1427 34.6666C22.5147 34.7854 21.8867 34.8363 21.2418 34.8363C21.1569 34.8363 21.0721 34.8363 20.9702 34.8363H20.9363H20.8345H20.7157C20.4781 34.8363 20.2404 34.8872 20.0028 34.9551C18.6111 35.3964 17.0837 35.6 15.2167 35.6Z" stroke="url(#paint1_linear_3853_651)" stroke-width="1.0554" stroke-miterlimit="10"/>
<path opacity="0.8" d="M15.2166 34.3951C14.1135 34.3951 13.0442 34.3272 12.1617 34.2593L11.958 34.2424L11.7544 34.2084C11.6186 34.1914 11.4658 34.1745 11.3131 34.1575C10.4475 34.0726 9.02186 33.9029 7.42649 33.1561L7.18889 33.0373L6.96825 32.9185C3.86238 31.2044 2.72526 28.6416 2.04638 27.1141C1.99546 27.0123 1.94455 26.8765 1.87666 26.7577C1.55419 26.1128 1.35053 25.5018 1.18081 24.9587L1.14686 24.8399L1.11292 24.738C0.671647 23.1257 0.552843 21.7679 0.756506 20.4272C0.96017 19.1033 1.46933 17.8644 2.35187 16.5745L3.01378 15.5053C3.13258 15.3186 3.21744 15.098 3.25139 14.8773C3.57386 13.0443 4.43943 11.7545 4.82978 11.1605L4.8807 11.0926L4.89767 11.0586C4.89767 11.0417 4.91464 11.0247 4.91464 11.0077C4.93161 10.9229 4.96556 10.855 4.98253 10.7871C5.08436 10.0403 5.27105 9.29354 5.52563 8.58072L5.55958 8.47889L5.59352 8.37705C5.61049 8.34311 5.61049 8.30917 5.64444 8.20733C5.83113 7.64726 6.22148 6.47619 7.2398 5.22026L7.61319 4.77899L7.98657 4.43955C8.98792 3.52307 10.1929 2.84419 11.4828 2.4708C12.2296 2.25017 12.9763 2.11439 13.757 2.08045H13.8249H13.9268C14.0625 2.08045 14.1813 2.06348 14.3001 2.06348C14.8602 2.06348 15.4033 1.91073 15.9464 2.01256C16.3707 2.09742 16.795 2.0465 17.1854 1.87678C17.9152 1.55432 18.8996 1.43551 20.0197 1.28277C20.1046 1.26579 20.1725 1.26579 20.2234 1.24882C20.3761 1.23185 20.6137 1.19791 20.8853 1.18093C21.3775 1.13002 22.1412 1.0791 22.9728 1.0791C24.5343 1.0791 25.8581 1.28277 27.0291 1.67312L27.131 1.70706L27.2158 1.74101C29.7956 2.72538 31.0685 4.01525 32.0698 5.28815C32.1207 5.35604 32.1886 5.42393 32.2056 5.45787L32.2226 5.47484L32.4093 5.64456L32.4262 5.67851C33.2918 6.34042 34.0216 7.15507 34.5817 8.07156L34.7514 8.34311L34.8872 8.63163C36.1091 11.1265 35.7358 13.4177 35.566 14.3851L35.5491 14.4361C35.4303 15.1489 35.2436 15.8278 34.989 16.5066C34.9041 17.1516 34.7514 17.7965 34.5477 18.4075C34.2083 19.4258 33.7161 20.3932 33.0881 21.2758C32.6638 21.8868 32.1547 22.4468 31.6116 22.939C31.357 23.1766 31.1873 23.4821 31.1533 23.8385C31.1194 24.0931 31.0854 24.3307 31.0515 24.5853C30.6781 26.571 29.8295 27.9288 29.4222 28.5398L28.4378 29.9654C27.131 31.6456 25.5865 32.7318 23.7196 33.3089L23.2953 33.4447L22.8371 33.5295C22.294 33.6314 21.7339 33.6823 21.1908 33.6653C21.1059 33.6653 21.0211 33.6653 20.9362 33.6653H20.9192H20.8683C20.8683 33.6653 20.8513 33.6653 20.8174 33.6653H20.7156H20.6137H20.427C20.1725 33.6823 19.9179 33.7162 19.6633 33.8011C18.4243 34.2084 16.9817 34.3951 15.2166 34.3951Z" stroke="url(#paint2_linear_3853_651)" stroke-width="1.0554" stroke-miterlimit="10"/>
<path opacity="0.8" d="M15.2166 32.9864C14.1644 32.9864 13.1291 32.9186 12.2635 32.8507L12.0938 32.8337L11.9241 32.8167C11.7713 32.7998 11.6016 32.7828 11.4319 32.7658C10.6172 32.681 9.37826 32.5452 7.98656 31.8833L7.79986 31.7984L7.63014 31.6966C4.96554 30.203 3.98117 27.9967 3.33623 26.5371C3.28532 26.4183 3.21743 26.2655 3.16651 26.1467C2.87799 25.5697 2.6913 25.0266 2.53855 24.5174L2.50461 24.4326L2.48763 24.3477C2.09728 22.956 1.99545 21.768 2.16517 20.6478C2.33489 19.5107 2.79313 18.4415 3.57384 17.3043L3.67567 17.1686L3.7775 17.0328C3.84539 16.9479 3.89631 16.8631 3.9642 16.7952L4.35455 16.0654C4.49033 15.8278 4.57519 15.5732 4.60913 15.3016C4.86371 13.6723 5.64442 12.5013 6.00083 11.9582C6.01781 11.9242 6.05175 11.8903 6.06872 11.8733L6.15358 11.7545C6.18753 11.6866 6.22147 11.6017 6.25541 11.4999C6.28936 11.3981 6.34027 11.2453 6.37422 11.1096C6.45908 10.4137 6.6288 9.73483 6.86641 9.07292L6.90035 8.98806L6.93429 8.9032C6.95127 8.83531 6.98521 8.7844 7.01915 8.66559C7.18887 8.13946 7.51134 7.17206 8.37691 6.1198L8.66544 5.76339L8.97093 5.49183C9.81953 4.71112 10.8378 4.15105 11.941 3.81161C12.586 3.62492 13.2309 3.50611 13.9098 3.47217H13.9607H14.0456C14.1474 3.47217 14.2492 3.47217 14.368 3.47217C14.9451 3.47217 15.5051 3.54006 16.0652 3.6928C16.5404 3.81161 17.0496 3.76069 17.4909 3.54006C18.2037 3.20062 19.1541 2.82723 20.2573 2.69146C20.3252 2.67448 20.3931 2.67448 20.444 2.65751C20.5798 2.64054 20.8004 2.6066 21.072 2.58962C21.5302 2.53871 22.26 2.48779 23.0237 2.48779C24.4154 2.48779 25.5865 2.65751 26.6218 3.01392L26.6897 3.04787L26.7576 3.08181C29.1336 3.98133 30.1859 5.15239 31.0006 6.18769C31.1873 6.40832 31.2042 6.44227 31.323 6.56107L31.4758 6.69684L31.5267 6.76473C31.9171 7.07023 32.7147 7.69819 33.4106 8.83531L33.5464 9.05595L33.6652 9.27659C34.7005 11.3641 34.378 13.265 34.2252 14.1815L34.2083 14.2324C34.1064 14.8943 33.9197 15.5562 33.6482 16.1842V16.2351C33.5803 16.8291 33.4445 17.4231 33.2578 17.9832C32.9693 18.8827 32.545 19.7144 31.9849 20.4781C31.5267 21.14 30.9666 21.734 30.3387 22.2432C30.1859 22.362 30.0671 22.5147 29.9822 22.6845C29.8974 22.8542 29.8465 23.0409 29.8295 23.2276C29.8125 23.6009 29.7616 23.9743 29.6937 24.3477C29.3713 26.0619 28.6245 27.2499 28.2511 27.8439L27.4874 28.9641C26.3502 30.4916 24.9925 31.4759 23.3462 31.9851L23.0068 32.0869L22.6334 32.1548C22.1751 32.2397 21.6999 32.2736 21.2247 32.2736C21.1568 32.2736 21.072 32.2736 20.9871 32.2736H20.9701H20.8853C20.8683 32.2736 20.8343 32.2736 20.7495 32.2736H20.6646H20.5967L20.2064 32.2906C19.9348 32.3076 19.6633 32.3415 19.4087 32.4433C18.2376 32.8167 16.8968 32.9864 15.2166 32.9864Z" stroke="url(#paint3_linear_3853_651)" stroke-width="0.9894" stroke-miterlimit="10"/>
<path opacity="0.8" d="M15.2167 31.5777C14.2153 31.5777 13.214 31.5098 12.3823 31.4419L12.2635 31.4249L12.1447 31.4079C11.975 31.391 11.7883 31.357 11.6186 31.34C10.8549 31.2552 9.80261 31.1364 8.61457 30.5933L8.47879 30.5254L8.34302 30.4575C6.08574 29.1846 5.25411 27.3177 4.64312 25.9599C4.57524 25.8242 4.50735 25.6714 4.45643 25.5356C4.20185 25.0095 4.03213 24.5173 3.89636 24.093L3.87938 24.0251L3.82847 23.9742C3.16656 21.6321 3.42114 19.9858 4.71101 18.1019L4.7789 18.0001L4.84679 17.8982C4.93165 17.7964 5.01651 17.6776 5.10137 17.5758C5.22017 17.423 5.33897 17.2533 5.47475 17.1006C5.55961 16.9987 5.6275 16.8799 5.67841 16.7611L5.83116 16.3877C5.89905 16.218 5.93299 16.0483 5.94997 15.8786C6.08574 14.3681 6.81554 13.2819 7.17195 12.7388C7.20589 12.7048 7.23984 12.6369 7.25681 12.6199L7.34167 12.4842L7.37561 12.4502C7.42653 12.3654 7.51139 12.1617 7.57928 11.958C7.61322 11.8223 7.68111 11.6016 7.749 11.4149V11.398C7.81688 10.77 7.96963 10.142 8.19027 9.54802L8.20724 9.4971L8.22421 9.44619C8.25816 9.34436 8.2921 9.2595 8.32604 9.14069C8.47879 8.68245 8.73337 7.90174 9.42922 7.03617L9.64986 6.76461L9.87049 6.56095C11.5168 5.06742 13.3498 4.94861 13.9607 4.8977H13.9947H14.0626C14.1474 4.8977 14.2323 4.8977 14.3172 4.8977C15.0469 4.8977 15.7598 5.05044 16.4387 5.33897C16.5575 5.38988 16.6932 5.40686 16.812 5.40686C16.9478 5.40686 17.0666 5.37291 17.1854 5.30502C17.8134 4.94861 18.9505 4.28671 20.4101 4.11699C20.478 4.10001 20.5459 4.10001 20.5968 4.10001C20.7326 4.08304 20.9362 4.06607 21.1738 4.03213C21.6151 3.99818 22.277 3.94727 22.9898 3.94727C24.2288 3.94727 25.2471 4.10001 26.1127 4.38854L26.1636 4.40551L26.2145 4.42248C28.2512 5.18622 29.1167 6.15362 29.8465 7.07011C30.0332 7.32469 30.135 7.42652 30.3387 7.63019L30.4575 7.73202L30.5424 7.83385L30.6103 7.88477C30.9497 8.15632 31.5946 8.64851 32.1717 9.58196L32.2735 9.75168L32.3584 9.9214C33.19 11.6186 32.9184 13.1461 32.7827 13.9607V14.0117C32.6808 14.6057 32.5111 15.1997 32.2735 15.7598L32.2565 15.8107C32.2565 15.8277 32.2565 15.8277 32.2396 15.8616C32.2226 15.9125 32.2226 15.9634 32.2226 16.0143L32.2056 16.0822C32.1547 16.5914 32.0359 17.0836 31.8662 17.5588C31.6116 18.3225 31.2552 19.0354 30.78 19.6803C30.3217 20.3422 29.7956 20.8853 29.2186 21.3096C28.964 21.4963 28.7603 21.7339 28.6076 22.0224C28.4548 22.311 28.3869 22.6164 28.3869 22.9389C28.3869 23.3293 28.336 23.7366 28.2681 24.127C27.9966 25.5865 27.3856 26.5709 26.9952 27.1649L26.4351 27.9966C25.4508 29.3713 24.2797 30.2538 22.871 30.6951L22.8031 30.7121C22.6843 30.746 22.5655 30.78 22.4467 30.7969L22.3619 30.8139C21.9715 30.8818 21.5812 30.9157 21.1908 30.9157C21.1229 30.9157 21.055 30.9157 20.9871 30.9157H20.9702C20.9362 30.9157 20.9023 30.9157 20.8683 30.9157C20.8344 30.9157 20.7665 30.9157 20.6307 30.9157H20.5798H20.5289C20.3422 30.9157 20.1046 30.9327 19.9009 30.9327C19.6124 30.9497 19.3409 31.0006 19.0693 31.1024C18.051 31.4079 16.812 31.5777 15.2167 31.5777Z" stroke="url(#paint4_linear_3853_651)" stroke-width="0.9235" stroke-miterlimit="10"/>
<path opacity="0.8" d="M15.2167 30.1689C14.2493 30.1689 13.2989 30.101 12.4842 30.0331H12.3993L12.3145 30.0161C12.1278 29.9822 11.9241 29.9652 11.7374 29.9482C11.0246 29.8634 10.1421 29.7785 9.19163 29.3203L9.0898 29.2694L9.00494 29.2184C7.15499 28.1832 6.45914 26.6217 5.91604 25.3658C5.84815 25.2131 5.78026 25.0603 5.71237 24.8906C5.49174 24.4493 5.33899 24.008 5.22019 23.6347L5.20322 23.5837L5.18624 23.5328C4.64314 21.598 4.82983 20.376 5.88209 18.8486L5.93301 18.7807L5.98393 18.7128C6.06879 18.594 6.15365 18.4922 6.23851 18.3734C6.51006 18.0169 6.78161 17.6605 7.17197 17.2362C7.25683 17.1514 7.30774 17.0156 7.32471 16.8968L7.34168 16.5064L7.32471 16.3537V16.2009C7.35866 14.945 7.98662 14.0116 8.32606 13.5024C8.36 13.4515 8.41092 13.3836 8.42789 13.3496L8.47881 13.2648L8.52972 13.1969C8.59761 13.0951 8.75036 12.7387 8.88614 12.4162C8.93705 12.2804 9.00494 12.0089 9.0898 11.7882C9.10677 11.7203 9.10677 11.7034 9.12374 11.5506C9.17466 11.0245 9.31043 10.4984 9.48015 10.0062L9.49713 9.97222L9.5141 9.93827C9.56501 9.8025 9.59896 9.70067 9.64987 9.56489C9.78565 9.15756 9.98931 8.56354 10.5154 7.90164L10.6682 7.71494L10.8209 7.57917C11.975 6.54388 13.214 6.34021 14.0626 6.2893H14.0965H14.1305C14.1984 6.2893 14.2493 6.2893 14.3172 6.2893C15.03 6.2893 15.8956 6.62874 16.3538 6.84937C16.4556 6.90029 16.5744 6.93423 16.6932 6.93423C16.8121 6.93423 16.9309 6.91726 17.0497 6.88332C17.3382 6.78149 17.6097 6.66268 17.8643 6.52691C18.4414 6.18747 19.3918 5.64436 20.5798 5.50859C20.6477 5.49162 20.6986 5.49161 20.7496 5.49161C20.8684 5.47464 21.055 5.45767 21.2927 5.42373C21.7 5.38978 22.311 5.33887 22.9729 5.33887C24.0421 5.33887 24.9247 5.45767 25.6375 5.71225L25.6714 5.72922L25.7054 5.74619C27.4026 6.39113 28.0814 7.12092 28.7264 7.95255C28.93 8.2241 29.0828 8.4108 29.3883 8.68235L29.4562 8.75024L29.5241 8.81812C29.592 8.88601 29.6598 8.93693 29.7277 8.98784C30.0163 9.20848 30.5084 9.59883 30.9327 10.3117L31.0006 10.4135L31.0515 10.5323C31.6795 11.8052 31.4758 13.0102 31.357 13.723V13.7739C31.2722 14.2661 31.1364 14.7413 30.9327 15.1996C30.8818 15.3184 30.8479 15.4372 30.8139 15.573C30.797 15.6578 30.78 15.7427 30.78 15.8106L30.763 15.8785C30.7121 16.2858 30.6272 16.6931 30.4915 17.0835C30.2878 17.7114 29.9823 18.3055 29.6089 18.8316C29.0319 19.6462 28.37 20.2233 27.5723 20.5967C27.3856 20.6815 27.2159 20.8173 27.0971 21.004C26.9783 21.1737 26.9104 21.3944 26.8934 21.598C26.8934 21.6829 26.8934 21.7508 26.8934 21.8017C26.9274 22.4127 26.9783 23.1085 26.8425 23.8383C26.6219 25.0264 26.1127 25.8241 25.7393 26.4181C25.7393 26.4181 24.0082 28.8281 22.4298 29.3203L22.2601 29.3712L22.0734 29.4051C21.7679 29.4561 21.4624 29.49 21.1399 29.49C21.089 29.49 21.0211 29.49 20.9532 29.49C20.9193 29.49 20.8684 29.49 20.8174 29.49C20.7496 29.49 20.6477 29.49 20.495 29.507H20.461H20.4271C19.8161 29.5239 19.256 29.5409 19.0863 29.5749C19.0014 29.5918 18.9166 29.6088 18.8317 29.6427C18.0001 29.9992 16.829 30.1689 15.2167 30.1689Z" stroke="url(#paint5_linear_3853_651)" stroke-width="0.8575" stroke-miterlimit="10"/>
<path opacity="0.8" d="M15.2167 28.7773C14.3003 28.7773 13.3838 28.7094 12.6031 28.6585H12.5691H12.5352C12.3145 28.6246 12.1109 28.6076 11.9242 28.5906C11.2623 28.5227 10.5664 28.4379 9.81965 28.0984L9.76874 28.0815L9.71782 28.0645C8.2752 27.2498 7.7321 26.0448 7.22294 24.8738C7.15505 24.704 7.07019 24.5343 6.98533 24.3646C6.81561 24.0252 6.67984 23.6518 6.57801 23.2954V23.2784V23.2614C6.13673 21.717 6.25554 20.9363 7.07019 19.7482L7.08717 19.7143L7.10414 19.6803C7.20597 19.5615 7.29083 19.4427 7.37569 19.3409C7.76605 18.8317 8.10548 18.3905 8.86922 17.6776C8.92014 17.6267 8.97106 17.5588 8.98803 17.474C9.005 17.4061 9.005 17.3212 8.97106 17.2533L8.83528 16.863C8.80134 16.7442 8.78436 16.6084 8.78436 16.4896V16.3878V16.3029C8.81831 15.4543 9.25958 14.7924 9.5481 14.3511C9.59902 14.2832 9.63296 14.2153 9.66691 14.1644L9.70085 14.1135L9.73479 14.0626C9.88754 13.8589 10.1421 13.2649 10.2779 12.9085C10.3118 12.7897 10.3967 12.5012 10.4816 12.2805C10.5325 12.1108 10.5664 11.9411 10.5834 11.7714C10.6343 11.3471 10.7192 10.9228 10.8719 10.5324V10.5155V10.4985C10.9398 10.3288 10.9907 10.193 11.0247 10.0572C11.1435 9.7008 11.2792 9.29347 11.6526 8.83523L11.7205 8.75037L11.7884 8.68248C12.6031 7.93572 13.5026 7.79994 14.1815 7.74902H14.1984H14.2154C14.2493 7.74902 14.3003 7.74902 14.3342 7.74902C15.0131 7.74902 15.5222 8.02057 15.8617 8.20727L15.9465 8.24121H15.9635C16.0653 8.29213 16.1332 8.34304 16.2181 8.37699C16.4218 8.47882 16.6763 8.51276 16.897 8.44487C17.3722 8.32607 18.102 8.03755 18.5772 7.766H18.5942C19.1033 7.4605 19.884 7.01923 20.8005 6.9174C20.8514 6.90042 20.9193 6.90042 20.9702 6.90042C21.0721 6.88345 21.2588 6.86648 21.4624 6.84951C21.8358 6.81556 22.4129 6.76465 23.0069 6.76465C23.9234 6.76465 24.6532 6.86648 25.2132 7.05317H25.2302H25.2472C26.6049 7.56233 27.1141 8.10544 27.6572 8.81826C27.8778 9.10678 28.0985 9.37833 28.5058 9.73474L28.5398 9.76869L28.5737 9.80263C28.6755 9.90446 28.7943 10.0063 28.9301 10.1081C29.1677 10.2948 29.5072 10.5494 29.7957 11.0416L29.8296 11.0925L29.8636 11.1434C30.2879 12.026 30.1521 12.8576 30.0503 13.4856V13.5365C29.9824 13.9268 29.8805 14.3002 29.7108 14.6736C29.626 14.8773 29.5581 15.0979 29.5241 15.3185C29.5072 15.4543 29.4902 15.5561 29.4732 15.641L29.4562 15.7089C29.4223 16.0314 29.3544 16.3368 29.2526 16.6423C29.0998 17.1345 28.8622 17.5928 28.5567 18.0171C28.0476 18.7638 27.4705 19.2221 26.7068 19.4597C26.3334 19.5785 26.0279 19.8161 25.8242 20.1386L25.7563 20.2234L25.6885 20.3083C25.5018 20.5289 25.5527 21.3775 25.5866 21.8867C25.6206 22.4468 25.6545 23.0238 25.5527 23.5669C25.383 24.5004 24.9756 25.1283 24.6192 25.6714C24.6192 25.6714 23.2954 27.5893 22.0904 27.9457L22.0055 27.9796L21.9207 27.9966C21.7 28.0305 21.4624 28.0645 21.2248 28.0645C21.1739 28.0645 21.123 28.0645 21.0551 28.0645C21.0042 28.0645 20.9533 28.0645 20.8854 28.0645C20.8005 28.0645 20.6817 28.0645 20.4781 28.0815H20.4611H20.4441C19.6464 28.1154 19.1542 28.1324 18.8827 28.1833C18.696 28.2172 18.5263 28.2681 18.3566 28.336C17.6268 28.6246 16.6424 28.7773 15.2167 28.7773Z" stroke="url(#paint6_linear_3853_651)" stroke-width="0.8575" stroke-miterlimit="10"/>
</g>
</g>
<defs>
<radialGradient id="paint0_radial_3853_651" cx="0" cy="0" r="1" gradientUnits="userSpaceOnUse" gradientTransform="translate(18.0006 19.6455) rotate(90) scale(17.6925)">
<stop offset="0.1667" stop-color="#073183"/>
<stop offset="1" stop-color="#0054F9"/>
</radialGradient>
<linearGradient id="paint1_linear_3853_651" x1="0.0444305" y1="-1.2911" x2="36.1316" y2="36.5845" gradientUnits="userSpaceOnUse">
<stop offset="0.2057" stop-color="#89D0FF"/>
<stop offset="0.3984" stop-color="#EBBF9A"/>
<stop offset="0.6015" stop-color="#EB8280"/>
<stop offset="0.8411" stop-color="#A281FF"/>
</linearGradient>
<linearGradient id="paint2_linear_3853_651" x1="1.4437" y1="0.338665" x2="34.7121" y2="35.3986" gradientUnits="userSpaceOnUse">
<stop offset="0.2057" stop-color="#89D0FF"/>
<stop offset="0.3984" stop-color="#EBBF9A"/>
<stop offset="0.6015" stop-color="#EB80DA"/>
<stop offset="0.8411" stop-color="#A281FF"/>
</linearGradient>
<linearGradient id="paint3_linear_3853_651" x1="2.85703" y1="1.74775" x2="33.3061" y2="33.9914" gradientUnits="userSpaceOnUse">
<stop offset="0.2057" stop-color="#89D0FF"/>
<stop offset="0.3984" stop-color="#EBBF9A"/>
<stop offset="0.6015" stop-color="#EB8280"/>
<stop offset="0.8411" stop-color="#A281FF"/>
</linearGradient>
<linearGradient id="paint4_linear_3853_651" x1="4.26848" y1="3.16158" x2="31.8919" y2="32.5802" gradientUnits="userSpaceOnUse">
<stop offset="0.2057" stop-color="#89D0FF"/>
<stop offset="0.3984" stop-color="#EBBF9A"/>
<stop offset="0.6015" stop-color="#EB80E7"/>
<stop offset="0.8411" stop-color="#A281FF"/>
</linearGradient>
<linearGradient id="paint5_linear_3853_651" x1="5.67168" y1="4.57815" x2="30.4748" y2="31.1696" gradientUnits="userSpaceOnUse">
<stop offset="0.2057" stop-color="#89D0FF"/>
<stop offset="0.3984" stop-color="#EBBF9A"/>
<stop offset="0.6015" stop-color="#EB80D3"/>
<stop offset="0.8411" stop-color="#A281FF"/>
</linearGradient>
<linearGradient id="paint6_linear_3853_651" x1="7.09314" y1="5.97791" x2="29.0735" y2="29.7528" gradientUnits="userSpaceOnUse">
<stop offset="0.2057" stop-color="#89D0FF"/>
<stop offset="0.3984" stop-color="#EBBF9A"/>
<stop offset="0.6015" stop-color="#A280EB"/>
<stop offset="0.8411" stop-color="#A281FF"/>
</linearGradient>
</defs>
</svg>
