<svg width="30" height="30" viewBox="0 0 30 30" fill="none" xmlns="http://www.w3.org/2000/svg">
<g clip-path="url(#clip0_3954_4871)">
<path d="M11.4797 10.4648V6.94922C11.4797 6.38978 11.8506 5.85325 12.5108 5.45767C13.171 5.06208 14.0664 4.83984 15 4.83984C15.9337 4.83984 16.8291 5.06208 17.4893 5.45767C18.1495 5.85325 18.5204 6.38978 18.5204 6.94922V10.4648" stroke="#1A1B22" stroke-linecap="round" stroke-linejoin="round"/>
<path d="M8.34717 10.4648H21.6528C21.9912 10.4648 22.3256 10.5379 22.6331 10.6792C22.9406 10.8205 23.2138 11.0266 23.4342 11.2834C23.6545 11.5402 23.8168 11.8417 23.9097 12.167C24.0027 12.4924 24.0242 12.834 23.9727 13.1685L22.5001 22.7344C22.3722 23.5657 21.9509 24.3238 21.3125 24.8713C20.6741 25.4189 19.8607 25.7198 19.0196 25.7196H10.9792C10.1383 25.7196 9.32521 25.4185 8.68703 24.871C8.04885 24.3234 7.62776 23.5655 7.49994 22.7344L6.02727 13.1685C5.97584 12.834 5.99733 12.4924 6.09029 12.167C6.18325 11.8417 6.34546 11.5402 6.56582 11.2834C6.78617 11.0266 7.05945 10.8205 7.36692 10.6792C7.67439 10.5379 8.00878 10.4648 8.34717 10.4648Z" fill="#1A1B22"/>
</g>
<defs>
<clipPath id="clip0_3954_4871">
<rect width="30" height="30" fill="white"/>
</clipPath>
</defs>
</svg>
