<svg width="36" height="36" viewBox="0 0 36 36" fill="none" xmlns="http://www.w3.org/2000/svg">
<rect width="36" height="36" rx="6" fill="#1A1B22"/>
<path d="M7.36773 24.5791C7.5578 24.3879 7.81915 24.2764 8.09634 24.2764H33.2335C33.6929 24.2764 33.9225 24.8341 33.5978 25.1607L28.6322 30.1562C28.4421 30.3474 28.1807 30.459 27.9035 30.459H2.76638C2.30703 30.459 2.07736 29.9012 2.40207 29.5746L7.36773 24.5791Z" fill="url(#paint0_linear_3853_2795)"/>
<path d="M7.36785 5.92776C7.56585 5.73654 7.8272 5.625 8.09647 5.625H33.2336C33.693 5.625 33.9227 6.18271 33.5979 6.50937L28.6323 11.5048C28.4422 11.696 28.1809 11.8076 27.9037 11.8076H2.7665C2.30716 11.8076 2.07748 11.2499 2.40219 10.9232L7.36785 5.92776Z" fill="url(#paint1_linear_3853_2795)"/>
<path d="M28.6322 15.1939C28.4421 15.0027 28.1807 14.8911 27.9035 14.8911H2.76638C2.30703 14.8911 2.07736 15.4488 2.40207 15.7755L7.36773 20.7709C7.5578 20.9622 7.81915 21.0737 8.09634 21.0737H33.2335C33.6929 21.0737 33.9225 20.516 33.5978 20.1893L28.6322 15.1939Z" fill="url(#paint2_linear_3853_2795)"/>
<defs>
<linearGradient id="paint0_linear_3853_2795" x1="30.8322" y1="2.64087" x2="13.2711" y2="36.0768" gradientUnits="userSpaceOnUse">
<stop stop-color="#00FFA3"/>
<stop offset="1" stop-color="#DC1FFF"/>
</linearGradient>
<linearGradient id="paint1_linear_3853_2795" x1="23.2254" y1="-1.35443" x2="5.6643" y2="32.0815" gradientUnits="userSpaceOnUse">
<stop stop-color="#00FFA3"/>
<stop offset="1" stop-color="#DC1FFF"/>
</linearGradient>
<linearGradient id="paint2_linear_3853_2795" x1="27.0045" y1="0.630687" x2="9.4434" y2="34.0666" gradientUnits="userSpaceOnUse">
<stop stop-color="#00FFA3"/>
<stop offset="1" stop-color="#DC1FFF"/>
</linearGradient>
</defs>
</svg>
