<svg width="36" height="36" viewBox="0 0 36 36" fill="none" xmlns="http://www.w3.org/2000/svg">
<rect width="36" height="36" rx="6" fill="#1A1B22"/>
<path d="M25.3099 5.05509C24.4901 5.87492 23.739 6.76348 23.0714 7.71095L22.8603 7.64222C21.6428 7.24458 20.3811 6.99912 19.1097 6.91566C18.7267 6.88621 17.2982 6.88621 16.8318 6.91566C15.4229 7.00894 14.3429 7.22003 13.1156 7.64713C13.0665 7.66677 13.0223 7.68149 12.9781 7.69622C12.2859 6.75366 11.5152 5.87001 10.6659 5.06C14.7405 2.9736 19.5073 2.72323 23.7734 4.36781C24.2299 4.53963 24.6767 4.7409 25.1136 4.95691L25.3099 5.05509Z" fill="#F00500"/>
<path d="M32.9093 23.6755C32.2907 25.4379 31.3629 27.0726 30.1602 28.4963C29.5072 29.2621 28.7856 29.9641 28.0099 30.6023C26.1936 32.0652 24.0728 33.1109 21.8097 33.6607C19.306 34.2645 16.6943 34.2645 14.1906 33.6607C11.9226 33.1109 9.80676 32.0652 7.99036 30.6023C7.21472 29.9641 6.49307 29.2621 5.84015 28.4963C2.37918 24.4069 1.32862 18.7908 3.09101 13.7295C3.42483 12.7918 3.84211 11.8885 4.34285 11.0294C4.57358 10.6367 4.85831 10.1949 4.99577 10.0132C5.46705 12.0407 6.04633 13.8228 6.26233 14.4659C6.24761 14.5002 6.22797 14.5395 6.20833 14.5739C5.0645 16.891 4.44594 19.1247 4.29867 21.5007C4.29867 21.5302 4.29376 21.5645 4.29376 21.594C4.25448 22.3058 4.27412 22.6445 4.39194 23.0913C4.76013 24.4904 5.89415 26.0319 7.67127 27.5439C10.5824 30.0181 14.5294 31.805 17.5191 32.0112C20.6364 32.2223 25.2363 30.401 28.2996 27.7403C28.7807 27.3132 29.2323 26.8615 29.6545 26.3804C29.9589 26.027 30.4105 25.4182 30.3762 25.4182C30.3664 25.4182 30.3762 25.4084 30.3958 25.3986C30.4105 25.3888 30.4253 25.374 30.4154 25.3642C30.4105 25.3593 30.4204 25.3446 30.4351 25.3397C30.4498 25.3348 30.4596 25.3249 30.4547 25.3151C30.4498 25.3053 30.4547 25.2955 30.4744 25.2906C30.4891 25.2857 30.494 25.2709 30.4891 25.2611C30.4842 25.2513 30.4891 25.2415 30.4989 25.2415C30.5087 25.2415 30.5185 25.2268 30.5185 25.2169C30.5185 25.2071 30.5284 25.1924 30.5382 25.1924C30.548 25.1924 30.5578 25.1826 30.5578 25.1728C30.5725 25.1335 30.5971 25.0942 30.6216 25.0598C30.6953 24.9469 30.9898 24.4217 31.0291 24.3333C31.3089 23.7 31.4856 23.1355 31.5691 22.5709C31.6084 22.3009 31.6329 21.8051 31.6133 21.6873C31.6084 21.6676 31.6084 21.6333 31.6035 21.5792C31.5936 21.4811 31.5887 21.3338 31.5789 21.1865C31.5691 20.9656 31.5495 20.6563 31.5347 20.5041C31.3236 18.2754 30.7542 16.4541 29.6742 14.5248C29.63 14.4511 29.5907 14.3775 29.5662 14.3186C29.5563 14.3039 29.5514 14.2891 29.5465 14.2793C29.6987 13.8228 30.3222 11.9131 30.818 9.72852L30.8278 9.73833L30.9015 9.83652C31.0291 10.0083 31.3678 10.5189 31.52 10.7644C32.2122 11.8935 32.7522 13.106 33.1351 14.3726C34.0237 17.4212 33.95 20.6711 32.9093 23.6755Z" fill="#F00500"/>
<path d="M26.5372 17.8091C26.5224 17.8877 26.2917 18.1233 26.061 18.2951C25.3835 18.791 24.1709 19.2524 22.9387 19.4733C22.2367 19.601 21.5347 19.6206 21.3236 19.5175C21.1862 19.4488 21.1665 19.3948 21.2156 19.2181C21.3187 18.8499 21.6525 18.4473 22.1729 18.0693C22.438 17.8779 23.5131 17.2249 24.0139 16.95C24.8386 16.4984 25.5062 16.2284 25.9579 16.1646C26.1003 16.1449 26.2721 16.14 26.3261 16.1646C26.4144 16.1989 26.5126 16.4591 26.5519 16.7733C26.5715 16.9402 26.5617 17.6766 26.5372 17.8091Z" fill="black"/>
<path d="M14.9713 19.4339C14.9418 19.4928 14.7945 19.5566 14.6276 19.5811C14.4607 19.6057 13.9502 19.591 13.6605 19.5566C12.6198 19.4191 11.5152 19.1001 10.7101 18.7073C10.2585 18.4864 9.93447 18.2655 9.69392 18.0249L9.55647 17.8826L9.54174 17.696C9.51719 17.372 9.5221 16.8615 9.56137 16.6798C9.58592 16.5276 9.63992 16.3804 9.71356 16.2478C9.75283 16.1987 9.75283 16.1987 9.92956 16.1987C10.1456 16.1987 10.3272 16.2331 10.6218 16.3264C11.2256 16.5129 12.124 16.9646 13.2187 17.6224C14.122 18.1624 14.4607 18.4275 14.7209 18.7908C14.8976 19.0166 15.0155 19.3357 14.9713 19.4339Z" fill="black"/>
<path d="M21.9226 26.2674C21.9226 26.2822 21.8637 26.5178 21.79 26.7976C21.7164 27.0774 21.6575 27.3033 21.6575 27.3131C21.6035 27.318 21.5544 27.3229 21.5004 27.318H21.3433L21.1273 27.8285C21.0095 28.1084 20.9015 28.3685 20.8867 28.4078L20.8573 28.4766L20.7542 28.3096L20.6511 28.1427V26.7829L20.6118 26.7927C20.5284 26.8123 19.9344 26.8909 19.6742 26.9154C18.5991 27.0234 17.5191 26.9989 16.4489 26.8467C16.277 26.8222 16.1298 26.8025 16.1248 26.8074C16.1199 26.8123 16.1249 27.1265 16.1347 27.5144L16.1494 28.2115L16.0659 28.3391C16.0218 28.4078 15.9776 28.4667 15.9776 28.4716C15.9628 28.4864 15.9138 28.4078 15.8008 28.182C15.6781 27.9464 15.5898 27.696 15.5259 27.4358L15.4916 27.2934L15.3394 27.3033L15.1872 27.318L15.1479 27.1364C15.1283 27.0382 15.1037 26.886 15.0939 26.8025L15.0792 26.6454L14.9516 26.5325C14.8779 26.4687 14.8043 26.4049 14.7896 26.3951C14.765 26.3754 14.7552 26.3411 14.7552 26.3116V26.2527L15.3688 26.2576L15.9825 26.2625L16.0021 26.3263L16.0218 26.3902L16.2329 26.4C16.3507 26.4049 16.7238 26.4147 17.0576 26.4245L17.6712 26.4392L17.8283 26.1938L17.9903 25.9483H18.1965L18.1916 25.4378L18.1867 24.9272L17.9167 24.8094C17.0478 24.4265 16.5372 23.9896 16.3458 23.4594C16.3065 23.3514 16.3065 23.3121 16.2967 22.8212C16.2918 22.3352 16.2918 22.291 16.3261 22.183C16.3949 21.9375 16.5863 21.7461 16.8318 21.6823C16.9152 21.6577 17.1361 21.6577 18.2947 21.6577L19.6594 21.6626L19.8116 21.7363C19.9933 21.8246 20.0767 21.8884 20.1798 22.0259C20.2976 22.183 20.332 22.3057 20.332 22.6052C20.332 23.0323 20.3026 23.4005 20.2584 23.5477C20.1946 23.749 20.0964 23.9405 19.9736 24.1123C19.7282 24.4265 19.2814 24.7407 18.874 24.883L18.7562 24.9272L18.7611 25.4427L18.766 25.9581L18.874 25.968L18.982 25.9778L19.1293 26.1987L19.2716 26.4196H19.9295C20.2927 26.4196 20.6118 26.4245 20.6413 26.4294C20.6904 26.4392 20.7002 26.4343 20.7493 26.3509L20.8082 26.2625H21.3728C21.7949 26.2429 21.9226 26.2527 21.9226 26.2674Z" fill="black"/>
<path d="M19.3307 27.6766C19.2374 27.7306 19.1736 27.7551 19.1589 27.7453C19.1441 27.7404 19.0754 27.6815 19.0018 27.6275L18.8692 27.5195L18.7318 27.6667C18.4323 27.9907 18.4225 28.0055 18.3341 28.0104C18.1967 28.0251 18.1672 28.0006 18.0003 27.7502C17.9119 27.6226 17.8432 27.5146 17.8432 27.5146C17.8432 27.5146 17.7794 27.5047 17.7058 27.4998L17.5683 27.4851L17.5045 27.6176L17.4407 27.7502L17.3277 27.7158C17.2394 27.6864 17.151 27.652 17.0676 27.6127L16.9203 27.5391V27.2593L18.2261 27.2642L19.532 27.2691L19.5369 27.4016C19.5418 27.5587 19.5467 27.5538 19.3307 27.6766Z" fill="black"/>
<path d="M31.6034 21.6874C31.5985 21.6678 31.5984 21.6334 31.5935 21.5794C30.4153 21.4518 27.0526 21.3732 23.9303 23.9506C23.9303 23.9506 22.9239 19.3359 18.2111 19.3359C13.4983 19.3359 11.7507 23.9506 11.7507 23.9506C9.10955 21.1081 5.57495 21.3143 4.29856 21.5009C4.29856 21.5303 4.29365 21.5647 4.29365 21.5942C4.25438 22.306 4.27401 22.6447 4.39183 23.0915C4.76002 24.4906 5.89404 26.032 7.67116 27.5441C10.5823 30.0183 14.5293 31.8052 17.519 32.0114C20.6363 32.2225 25.2362 30.4012 28.2995 27.7404C28.7806 27.3133 29.2322 26.8617 29.6544 26.3806C29.9588 26.0271 30.4104 25.4184 30.3761 25.4184C30.3663 25.4184 30.3761 25.4086 30.3957 25.3988C30.4104 25.3889 30.4252 25.3742 30.4153 25.3644C30.4104 25.3595 30.4202 25.3448 30.435 25.3399C30.4497 25.3349 30.4595 25.3251 30.4546 25.3153C30.4497 25.3055 30.4546 25.2957 30.4743 25.2908C30.489 25.2859 30.4939 25.2711 30.489 25.2613C30.4841 25.2515 30.489 25.2417 30.4988 25.2417C30.5086 25.2417 30.5184 25.2269 30.5184 25.2171C30.5184 25.2073 30.5282 25.1926 30.5381 25.1926C30.5479 25.1926 30.5577 25.1828 30.5577 25.1729C30.5724 25.1337 30.597 25.0944 30.6215 25.06C30.6952 24.9471 30.9897 24.4218 31.029 24.3335C31.3088 23.7002 31.4855 23.1356 31.569 22.5711C31.5984 22.3011 31.623 21.8053 31.6034 21.6874ZM19.3304 27.6766C19.2372 27.7306 19.1733 27.7552 19.1586 27.7453C19.1439 27.7404 19.0752 27.6815 19.0015 27.6275L18.869 27.5195L18.7315 27.6668C18.4321 27.9908 18.4222 28.0055 18.3339 28.0104C18.1964 28.0252 18.167 28.0006 18.0001 27.7503C17.9117 27.6226 17.843 27.5146 17.843 27.5146C17.843 27.5146 17.7791 27.5048 17.7055 27.4999L17.568 27.4852L17.5042 27.6177L17.4404 27.7503L17.3275 27.7159C17.2391 27.6864 17.1508 27.6521 17.0673 27.6128L16.92 27.5392V27.2593L18.2259 27.2642L19.5317 27.2692L19.5366 27.4017C19.5415 27.5588 19.5464 27.5539 19.3304 27.6766ZM21.785 26.793C21.7114 27.0728 21.6525 27.2986 21.6525 27.3084C21.5985 27.3133 21.5494 27.3182 21.4954 27.3133H21.3383L21.1272 27.8288C21.0094 28.1086 20.9014 28.3688 20.8866 28.4081L20.8572 28.4768L20.7541 28.3099L20.651 28.143V26.7831L20.6117 26.793C20.5283 26.8126 19.9343 26.8912 19.6741 26.9157C18.599 27.0237 17.519 26.9992 16.4488 26.847C16.2769 26.8224 16.1297 26.8028 16.1247 26.8077C16.1198 26.8126 16.1248 27.1268 16.1346 27.5146L16.1493 28.2117L16.0658 28.3394C16.0217 28.4081 15.9775 28.467 15.9775 28.4719C15.9627 28.4866 15.9137 28.4081 15.8007 28.1823C15.678 27.9466 15.5897 27.6963 15.5258 27.4361L15.4915 27.2937L15.3393 27.3035L15.1871 27.3182L15.1478 27.1366C15.1282 27.0384 15.1036 26.8862 15.0938 26.8028L15.0791 26.6457L14.9515 26.5328C14.8778 26.469 14.8042 26.4051 14.7895 26.3953C14.7649 26.3757 14.7551 26.3413 14.7551 26.3119V26.253L15.3687 26.2579L15.9824 26.2628L16.002 26.3266L16.0217 26.3904L16.2328 26.4002C16.3506 26.4051 16.7237 26.415 17.0575 26.4248L17.6711 26.4395L17.8282 26.194L17.9902 25.9486H18.1964L18.1915 25.438L18.1866 24.9275L17.9166 24.8097C17.0477 24.4267 16.5371 23.9898 16.3457 23.4596C16.3064 23.3516 16.3064 23.3124 16.2966 22.8214C16.2917 22.3354 16.2917 22.2913 16.326 22.1833C16.3948 21.9378 16.5862 21.7463 16.8317 21.6825C16.9151 21.658 17.136 21.658 18.2946 21.658L19.6593 21.6629L19.8115 21.7365C19.9932 21.8249 20.0766 21.8887 20.1797 22.0262C20.2975 22.1833 20.3319 22.306 20.3319 22.6054C20.3319 23.0325 20.3025 23.4007 20.2583 23.548C20.1945 23.7493 20.0963 23.9407 19.9735 24.1126C19.7281 24.4267 19.2813 24.7409 18.8739 24.8833L18.7561 24.9275L18.761 25.4429L18.7659 25.9584L18.8739 25.9682L18.9819 25.978L19.1292 26.199L19.2715 26.4199H19.9294C20.2926 26.4199 20.6117 26.4248 20.6412 26.4297C20.6903 26.4395 20.7001 26.4346 20.7492 26.3511L20.8081 26.2628H21.3727C21.8096 26.2628 21.9372 26.2677 21.9372 26.2824C21.9225 26.2775 21.8587 26.5181 21.785 26.793Z" fill="white"/>
<path d="M31.5641 21.1865C31.5543 20.9656 31.5346 20.6563 31.5199 20.5041C31.3088 18.2754 30.7394 16.4541 29.6593 14.5248C29.6152 14.4511 29.5759 14.3775 29.5513 14.3186C29.5415 14.3038 29.5366 14.2891 29.5317 14.2793C29.6839 13.8227 30.3074 11.9131 30.8032 9.7285C31.4757 6.76336 31.9028 3.29749 30.597 2.25675C30.597 2.25675 28.3388 2.08983 25.3147 5.05497C24.4949 5.8748 23.7438 6.76336 23.0761 7.71083L22.8651 7.6421C21.6476 7.24446 20.3859 6.999 19.1144 6.91555C18.7315 6.88609 17.303 6.88609 16.8366 6.91555C15.4277 7.00882 14.3476 7.21992 13.1204 7.64701C13.0713 7.66665 13.0271 7.68138 12.9829 7.69611C12.2907 6.75354 11.52 5.86989 10.6707 5.05988C7.5239 2.08002 5.18223 2.25184 5.18223 2.25184C3.79784 3.32694 4.26912 6.94991 4.98586 10.0132C5.45714 12.0407 6.03642 13.8227 6.25243 14.4658C6.2377 14.5002 6.21806 14.5395 6.19843 14.5739C5.05459 16.891 4.43603 19.1246 4.28876 21.5007C5.57005 21.3141 9.09974 21.103 11.7458 23.9504C11.7458 23.9504 13.4935 19.3357 18.2063 19.3357C22.9191 19.3357 23.9254 23.9504 23.9254 23.9504C27.0477 21.373 30.4104 21.4565 31.5886 21.5792C31.5837 21.4811 31.5739 21.3338 31.5641 21.1865ZM7.18026 12.6151C7.18026 12.6151 5.34423 8.02502 5.81551 5.40352C5.89405 4.9617 6.04133 4.57387 6.27206 4.27932C6.27206 4.27932 8.35355 4.48551 11.7114 8.21648C11.7114 8.21648 11.0732 8.52576 10.219 9.18358C10.219 9.18358 10.2141 9.18849 10.2092 9.18849C9.28138 9.90032 8.09336 11.0294 7.18026 12.6151ZM14.9711 19.4339C14.9417 19.4928 14.7944 19.5567 14.6275 19.5812C14.4606 19.6057 13.95 19.591 13.6604 19.5567C12.6196 19.4192 11.5151 19.1001 10.71 18.7074C10.2583 18.4865 9.9343 18.2655 9.69375 18.025L9.5563 17.8826L9.54157 17.6961C9.51702 17.3721 9.52193 16.8615 9.56121 16.6799C9.58575 16.5277 9.63975 16.3804 9.71339 16.2479C9.75266 16.1988 9.75266 16.1988 9.92939 16.1988C10.1454 16.1988 10.327 16.2332 10.6216 16.3264C11.2254 16.513 12.1238 16.9646 13.2185 17.6224C14.1218 18.1625 14.4606 18.4275 14.7207 18.7908C14.8975 19.0166 15.0153 19.3357 14.9711 19.4339ZM26.5371 17.809C26.5224 17.8875 26.2917 18.1232 26.0609 18.295C25.3835 18.7908 24.1709 19.2523 22.9387 19.4732C22.2367 19.6008 21.5347 19.6205 21.3236 19.5174C21.1861 19.4487 21.1665 19.3947 21.2156 19.2179C21.3187 18.8497 21.6525 18.4472 22.1729 18.0692C22.438 17.8777 23.5131 17.2248 24.0138 16.9499C24.8385 16.4982 25.5062 16.2282 25.9578 16.1644C26.1002 16.1448 26.272 16.1399 26.326 16.1644C26.4144 16.1988 26.5126 16.459 26.5518 16.7732C26.5715 16.9401 26.5617 17.6764 26.5371 17.809ZM25.7222 9.18358L25.7124 9.17867C24.8876 8.52085 24.2691 8.21157 24.2691 8.21157C27.514 4.4806 29.5219 4.27442 29.5219 4.27442C29.7428 4.57387 29.8852 4.95679 29.9637 5.39861C30.4203 8.02011 28.6481 12.6151 28.6481 12.6151C27.9068 11.2945 26.9102 10.1261 25.7222 9.18358Z" fill="#FFA409"/>
<path d="M29.9685 5.39861C29.5856 5.34952 27.7741 5.3397 25.7221 9.18358L25.7123 9.17867C24.8875 8.52084 24.269 8.21157 24.269 8.21157C27.5139 4.4806 29.5218 4.27441 29.5218 4.27441C29.7476 4.57387 29.89 4.95679 29.9685 5.39861Z" fill="#FF9300"/>
<path d="M28.6529 12.6149C27.9067 11.2894 26.915 10.126 25.7221 9.18339C27.7741 5.33951 29.5807 5.34933 29.9685 5.39842C30.4251 8.02483 28.6529 12.6149 28.6529 12.6149Z" fill="#FF8300"/>
<path d="M30.0414 5.413C30.0171 5.40814 29.9928 5.40329 29.9686 5.39844L30.0414 5.413Z" fill="#FF8300"/>
<path d="M11.7114 8.21157C11.7114 8.21157 11.0732 8.52084 10.219 9.17867C10.219 9.17867 10.2141 9.18358 10.2092 9.18358C8.08355 5.33479 6.21316 5.34952 5.81061 5.39861C5.88915 4.95679 6.03643 4.56896 6.26716 4.27441C6.27207 4.27441 8.35355 4.4806 11.7114 8.21157Z" fill="#FF9300"/>
<path d="M10.2142 9.18339C9.28145 9.90013 8.09344 11.0243 7.18033 12.6149C7.18033 12.6149 5.3443 8.02483 5.81558 5.39842C6.21322 5.34933 8.08852 5.33951 10.2142 9.18339Z" fill="#FF8300"/>
<path d="M5.81471 5.39844C5.79044 5.40329 5.76133 5.40814 5.73706 5.413L5.81471 5.39844Z" fill="#FF8300"/>
<path d="M23.6849 15.1627C23.6849 15.1627 22.114 15.2609 22.3104 14.0336C22.5067 12.8063 23.734 12.6591 24.0777 12.7082C24.4213 12.7572 25.7959 13.2482 25.5504 14.2791C25.305 15.31 24.9613 15.1136 24.765 15.1627C24.5686 15.2118 23.6849 15.1627 23.6849 15.1627Z" fill="white"/>
<path d="M12.0993 15.1627C12.0993 15.1627 10.5284 15.2609 10.7248 14.0336C10.9211 12.8063 12.1484 12.6591 12.4921 12.7082C12.8357 12.7572 14.2103 13.2482 13.9648 14.2791C13.7193 15.31 13.3757 15.1136 13.1793 15.1627C12.983 15.2118 12.0993 15.1627 12.0993 15.1627Z" fill="white"/>
</svg>
