<svg width="42" height="42" viewBox="0 0 42 42" fill="none" xmlns="http://www.w3.org/2000/svg">
<path d="M14.7825 14.2824C14.3111 14.7538 14.3403 15.5433 14.8298 16.0329L19.7496 20.9526L15.0888 25.6134C14.625 26.0772 14.6465 26.8743 15.1361 27.3639C15.6256 27.8535 16.4227 27.875 16.8865 27.4112L21.5473 22.7504L26.4671 27.6701C26.9567 28.1597 27.7461 28.1889 28.2176 27.7174C28.6814 27.2536 28.6598 26.4566 28.1702 25.967L23.2505 21.0472L27.9113 16.3864C28.3751 15.9226 28.3536 15.1255 27.864 14.636C27.3744 14.1464 26.5774 14.1249 26.1136 14.5887L21.4527 19.2495L16.533 14.3297C16.0434 13.8402 15.2463 13.8186 14.7825 14.2824Z" fill="#1A1B22"/>
</svg>
