<svg width="36" height="36" viewBox="0 0 36 36" fill="none" xmlns="http://www.w3.org/2000/svg">
<rect width="36" height="36" rx="6" fill="#1A1B22"/>
<path d="M11.0204 17.8944C10.9529 19.0676 11.856 20.0721 13.0293 20.1396C13.0715 20.1396 13.1137 20.1396 13.1559 20.1396C14.3376 20.1396 15.2915 19.1858 15.283 18.0041C15.283 16.8224 14.3292 15.8686 13.1475 15.877C12.0164 15.877 11.0795 16.7633 11.0204 17.8944Z" fill="#0033AD"/>
<path d="M3.06909 17.3458C2.68925 17.3204 2.36006 17.6159 2.34318 17.9957C2.32629 18.3755 2.61328 18.7047 2.99312 18.7216C3.37296 18.7469 3.69371 18.4515 3.71903 18.0717C3.74435 17.6918 3.44893 17.3711 3.06909 17.3458Z" fill="#0033AD"/>
<path d="M10.8853 5.52037C11.2229 5.35155 11.358 4.92951 11.1891 4.59188C11.0203 4.25425 10.5983 4.11919 10.2606 4.28801C9.92301 4.45683 9.78796 4.87043 9.95677 5.20806C10.1256 5.55413 10.5392 5.69763 10.8853 5.52037Z" fill="#0033AD"/>
<path d="M13.0461 9.29323C13.5695 9.03156 13.7805 8.39006 13.5188 7.86673C13.2571 7.3434 12.6156 7.13238 12.0923 7.39404C11.569 7.65571 11.358 8.29721 11.6196 8.82054C11.8813 9.34387 12.5228 9.55489 13.0461 9.29323Z" fill="#0033AD"/>
<path d="M5.77013 11.8849C6.17529 12.1466 6.7155 12.0368 6.98561 11.6317C7.24728 11.2265 7.13755 10.6863 6.73239 10.4162C6.32723 10.1545 5.78701 10.2643 5.51691 10.6694C5.2468 11.0746 5.36497 11.6232 5.77013 11.8849Z" fill="#0033AD"/>
<path d="M7.06162 16.9661C6.47076 16.9324 5.97275 17.3797 5.93899 17.9706C5.90522 18.5615 6.35259 19.0595 6.94345 19.0932C7.5343 19.127 8.03231 18.6796 8.06608 18.0888C8.09984 17.5064 7.65248 16.9999 7.06162 16.9661Z" fill="#0033AD"/>
<path d="M5.88832 24.1153C5.45784 24.3348 5.28058 24.8581 5.50004 25.2971C5.71951 25.7275 6.24284 25.9048 6.68176 25.6853C7.11224 25.4659 7.2895 24.9425 7.07004 24.5036C6.85058 24.0731 6.3188 23.8959 5.88832 24.1153Z" fill="#0033AD"/>
<path d="M10.0243 14.763C10.6067 15.1428 11.3833 14.9824 11.7547 14.4C12.1345 13.8176 11.9741 13.041 11.3917 12.6696C10.8093 12.2898 10.0327 12.4502 9.66133 13.0326C9.28149 13.6066 9.44187 14.3831 10.0243 14.763Z" fill="#0033AD"/>
<path d="M23.1499 9.2089C23.6394 9.52965 24.3063 9.3946 24.627 8.90503C24.9478 8.41546 24.8127 7.74864 24.3232 7.42789C23.8336 7.10713 23.1668 7.24219 22.846 7.73175C22.5168 8.22976 22.6519 8.88815 23.1499 9.2089Z" fill="#0033AD"/>
<path d="M25.3275 5.45273C25.6483 5.66376 26.0703 5.57091 26.2813 5.25015C26.4923 4.9294 26.3995 4.50736 26.0787 4.29634C25.758 4.08532 25.3359 4.17817 25.1249 4.49048C24.9223 4.81123 25.0152 5.24171 25.3275 5.45273Z" fill="#0033AD"/>
<path d="M23.3102 15.86C22.1369 15.7925 21.124 16.6956 21.065 17.8689C20.9974 19.0422 21.9006 20.0551 23.0739 20.1142C23.1161 20.1142 23.1583 20.1142 23.192 20.1142C24.3653 20.1142 25.3191 19.1604 25.3191 17.9786C25.3276 16.856 24.4413 15.9191 23.3102 15.86Z" fill="#0033AD"/>
<path d="M13.7468 14.611C14.1097 15.3284 14.8441 15.7842 15.6544 15.7842C16.8277 15.7842 17.7815 14.8304 17.7815 13.6487C17.7815 13.3195 17.7055 12.9903 17.5536 12.6864C17.0218 11.6313 15.7388 11.2093 14.6921 11.7411C13.637 12.2813 13.215 13.5643 13.7468 14.611Z" fill="#0033AD"/>
<path d="M30.4511 11.8847C30.8816 11.6653 31.0504 11.1335 30.831 10.703C30.6115 10.2725 30.0797 10.1037 29.6493 10.3232C29.2188 10.5426 29.05 11.066 29.261 11.4964C29.4889 11.9269 30.0122 12.1042 30.4511 11.8847Z" fill="#0033AD"/>
<path d="M25.049 12.56C24.4329 12.8723 24.1796 13.6235 24.4919 14.2397C24.8043 14.8559 25.5555 15.1091 26.1717 14.7968C26.7878 14.4845 27.0411 13.7332 26.7288 13.117C26.4164 12.5009 25.6652 12.2561 25.049 12.56Z" fill="#0033AD"/>
<path d="M18.0853 5.13194C18.5664 5.15726 18.98 4.78587 19.0138 4.30474C19.0476 3.82361 18.6677 3.41001 18.1866 3.37625C17.7055 3.35093 17.2919 3.71388 17.2581 4.19501C17.2328 4.68458 17.6042 5.09818 18.0853 5.13194Z" fill="#0033AD"/>
<path d="M18.0769 10.6439C18.769 10.6861 19.3599 10.1543 19.3936 9.46218C19.4359 8.77004 18.9041 8.17918 18.2119 8.14541C17.5198 8.10321 16.9289 8.63498 16.8952 9.32713C16.8614 10.0193 17.3847 10.6101 18.0769 10.6439Z" fill="#0033AD"/>
<path d="M11.2904 23.4401C11.9066 23.1278 12.1598 22.3766 11.8475 21.7604C11.5352 21.1442 10.784 20.891 10.1678 21.2033C9.55163 21.5156 9.2984 22.2669 9.61071 22.883C9.92303 23.4992 10.6743 23.7524 11.2904 23.4401Z" fill="#0033AD"/>
<path d="M18.8873 12.4754C18.2458 13.463 18.5159 14.7798 19.5035 15.4213C20.491 16.0628 21.8078 15.7927 22.4493 14.8051C23.0908 13.8175 22.8207 12.5008 21.8331 11.8593C21.4871 11.6314 21.0819 11.5132 20.6683 11.5132C19.9508 11.5132 19.284 11.8761 18.8873 12.4754Z" fill="#0033AD"/>
<path d="M22.5928 21.3891C22.061 20.334 20.778 19.9119 19.7313 20.4437C18.6762 20.9755 18.2542 22.2585 18.7859 23.3052C19.3177 24.3603 20.6007 24.7823 21.6474 24.2505C22.694 23.7272 23.1245 22.4611 22.6012 21.406C22.6012 21.3975 22.6012 21.3975 22.5928 21.3891Z" fill="#0033AD"/>
<path d="M26.3151 21.237C25.7327 20.8572 24.9561 21.0175 24.5847 21.6C24.2049 22.1824 24.3653 22.9589 24.9477 23.3303C25.5301 23.7102 26.3067 23.5498 26.6781 22.9674C27.0579 22.3934 26.8975 21.6168 26.3151 21.237Z" fill="#0033AD"/>
<path d="M30.4005 18.038C30.4343 17.4471 29.9869 16.9491 29.396 16.9154C28.8052 16.8816 28.3072 17.329 28.2734 17.9198C28.2396 18.5107 28.687 19.0087 29.2779 19.0425C29.8603 19.0762 30.3667 18.6204 30.4005 18.038Z" fill="#0033AD"/>
<path d="M33.3464 17.2784C32.9665 17.253 32.6373 17.5485 32.6205 17.9283C32.6036 18.3082 32.8906 18.6373 33.2704 18.6542C33.6502 18.6795 33.971 18.3841 33.9963 18.0043C34.0132 17.6244 33.7262 17.3037 33.3464 17.2784Z" fill="#0033AD"/>
<path d="M30.5692 24.1154C30.1641 23.8537 29.6239 23.9635 29.3538 24.3686C29.0921 24.7738 29.2018 25.314 29.607 25.5841C30.0121 25.8458 30.5524 25.7361 30.8225 25.3309C31.0926 24.9257 30.9744 24.3771 30.5692 24.1154Z" fill="#0033AD"/>
<path d="M11.0035 30.5473C10.6827 30.3363 10.2607 30.4291 10.0496 30.7415C9.83862 31.0622 9.93146 31.4842 10.2438 31.6953C10.5645 31.9063 10.9866 31.8134 11.1976 31.5011C11.4171 31.1888 11.3242 30.7583 11.0035 30.5473Z" fill="#0033AD"/>
<path d="M25.4542 30.48C25.1166 30.6488 24.9816 31.0708 25.1504 31.4085C25.3192 31.7461 25.7412 31.8812 26.0789 31.7123C26.4165 31.5435 26.5516 31.1299 26.3827 30.7923C26.2139 30.4462 25.8003 30.3027 25.4542 30.48Z" fill="#0033AD"/>
<path d="M17.4523 23.5245C18.0938 22.5369 17.8237 21.2201 16.8361 20.5702C15.8486 19.9287 14.5318 20.1988 13.8818 21.1864C13.2319 22.174 13.5104 23.4907 14.498 24.1407C14.8441 24.3686 15.2493 24.4867 15.6629 24.4867C16.3888 24.4952 17.0556 24.1322 17.4523 23.5245Z" fill="#0033AD"/>
<path d="M13.1896 26.7912C12.7001 26.4704 12.0332 26.6055 11.7125 27.095C11.3917 27.5846 11.5268 28.2514 12.0164 28.5722C12.5059 28.8929 13.1728 28.7579 13.4935 28.2683C13.8227 27.7787 13.6876 27.1119 13.1896 26.7912Z" fill="#0033AD"/>
<path d="M18.1613 30.8679C17.6802 30.8426 17.2666 31.214 17.2328 31.6951C17.199 32.1762 17.5789 32.5898 18.06 32.6236C18.5411 32.6489 18.9547 32.286 18.9885 31.8049C19.0138 31.3153 18.6424 30.9017 18.1613 30.8679Z" fill="#0033AD"/>
<path d="M18.1697 25.3564C17.4776 25.3141 16.8867 25.8459 16.8529 26.5381C16.8107 27.2302 17.3425 27.8211 18.0347 27.8548C18.7268 27.8886 19.3177 27.3653 19.3514 26.6731C19.3936 25.9894 18.8619 25.3901 18.1697 25.3564Z" fill="#0033AD"/>
<path d="M23.2933 26.7068C22.77 26.9769 22.559 27.6184 22.8291 28.1418C23.0992 28.6651 23.7407 28.8761 24.264 28.606C24.7873 28.3444 24.9984 27.7028 24.7367 27.1795C24.4666 26.6562 23.8251 26.4367 23.2933 26.7068Z" fill="#0033AD"/>
</svg>
