<svg width="36" height="36" viewBox="0 0 36 36" fill="none" xmlns="http://www.w3.org/2000/svg">
<rect width="36" height="36" rx="6" fill="#1A1B22"/>
<path d="M18 33.75C26.6985 33.75 33.75 26.6985 33.75 18C33.75 9.30151 26.6985 2.25 18 2.25C9.30151 2.25 2.25 9.30151 2.25 18C2.25 26.6985 9.30151 33.75 18 33.75Z" fill="#988430"/>
<path d="M18 33.2454C26.4199 33.2454 33.2455 26.4197 33.2455 17.9999C33.2455 9.58003 26.4199 2.75439 18 2.75439C9.58016 2.75439 2.75452 9.58003 2.75452 17.9999C2.75452 26.4197 9.58016 33.2454 18 33.2454Z" fill="#7A6A2A"/>
<path d="M18 32.9242C26.2424 32.9242 32.9242 26.2424 32.9242 18C32.9242 9.75751 26.2424 3.07568 18 3.07568C9.75751 3.07568 3.07568 9.75751 3.07568 18C3.07568 26.2424 9.75751 32.9242 18 32.9242Z" fill="#BA9F33"/>
<path fill-rule="evenodd" clip-rule="evenodd" d="M9.13622 16.3182C9.04701 16.2367 8.95276 16.155 8.86608 16.0736C8.77939 15.9921 8.69035 15.9104 8.60114 15.829L8.33604 15.577C8.29269 15.5336 8.24683 15.4955 8.20348 15.452C8.16014 15.4138 8.10924 15.3705 8.06589 15.3322C7.7141 14.9984 7.36029 14.6646 7.01337 14.3306C7.37272 14.6593 7.72452 14.9858 8.08387 15.3194L8.20869 15.4444C8.25204 15.4876 8.2979 15.5259 8.34124 15.5692L8.60618 15.8138C8.69539 15.8953 8.78208 15.977 8.87128 16.0658C8.96049 16.1547 9.04718 16.2365 9.13639 16.3178L9.13622 16.3182ZM4.46733 16.2678C4.46733 16.2678 5.74665 16.4002 6.37111 16.4894C6.94953 16.571 8.75906 16.8487 8.75906 16.8487L4.46733 16.2678ZM4.46733 16.2678C4.82668 16.2984 5.18604 16.3365 5.54539 16.3748C5.72884 16.3926 5.90474 16.4129 6.08064 16.4307L6.35061 16.4615C6.43982 16.4741 6.52651 16.4868 6.61572 16.4996L7.68621 16.6703L8.22129 16.7595C8.39719 16.7901 8.57308 16.8234 8.75654 16.8539C8.58064 16.8361 8.39719 16.8106 8.22129 16.785L7.68621 16.7086L6.61572 16.5507C6.52651 16.5379 6.43982 16.5199 6.35061 16.5073L6.08047 16.4763C5.90457 16.4585 5.72112 16.4329 5.54522 16.4124C5.18587 16.3692 4.82652 16.3232 4.46716 16.2673L4.46733 16.2678ZM8.63172 17.182C8.63172 17.182 7.26571 17.5288 6.80438 17.6613C6.35078 17.7862 4.97704 18.2041 4.97704 18.2041L8.63155 17.1822L8.63172 17.182Z" fill="#CFB66C"/>
<path fill-rule="evenodd" clip-rule="evenodd" d="M8.63156 17.1816C8.32832 17.2708 8.02676 17.3575 7.71915 17.4392L6.80675 17.6838C6.50351 17.773 6.20194 17.8597 5.89954 17.9489L5.44594 18.0737C5.29558 18.1171 5.1427 18.1552 4.9873 18.1987C5.1375 18.1483 5.29054 18.0967 5.4409 18.0534L5.8945 17.9082C6.19774 17.8138 6.4993 17.7246 6.8017 17.6304C7.10998 17.5539 7.41339 17.4723 7.72167 17.3984C8.01467 17.3244 8.32311 17.2507 8.63156 17.1818V17.1816ZM5.16824 19.0448C5.31843 18.9886 7.05152 18.1809 7.45422 17.9922C7.65582 17.8978 8.2418 17.6898 8.2418 17.6898L5.16824 19.0448Z" fill="#CFB66C"/>
<path fill-rule="evenodd" clip-rule="evenodd" d="M5.1682 19.0451C5.30058 18.9947 5.42557 18.933 5.55292 18.8744L5.93008 18.6985L6.68709 18.3341C6.93909 18.2143 7.18403 18.0821 7.44393 17.9695C7.57648 17.9136 7.70903 17.8677 7.84141 17.8244L8.04301 17.7607C8.11173 17.7429 8.17557 17.7224 8.24461 17.7046C7.99261 17.8244 7.72734 17.9264 7.47501 18.0434C7.22301 18.1684 6.96529 18.2704 6.70523 18.3825L5.93562 18.7213C5.67724 18.826 5.42524 18.938 5.16803 19.0451H5.1682ZM5.3362 19.7507C5.3362 19.7507 6.90599 18.8307 7.44628 18.535C7.72919 18.3771 8.64412 17.9233 8.64412 17.9233L5.3362 19.7507Z" fill="#CFB66C"/>
<path fill-rule="evenodd" clip-rule="evenodd" d="M5.3363 19.7508C5.60124 19.5877 5.87138 19.4221 6.14153 19.2539L6.54473 19.0091C6.68232 18.9276 6.81487 18.8512 6.95515 18.7697C7.09274 18.6881 7.2253 18.6066 7.36541 18.5301C7.43211 18.489 7.50199 18.4532 7.5744 18.4231L7.78843 18.3161C8.07134 18.1785 8.35426 18.0382 8.65246 17.9185C8.38231 18.0893 8.10444 18.2346 7.82674 18.3848C7.68914 18.4613 7.54886 18.5301 7.41127 18.6066C7.27368 18.683 7.14113 18.7647 7.00085 18.8386C6.86326 18.9201 6.7307 18.9965 6.59059 19.0704L6.17513 19.2972L5.33664 19.7508H5.3363ZM8.63146 18.1248C8.63146 18.1248 7.65538 18.874 7.33937 19.1136C7.02336 19.3532 6.09314 20.026 6.09314 20.026L8.63146 18.1248Z" fill="#CFB66C"/>
<path fill-rule="evenodd" clip-rule="evenodd" d="M14.2333 24.1673L13.7338 23.2218L14.0243 22.0393L16.0962 21.2391L15.2144 19.4297L15.6502 17.6024L16.4684 15.9661L18.9966 15.5686L20.8543 13.7974L24.8658 14.1006L25.6533 18.3898L24.1369 23.7902L23.273 26.586L19.7712 26.7186L18.1453 25.5921L16.2416 24.7968L14.2333 24.1673Z" fill="#E2CC85"/>
<path fill-rule="evenodd" clip-rule="evenodd" d="M20.3754 24.1369C20.3754 24.1369 19.891 24.3587 19.065 24.3076C18.8259 23.9866 17.1516 23.8362 17.1516 23.8362C17.1516 23.8362 16.9426 23.7725 16.573 23.9254C16.2011 24.0766 15.8493 24.058 15.5205 24.1394C15.1917 24.2209 14.8653 23.7929 14.6133 23.7036C14.3613 23.6094 14.0272 23.3826 14.0272 23.3826L13.3216 23.3137L11.9047 22.7148L9.65362 20.4722L9.04194 21.4298L8.85327 22.6148L9.53384 24.0192L11.3662 25.6884L14.9392 26.5956L17.057 25.9716L19.7101 24.8502L20.3754 24.1368V24.1369Z" fill="#F1D789"/>
<path fill-rule="evenodd" clip-rule="evenodd" d="M7.68097 16.2111L8.13457 14.8375L8.67503 13.9505L10.4155 13.8052L9.89303 15.3293L8.43798 17.9187L9.04194 20.2302L7.97161 20.7652L7.64267 20.2607L7.37773 19.1037L7.35992 17.8039L7.68097 16.2111Z" fill="#F4ECB4"/>
<path fill-rule="evenodd" clip-rule="evenodd" d="M9.6331 24.0423L9.29929 23.5759C9.29929 23.5759 9.21008 23.3542 9.26115 23.1605C9.31155 22.9643 9.30433 22.9515 9.27896 22.8776C9.25359 22.8036 9.03939 22.5488 9.05216 22.3296C9.06476 22.1078 9.03435 22.0339 9.19731 21.8581C9.368 21.6875 9.31709 21.3918 9.31709 21.3918L9.53885 21.5294L9.58925 21.4529C9.58925 21.4529 9.67073 21.5166 9.67073 21.6161C9.68854 21.4785 9.61462 20.8412 9.78279 20.6961C9.95096 20.5509 10.2492 21.3765 10.2492 21.3765L10.0657 20.1786L9.59413 18.9504L8.75564 17.829L8.70524 16.5929V16.4858C8.70524 16.4858 8.32035 17.0772 8.21333 17.5442C8.13689 17.8653 8.32035 18.2552 8.28221 18.7165C8.25147 19.1754 8.21333 19.1396 8.32539 19.3213C8.43745 19.5031 8.71028 19.8769 8.60326 20.1471C8.50901 20.3791 8.1878 20.2159 8.1878 20.2159C8.1878 20.2159 8.12413 20.4044 8.03744 20.4733C8.00686 20.3613 7.97377 20.2899 7.91261 20.2213C7.90741 20.2647 7.89481 20.3233 7.89481 20.3233C7.89481 20.3233 7.83869 20.1474 7.78258 19.9256C7.70631 19.6301 7.62466 19.2402 7.55074 19.0312C7.52017 19.151 7.44373 19.5154 7.44373 19.5154L7.48707 20.0762L7.69606 20.8458L7.89766 21.3498L8.09389 21.9665L8.26441 22.3808L8.402 22.6968L8.52178 23.4079L9.10021 24.0195L9.40865 24.1572L9.63277 24.0425L9.6331 24.0423Z" fill="#F3E19D"/>
<path fill-rule="evenodd" clip-rule="evenodd" d="M7.98415 15.0897C7.98415 15.0897 7.56869 15.7953 7.44907 16.5066C7.32946 17.2179 7.22227 17.9695 7.29787 18.9379C7.37431 19.9141 7.51963 20.5129 7.6369 20.9411C7.8385 21.6522 8.36064 22.6411 8.36064 22.6411L8.37845 22.6028C8.29068 22.4364 8.22064 22.2613 8.16946 22.0803C8.10058 21.8102 8.07504 21.4891 8.01137 21.3438C7.95526 21.1986 7.86101 21.0736 7.81515 20.8952C7.7718 20.7245 7.76475 20.4544 7.63169 20.2531C7.57558 20.1715 7.5067 19.9575 7.48637 19.7434C7.46083 19.4222 7.49914 19.0629 7.46856 18.7673C7.41245 18.2754 7.37431 17.9416 7.42522 17.6841C7.47612 17.4265 7.74139 16.6954 7.90452 16.1143C8.01154 15.7422 7.9477 15.4287 8.14392 15.1049C8.34015 14.7839 8.4601 14.501 8.50327 14.3048C8.55367 14.1263 7.98348 15.0897 7.98348 15.0897H7.98415Z" fill="#F2E8B0"/>
<path fill-rule="evenodd" clip-rule="evenodd" d="M9.95436 14.8066C9.95436 14.8066 9.74033 14.8705 9.63835 14.9825C9.53637 15.0896 9.49303 15.1788 9.35544 15.3597C9.21785 15.5406 9.21012 15.6885 9.09789 15.9153C8.98584 16.137 8.73854 16.4708 8.70797 16.5906C8.67739 16.7104 8.62649 17.271 8.56281 17.5361C8.5067 17.8012 8.62649 18.1275 8.62649 18.1275L8.77164 18.0968C8.77164 18.0968 8.77164 18.2854 8.91696 18.4129C9.06211 18.5378 9.08765 17.9897 9.08765 17.9897L9.63045 16.1574L10.4484 15.6018L10.5377 15.1532L9.95402 14.8066H9.95436Z" fill="#F5EEC0"/>
<path fill-rule="evenodd" clip-rule="evenodd" d="M10.3518 15.6375C10.3518 15.6375 9.9669 15.6629 9.77841 15.8007C9.70197 15.8566 9.67139 15.9025 9.58991 15.9714C9.43955 16.0962 9.2865 16.2109 9.21275 16.3746C9.1311 16.5375 9.0419 16.7848 8.98074 17.2512C8.95521 17.4474 8.95521 17.6283 8.9374 17.7864C8.91186 18.0005 8.87373 18.1712 8.89406 18.2904C8.91959 18.535 9.17193 18.6626 9.19646 18.9403L9.71894 18.6753L10.2108 16.7358L11.2558 16.0806L10.6644 15.418L10.3511 15.6364L10.3518 15.6375Z" fill="#E6DB9D"/>
<path fill-rule="evenodd" clip-rule="evenodd" d="M7.59538 28.698C7.59757 28.6789 7.59975 28.6597 7.60193 28.6401C7.67821 27.9849 7.69114 27.4883 7.74709 27.1773C7.82857 26.7365 7.88468 26.5725 7.87191 26.4075C7.8541 26.1426 7.83377 25.9489 7.85931 25.7449C7.89745 25.4748 8.16255 25.1537 8.15499 24.932C8.14978 24.7561 8.06057 24.6415 7.98413 24.5345C7.90769 24.4275 7.84654 24.3383 7.84654 24.3383C7.84654 24.3383 8.36902 23.9789 8.36398 22.5312C8.37465 22.5343 8.38492 22.5385 8.39456 22.544L8.65193 23.2753L8.82783 23.4894L9.50319 24.7483L10.3723 25.592L11.6566 26.4559L12.462 27.3324L12.5435 29.6694L11.491 31.0354L11.3186 31.3476C9.94918 30.6601 8.69343 29.7664 7.59521 28.6979L7.59538 28.698Z" fill="#E5CB7A"/>
<path fill-rule="evenodd" clip-rule="evenodd" d="M10.8106 30.9338C10.8106 30.9338 10.8284 30.6434 11.068 30.4547C11.1063 30.5184 11.1317 30.5797 11.1241 30.6254C11.1674 30.5491 11.4707 30.0597 12.1563 29.9322C12.8419 29.8074 13.0075 29.3079 13.0075 29.3079L14.4626 27.9853L16.1268 26.4536L18.1504 25.7425L19.096 25.5105C19.096 25.5105 19.1138 25.5793 19.0782 25.7322C19.254 25.7196 19.6439 25.6304 20.0491 25.4876C20.2122 25.4239 20.3653 25.3984 20.4468 25.4826C20.5665 25.5946 20.5843 25.8597 20.5919 26.0177C20.7881 25.9743 21.0149 25.7858 21.1967 25.8036C21.4873 25.8342 21.7447 26.1757 22.0404 26.1757C22.4303 26.1757 22.6061 25.9362 22.8789 25.7475C23.042 25.6355 23.2764 25.4955 23.4089 25.4009C23.7249 25.1689 27.0686 24.147 27.0686 24.147L28.2409 24.2234L28.4296 25.4824L28.3288 28.7735C28.3164 28.7855 28.3039 28.7979 28.2913 28.8098L22.961 31.5937L15.5724 32.7264C13.9173 32.456 12.3201 31.9066 10.8489 31.1017L10.8111 30.9337L10.8106 30.9338Z" fill="#D8C173"/>
<path fill-rule="evenodd" clip-rule="evenodd" d="M8.0434 29.1163C8.1484 28.8968 8.24281 28.7131 8.25944 28.6475C8.27255 28.7798 8.29657 29.0703 8.34496 29.3791C8.24337 29.2927 8.14285 29.2051 8.0434 29.1162V29.1163Z" fill="#F1D789"/>
<path fill-rule="evenodd" clip-rule="evenodd" d="M13.4408 32.2138L14.3964 31.948L14.4779 31.9735C14.4779 31.9735 14.5212 31.9991 14.5212 32.0856C14.641 32.0169 14.743 32.0295 14.8169 31.9838C14.855 32.0653 14.8932 32.3354 15.0615 32.3685C15.2372 32.4068 15.4259 32.2921 15.6171 32.1469C15.8056 31.9965 16.0203 31.8079 16.1827 31.7314C16.2423 31.841 16.2951 31.9542 16.3408 32.0703C16.5549 31.8996 16.927 31.2064 17.457 31.219C17.6102 30.857 17.8662 30.5478 18.1932 30.3296C18.6851 29.9958 18.9934 29.9703 19.3783 30.0009C19.5311 29.8023 19.7195 29.6338 19.9338 29.5039C19.9975 29.5295 20.1734 29.6365 20.3927 29.5345C20.6144 29.4327 20.8641 29.0376 21.1928 28.9867C21.37 28.9623 21.5501 29.0001 21.7025 29.0937C21.7025 29.0937 22.6601 28.143 23.3209 27.8269C23.2954 27.7505 23.2445 27.4626 24.0191 26.8253C24.0624 26.8636 24.0319 26.9707 24.0624 26.9765C24.075 26.9765 24.264 26.8951 24.5033 26.7114C24.799 26.4898 25.1531 26.2578 25.3671 26.1942C25.7703 26.0744 26.1981 26.319 26.1981 26.319C26.2344 26.2935 26.275 26.2745 26.3178 26.2629C26.4197 26.2451 26.4936 26.2323 26.5497 26.2125C26.5446 26.345 26.6186 26.5718 26.5497 26.768C26.6295 26.8129 26.714 26.8488 26.8017 26.8751C26.7585 26.9693 26.6641 27.2089 26.5062 27.3236C26.6386 27.3873 26.6564 27.4612 26.845 27.5252C26.7686 27.6322 26.6434 27.8159 26.5877 27.9284C26.5315 28.0482 26.3301 28.5451 26.2409 28.7336C26.1467 28.9223 26.0193 29.2689 25.958 29.3384C25.8967 29.408 25.6751 29.7028 25.5044 29.848C25.6556 29.7919 26.2742 29.6034 26.5366 29.532C26.4585 29.6466 26.0625 30.2341 25.6818 30.799C23.8591 31.8915 21.8244 32.583 19.7135 32.8274C17.6025 33.0718 15.4637 32.8634 13.4396 32.2163L13.4408 32.2138Z" fill="#E0CD81"/>
<path fill-rule="evenodd" clip-rule="evenodd" d="M10.4148 15.5685C10.4148 15.5685 10.1932 15.5685 10.1499 15.5991C10.1066 15.6297 10.3717 15.6935 10.4531 15.7241C10.5346 15.7547 10.7105 15.8948 10.7564 16.007C10.7997 16.114 12.3492 16.7383 12.3492 16.7383L13.445 16.6822L13.8229 16.1602L13.1042 15.5307L13.6082 14.0449L12.9405 14.1519L11.335 15.1095L10.5296 15.418L10.4148 15.5685Z" fill="#DFC57C"/>
<path fill-rule="evenodd" clip-rule="evenodd" d="M12.8214 16.0606C12.8373 16.0862 12.8596 16.1073 12.8861 16.1216C12.9126 16.1359 12.9425 16.1429 12.9726 16.1421C13.1994 16.1421 13.4082 16.1982 13.4949 16.3128C13.6402 16.4964 14.0429 17.0825 14.0429 17.0825L15.0063 17.4291L15.0684 16.2948L14.0159 15.5635L12.8181 16.0043V16.0604H12.8207L12.8214 16.0606Z" fill="#E5CC7C"/>
<path fill-rule="evenodd" clip-rule="evenodd" d="M12.6324 16.481C12.6324 16.481 12.8082 16.4938 13.0299 16.4122C13.2517 16.3305 13.6161 16.1548 13.7742 16.2237C13.9957 16.3179 13.9499 16.6136 14.1896 16.8789C14.3348 17.042 14.5999 17.037 14.7502 17.2129C14.9006 17.3888 15.4179 17.3071 15.4179 17.3071L15.6141 18.3655L14.8267 19.3749L14.5691 20.6286H13.5043L12.5316 20.2427L12.0525 19.0835L12.2921 17.9112L12.6324 16.481Z" fill="#D2C281"/>
<path fill-rule="evenodd" clip-rule="evenodd" d="M14.6921 16.5323C14.7185 16.5404 14.7459 16.5447 14.7736 16.545C14.743 16.5706 14.6791 16.6265 14.7047 16.7718C14.7302 16.9172 14.8117 17.1006 14.743 17.2127C14.7978 17.2727 14.8387 17.344 14.8628 17.4217C14.9061 17.5467 14.9189 17.6612 15.2016 17.6792C15.1608 17.7043 15.1232 17.7343 15.0896 17.7684C15.0896 17.7684 15.2858 17.9391 15.3852 18.097C15.487 18.0927 15.7572 18.0087 15.7572 18.0087L15.8133 18.047L15.9331 17.9966C15.9331 17.9966 15.821 17.9532 15.9025 17.6806C15.979 17.441 16.0478 17.4538 16.0537 17.436C16.0596 17.4181 16.1098 17.1658 16.1098 17.0638C16.148 16.9314 16.1785 16.5288 16.1785 16.5288L16.0971 15.6394L15.6384 15.3615L15.2655 15.0015L14.9137 15.6641L14.682 15.8951L14.6642 16.4684L14.6921 16.5323Z" fill="#E2C270"/>
<path fill-rule="evenodd" clip-rule="evenodd" d="M15.7955 15.788C15.7955 15.788 15.877 16.0198 15.9078 16.1983C15.9186 16.1636 15.9246 16.1276 15.9256 16.0912C15.9256 16.0912 15.9892 16.443 16.0018 16.5884C16.0274 16.5832 16.0522 16.5756 16.0579 16.601C16.0637 16.6263 16.1218 16.9094 16.1083 17.0673C16.2145 16.8922 16.3613 16.7454 16.5364 16.6393C16.6384 16.5754 16.7582 16.5067 16.8832 16.5015C17.0794 16.4965 17.222 16.6265 17.4565 16.6265C18.0222 16.6265 18.5346 16.211 18.9118 16.0837C19.1895 15.9893 19.429 15.9206 19.5972 15.7675C19.6789 15.6988 19.8242 15.5459 19.9566 15.319C20.1325 15.0166 20.3159 14.7533 20.4995 14.7202C20.4165 14.7355 20.3319 14.7414 20.2475 14.738C20.2475 14.738 20.3036 14.6819 20.3987 14.6055C20.4938 14.529 20.6077 14.4348 20.7707 14.4348C21.0613 14.4348 21.2065 14.4779 21.3696 14.4779C21.5327 14.4729 21.627 14.4348 21.627 14.4348C21.627 14.4348 21.7978 14.5546 22.1826 14.5546C22.5674 14.5596 22.8248 14.5927 23.0263 14.6107C23.2277 14.6286 23.9029 14.5546 24.0966 14.5603C24.2229 14.5651 24.3469 14.5955 24.4611 14.6495L23.8367 12.8351L21.5935 10.8745L20.2581 11.82L18.2038 13.8742L16.216 14.6107L15.8006 15.077V15.788H15.7955Z" fill="#CCB360"/>
<path fill-rule="evenodd" clip-rule="evenodd" d="M20.2556 14.7482C20.2556 14.7482 20.3117 14.6922 20.4058 14.6158C20.4998 14.5393 20.6149 14.4449 20.7779 14.4449C21.0684 14.4449 21.2137 14.4883 21.3768 14.4883C21.5399 14.4832 21.6342 14.4449 21.6342 14.4449C21.6342 14.4449 21.8052 14.5645 22.1898 14.5645C22.5746 14.5696 22.832 14.6027 23.0335 14.6205C23.2349 14.6383 23.9101 14.5645 24.1038 14.5701C24.23 14.5748 24.354 14.6052 24.4682 14.6593L24.1853 13.8411L23.8567 13.2168L22.9187 12.1897C22.9187 12.1897 21.7931 11.5271 21.7845 11.5221C21.7795 11.517 21.3946 11.415 21.3946 11.415L20.3752 12.0318L19.4502 14.4249L19.4324 14.9289L20.0311 15.2118C20.1815 14.9598 20.3473 14.7582 20.5027 14.7327C20.3624 14.748 20.2554 14.748 20.2554 14.748L20.2556 14.7482Z" fill="#D5B457"/>
<path fill-rule="evenodd" clip-rule="evenodd" d="M20.2429 14.9188C20.1537 14.9238 20.0799 14.906 20.0594 14.8423C19.983 14.6283 19.9218 14.5977 19.8578 14.5977C19.7938 14.5977 19.7074 14.7353 19.6562 14.7479C19.605 14.7605 19.5441 14.59 19.5441 14.59L19.488 14.5645C19.488 14.5645 19.1593 14.7785 18.9274 15.0308C18.6956 15.2832 18.3157 15.7114 18.145 15.7877C17.9744 15.8639 17.388 15.8896 17.1874 15.933C16.9869 15.9763 16.7644 16.1216 16.7338 16.1547C16.7033 16.1878 16.8232 16.2235 16.841 16.2565C16.8588 16.2871 16.6446 16.2744 16.6268 16.3069C16.6142 16.3325 16.6772 16.4776 16.7085 16.5516C16.7632 16.5244 16.8232 16.5096 16.8842 16.5082C17.0804 16.5032 17.2232 16.6332 17.4576 16.6332C18.0234 16.6332 18.5356 16.2177 18.9128 16.0902C19.1907 15.996 19.4302 15.9271 19.5984 15.7742C19.6799 15.7055 19.8252 15.5525 19.9578 15.3257C20.0545 15.1703 20.1489 15.0249 20.2434 14.9179L20.2429 14.9188Z" fill="#D2B257"/>
<path fill-rule="evenodd" clip-rule="evenodd" d="M12.1284 27.5314C12.1284 27.5314 12.078 27.3427 11.6109 26.856C11.4784 26.7184 11.3969 26.604 11.3077 26.5222C11.0859 26.313 10.9559 26.2571 10.798 26.1373C10.4514 25.8799 10.0742 25.8799 9.78377 25.5639C9.4933 25.2479 9.15478 24.6441 8.91958 24.0271C8.68774 23.4103 8.6239 23.2141 8.6239 23.1963C8.6239 23.1785 8.68774 23.0587 8.76922 23.0765C8.8507 23.0943 8.8507 23.2522 8.8712 23.2905C8.91179 23.3531 8.95784 23.4119 9.00879 23.4663C9.12857 23.604 9.29926 23.7687 9.38595 24.0143C9.36814 23.8053 9.29674 23.5735 9.29674 23.5735C9.29674 23.5735 9.7453 23.8564 10.1275 24.1519C10.5124 24.4476 10.6703 24.5495 10.7827 24.738C10.8951 24.9265 11.1599 25.4236 11.2867 25.569C11.4135 25.7143 13.1515 26.2621 13.1515 26.2621L13.9782 26.8785L14.3887 27.7782L14.0674 28.2822L13.4507 28.4147L12.4491 27.9661L12.1284 27.5312V27.5314Z" fill="#D2B159"/>
<path fill-rule="evenodd" clip-rule="evenodd" d="M9.90332 24.4322C9.90332 24.4322 10.1123 24.766 10.622 25.082C11.0808 25.3599 11.8071 25.6122 12.4546 25.7626C12.8265 25.8518 13.1986 25.9205 13.5325 25.9257C14.4321 25.9383 15.0513 25.6811 15.8186 25.5969C16.2341 25.5536 16.7438 25.5205 17.2738 25.3953C17.9542 25.2322 18.3569 25.0486 18.9049 24.7905C19.3024 24.6071 19.667 24.4695 19.9625 24.2936C20.378 24.049 20.6812 23.7763 21.033 23.6948C20.9896 23.8146 20.9438 24.0286 20.5972 24.2504C20.7806 24.2452 21.033 24.2326 21.033 24.2326C21.033 24.2326 20.7884 24.3777 20.3576 24.704C20.0925 24.9056 19.7409 25.2468 19.3815 25.4736C19.1495 25.6189 18.8972 25.7256 18.7316 25.8126C18.3284 26.0344 18.1657 26.1464 17.9008 26.4174C17.995 26.4124 18.0028 26.4174 18.0028 26.4174C18.0028 26.4174 17.6688 26.4608 17.4294 26.5881C17.379 26.5881 17.2916 26.5703 17.1387 26.6137C17.019 26.6518 16.8609 26.7386 16.6979 26.7843C16.4659 26.8532 16.3896 26.8226 16.3896 26.8226L16.4278 26.8991C16.4278 26.8991 16.1254 26.8939 16.0246 26.9041C16.0424 26.9092 16.0373 26.9169 16.0373 26.9169C16.0196 26.9199 16.0026 26.9259 15.9869 26.9347C15.9384 26.9661 15.8851 26.9893 15.829 27.0034C15.7984 27.0085 15.7729 27.0085 15.7346 27.0162C15.7474 27.0468 15.8468 27.2178 15.8927 27.3186C15.8546 27.3441 15.281 27.7774 15.281 27.7774C15.2988 27.8054 15.3133 27.8353 15.3243 27.8666C15.3422 27.9225 15.3499 28.0042 15.3677 28.0423C15.4109 28.1188 15.4364 28.1315 15.4364 28.1315C15.4364 28.1315 15.3677 28.1443 15.2477 28.1749C15.1459 28.2004 15.0209 28.2436 14.8445 28.2691C14.7904 28.2762 14.736 28.2804 14.6814 28.2819C14.7069 28.338 14.819 28.552 14.6125 28.7992C14.4061 29.0463 14.3424 29.0822 14.2787 29.2402C14.2467 29.2159 14.2125 29.1946 14.1767 29.1763C14.108 29.1458 14.0136 29.1001 13.9805 29.0387C13.9612 29.1204 13.9357 29.2005 13.9041 29.2783C13.8404 29.449 13.7462 29.6173 13.7283 29.7447C13.6595 29.6682 13.5321 29.5179 13.3562 29.5484C13.1803 29.579 13.0402 29.8186 13.0096 29.8875C13.0096 29.8441 12.9791 29.811 12.9715 29.8619C12.9663 29.918 12.8695 30.504 12.3292 30.9781C12.3242 30.8583 12.3242 30.5932 12.3114 30.5067C12.261 30.5571 12.1994 30.6315 11.8323 30.7896C11.4729 30.9476 11.5299 31.1056 11.5299 31.1056C11.5299 31.1056 11.4993 30.8536 11.693 30.5882C11.8892 30.3233 12.009 30.1983 12.009 30.1779C12.0059 30.1572 11.997 30.1378 11.9835 30.1218C11.958 30.0963 11.9071 30.0657 11.9071 30.0454C11.9376 30.0328 12.2409 29.8875 12.2231 29.5866C12.2053 29.3166 12.0907 29.1763 12.009 29.077C11.9964 29.0643 12.129 28.97 12.111 28.9394C12.0982 28.9216 11.9353 28.8017 11.9148 28.7378C11.9196 28.6998 11.9282 28.6622 11.9403 28.6258C11.9581 28.5697 11.9709 28.5314 11.9659 28.4932C11.9531 28.4296 11.8842 28.2537 11.8639 28.2359C11.8817 28.2409 12.009 28.2359 12.009 28.2359C12.009 28.2359 11.9072 28.0727 11.8892 27.9963C11.8713 27.9199 11.8331 27.7184 11.8128 27.6803C11.8562 27.6853 11.9632 27.6929 11.9632 27.6803C11.9684 27.642 11.8689 27.5783 11.9128 27.5291C11.9433 27.5341 12.002 27.5597 12.0579 27.6311C12.0273 27.5494 11.9764 27.3915 11.8693 27.3278C11.9197 27.31 12.091 27.264 12.2414 27.3532C12.3917 27.4424 12.443 27.5672 12.443 27.5672C12.443 27.5672 12.5322 27.6361 12.6699 27.7381C12.8279 27.8629 13.0291 28.0405 13.3503 28.1661C13.4192 28.2044 13.595 28.2044 13.7225 28.1789C13.778 28.1657 13.8312 28.1442 13.8804 28.1152C13.8981 28.1048 13.9169 28.0962 13.9365 28.0897C13.9091 28.0347 13.8776 27.9819 13.8422 27.9316C13.8856 27.9316 13.9365 27.9368 13.9365 27.9368C13.9365 27.9368 13.9671 27.8679 13.8295 27.7352C13.8601 27.7046 13.8984 27.6848 13.8984 27.6332C13.855 27.6282 13.7786 27.5645 13.7608 27.539C13.7861 27.5212 13.8244 27.4626 13.8678 27.4448C13.8295 27.4142 13.7352 27.2867 13.6919 27.2741C13.7333 27.2587 13.7734 27.2399 13.8117 27.218C13.8117 27.218 13.5976 27.1618 13.5288 27.116C13.4599 27.0656 13.3581 26.9784 13.2969 26.9528C13.2331 26.9273 13.121 26.9147 13.0752 26.8636C13.1183 26.8764 13.1872 26.8636 13.2383 26.8636C13.2764 26.8636 13.2944 26.8687 13.307 26.8687C13.302 26.8509 13.302 26.8126 13.4014 26.8C13.4493 26.7928 13.4957 26.7781 13.539 26.7566C13.539 26.7566 13.4446 26.7516 13.3374 26.6496C13.2302 26.5476 13.1412 26.4662 13.08 26.4534C13.0164 26.4406 12.8966 26.4967 12.8227 26.4915C12.7207 26.4789 12.6773 26.4278 12.6773 26.4278C12.6773 26.4278 12.3385 26.4584 11.5867 25.9998C10.9367 25.6021 10.6538 25.2505 10.6538 25.2505C10.5929 25.2284 10.5342 25.2011 10.478 25.1689C10.2334 25.0415 9.89442 24.7764 9.90466 24.4297L9.90332 24.4322Z" fill="#C2A44D"/>
<path fill-rule="evenodd" clip-rule="evenodd" d="M19.2793 9.13607C19.3383 9.15523 19.3907 9.19056 19.4305 9.23805C19.5503 9.37564 19.6267 9.63554 19.3541 9.91341C19.4611 9.95155 19.5053 9.96381 19.5987 9.95155C19.5044 10.0638 19.2904 10.3033 19.2776 10.5123C19.2649 10.683 19.3719 10.7341 19.3719 10.7341C19.3719 10.7341 19.2088 10.9226 19.2012 11.2381C19.2782 11.1512 19.3625 11.0711 19.4532 10.9985C19.6419 10.8482 19.9018 10.6775 20.0777 10.5705C20.0753 10.6153 20.0813 10.6602 20.0955 10.7028C20.0955 10.7028 20.4241 10.4327 20.7003 10.5526C20.8251 10.6088 20.769 10.7845 20.769 10.7845C20.769 10.7845 20.9398 10.7208 21.0596 10.8406C21.1794 10.9604 21.3487 11.2693 21.4356 11.3891C21.4737 11.4452 21.5732 11.5522 21.675 11.7179C21.8141 11.9498 21.9302 12.1947 22.0217 12.4492C22.0268 12.3166 22.0599 12.1103 22.4372 12.2402C22.8144 12.3728 23.2424 12.6506 23.6018 13.1978C23.9611 13.745 24.0502 14.3627 24.2311 14.5979C24.4146 14.8247 24.6032 15.2019 24.616 15.36C24.6288 15.5181 24.5599 16.0276 24.9371 17.4064C25.0441 16.9783 25.2072 16.0276 25.2072 16.0276L25.2964 15.1891L25.3984 12.5947L22.6892 10.344L20.5714 8.80713L19.1926 8.93968L19.2791 9.13591L19.2793 9.13607Z" fill="#CAA13E"/>
<path fill-rule="evenodd" clip-rule="evenodd" d="M24.3127 12.9971C24.3127 12.9971 24.2744 12.7451 23.6373 12.3167C23.0001 11.8937 22.5032 11.8937 22.0445 11.5343C21.6927 11.2514 21.3258 10.6014 21.0869 10.3874C20.8549 10.1759 20.8168 9.56419 20.8168 9.56419L21.5991 8.90899L22.7627 7.22714L23.7464 6.14404L24.2178 6.79924L24.873 7.56885L25.2374 9.11328L25.3699 11.3739L24.3115 12.9973L24.3127 12.9971Z" fill="#B59544"/>
<path fill-rule="evenodd" clip-rule="evenodd" d="M25.1004 15.7065C25.1197 15.3637 25.0773 15.0202 24.9754 14.6923C24.8074 14.1698 24.4403 13.2421 24.2698 12.8947C24.2009 12.5098 24.252 12.4792 24.3259 12.4359C24.3998 12.3925 24.6777 12.2343 24.8299 11.679C24.9821 11.1238 25.4544 11.1056 25.4544 11.1056L25.7448 10.8916L26.1858 11.995L26.5706 12.9916L26.6903 13.7536L26.7795 14.4035L26.5706 15.7772L25.5385 16.7099L25.1002 15.7065H25.1004Z" fill="#C89D3A"/>
<path fill-rule="evenodd" clip-rule="evenodd" d="M10.6985 31.0182V30.99C10.72 30.9765 10.7389 30.9595 10.7545 30.9396C10.7723 30.914 10.7852 30.8834 10.7978 30.8759C10.8234 30.8631 10.9432 30.8255 11.0068 30.8376C11.0705 30.8497 11.2388 30.9191 11.328 30.914C11.5115 30.909 11.7255 30.7687 12.0646 30.8325C12.5743 30.9268 12.6941 31.2734 12.9897 31.4696C13.1913 31.6074 13.4 31.546 13.4306 31.546H13.4993C13.512 31.546 13.6063 31.439 13.6574 31.4442C13.7593 31.4493 13.7694 31.5334 13.8331 31.5385C13.9835 31.5563 14.2741 31.462 14.4194 31.5003C14.4625 31.5138 14.5017 31.5376 14.5336 31.5695C14.5656 31.6014 14.5893 31.6406 14.6029 31.6836C14.6334 31.7779 14.6079 31.8977 14.534 31.9665C14.3761 32.1117 14.2257 32.2495 14.1951 32.3697C14.234 32.3994 14.2714 32.431 14.307 32.4645C13.046 32.1432 11.8328 31.6574 10.6985 31.0197V31.0182Z" fill="#CEB052"/>
<path fill-rule="evenodd" clip-rule="evenodd" d="M24.2695 25.9262C24.2695 25.9262 24.667 25.3961 24.8047 25.1335C24.9423 24.8629 24.3689 21.4357 24.3689 21.4357L25.5209 17.6614L25.4902 16.433C25.4902 16.433 25.5463 15.2988 25.6788 14.8069C25.8369 15.0898 26.3288 15.4314 26.4358 15.6123C26.4862 15.2656 26.6574 14.5343 26.6321 13.7544C26.7263 13.8995 26.9531 15.36 26.9531 15.36L27.1799 16.3436L27.4756 17.3886L27.8044 18.4922L28.0006 19.2542L28.1126 19.4377L28.2071 19.7587L28.2963 20.1055L28.5536 20.9184L28.7048 21.586L28.8246 22.7967C28.8507 22.8894 28.8694 22.9839 28.8807 23.0796C28.8858 23.2121 28.8629 23.2886 28.8629 23.3116C28.8629 23.3346 28.9063 23.602 28.8885 23.8035C28.8629 24.0051 28.8629 24.1628 28.7048 24.3075C28.5467 24.4521 28.4475 25.3167 28.4475 25.3167L28.1646 25.1282C28.1646 25.1282 28.2207 24.8706 28.0881 24.6363C27.9556 24.4019 27.6982 24.3533 27.5529 24.3916C27.4077 24.4222 27.1172 24.4679 27.0228 24.5496C26.9336 24.631 26.7145 24.8834 26.5131 24.9981C26.2611 25.1493 25.8505 25.1613 25.6314 25.2122C25.4097 25.2626 25.1651 25.4138 24.9075 25.5893C24.7056 25.7201 24.4924 25.8325 24.2705 25.9253L24.2695 25.9262Z" fill="#CCA847"/>
<path fill-rule="evenodd" clip-rule="evenodd" d="M24.2695 31.4948C24.2695 31.4948 24.2863 31.5058 24.3187 31.5236C26.1293 30.6753 27.7516 29.4728 29.0899 27.9872C29.0753 27.4714 29.0563 26.9427 29.0355 26.7468C28.9923 26.3314 29.0229 25.9083 29.0101 25.6637C28.9973 25.4191 28.8597 24.4225 28.7961 24.1652C28.7272 23.9078 28.5945 23.7803 28.5743 23.7803C28.5565 23.7855 28.4493 24.2646 28.4493 24.3851C28.4493 24.5055 28.4238 24.7955 28.4238 24.8694C28.406 24.8642 28.3984 24.819 28.3984 24.8005C28.3729 24.8642 28.3423 24.9764 28.3295 24.9892C28.3168 25.002 28.3473 24.8822 28.3295 24.8566C28.3117 24.8311 28.2791 24.8439 28.2862 24.7802C28.2892 24.7424 28.2952 24.705 28.304 24.6682C28.304 24.6682 28.2275 24.7802 28.1716 25.0656C28.1155 25.3486 28.1155 25.3563 28.0952 25.3816C28.0774 25.4124 27.9754 25.5142 27.9702 25.5525C27.9651 25.6212 28.0646 25.6901 28.0721 25.7282C28.0772 25.7921 27.9829 26.0876 27.9524 26.2322C27.9218 26.3769 27.9346 26.6603 27.902 26.8056C27.8764 26.9382 27.8516 27.0146 27.7644 27.0706C27.828 27.0833 27.8892 27.1011 27.8892 27.1011C27.8892 27.1011 27.9784 27.4783 27.7516 27.7995C27.6701 27.9116 27.6498 27.9626 27.5631 28.0646C27.3923 28.2531 27.2597 28.4678 27.2469 28.6074C27.2381 28.5662 27.2322 28.5244 27.2291 28.4824C27.2291 28.4824 26.9642 28.7909 26.852 28.9668C26.7068 29.1936 26.5054 29.1808 26.4488 29.2369C26.3921 29.293 26.3799 29.3948 26.3984 29.4765C26.348 29.4891 26.2532 29.5071 26.1894 29.7033C26.1588 29.8051 26.0824 29.9049 25.9626 29.9734C25.8428 30.042 25.6975 30.0626 25.6235 30.0804C25.6872 30.0982 25.7128 30.0982 25.7433 30.1186C25.7052 30.1822 25.5293 30.2817 25.3331 30.4092C25.1369 30.529 25.0424 30.7047 24.9941 30.8195C24.9437 30.9265 24.8692 30.9954 24.7494 31.0081C24.7998 31.0387 24.8744 31.1099 24.9126 31.133C24.8565 31.1457 24.7614 31.1457 24.5915 31.291C24.4131 31.4389 24.352 31.4822 24.2703 31.495L24.2695 31.4948Z" fill="#C39D3C"/>
<path fill-rule="evenodd" clip-rule="evenodd" d="M20.7233 32.6756C20.8208 32.6072 20.9265 32.5512 21.0379 32.5088C21.4354 32.3509 21.8559 32.3203 22.0216 32.2694C22.1796 32.219 22.3045 32.1495 22.5007 32.1113C22.4955 32.156 22.4911 32.198 22.4864 32.2377C21.9079 32.4195 21.3188 32.5658 20.7224 32.6756H20.7233Z" fill="#D2BA6B"/>
<path fill-rule="evenodd" clip-rule="evenodd" d="M28.0548 22.2206C28.0548 22.2206 27.9733 22.6614 27.828 22.9393C27.6827 23.2171 27.5256 23.6019 27.5256 23.6019C27.5266 23.5152 27.5368 23.4288 27.5562 23.3443C27.3727 23.4513 26.9267 23.7089 26.8002 23.8234C26.6804 23.9305 26.479 24.1191 26.4281 24.2083C26.5478 23.8567 26.6727 23.5407 26.6932 23.3954C26.5097 23.5279 25.6532 24.2339 25.2074 24.7002L23.8183 25.8242C23.6581 25.9106 23.493 25.9879 23.3239 26.0557C23.0845 26.1575 22.8016 26.2442 22.5926 26.3258C22.6487 26.1754 22.7378 26.0427 22.8628 25.9154C22.9953 25.7906 23.3928 25.3598 23.454 25.1594C23.5101 24.9504 23.5228 24.8256 23.4489 24.6497C23.38 24.6675 23.2221 24.6752 23.1151 24.7058C23.0081 24.7364 22.8933 24.8509 22.8933 24.8509C22.8933 24.8509 22.9748 24.3846 23.1507 23.9437C23.0182 23.9488 22.7914 23.9869 22.7914 23.9869C22.7914 23.9869 23.1074 23.4569 23.6482 23.0874C23.4825 23.1227 23.3205 23.173 23.164 23.2376C22.848 23.3702 22.5014 23.5664 22.244 23.6734C22.3892 23.4718 23.4086 22.0169 24.0152 20.661C24.62 19.3078 24.846 18.9612 24.9786 18.2349C25.0473 17.8756 25.029 17.3445 25.0473 16.8689C25.0651 16.3973 25.1237 15.9743 25.0856 15.6914C25.2435 15.8876 25.8349 16.4407 25.8552 17.6768C25.873 18.9128 25.2895 20.5822 24.6701 21.4817C24.8213 21.525 25.2131 21.5761 25.6156 20.8769C26.0181 20.1777 26.0133 19.9825 26.1586 19.6918C26.1764 19.8371 26.1712 19.888 26.1712 19.888C26.1712 19.888 26.7575 19.1771 27.0352 18.2825C27.0913 18.6674 27.257 19.0064 26.9969 19.7123C26.7651 20.3494 26.4618 20.5049 26.4618 20.5049C26.4618 20.5049 26.6122 20.4794 26.8338 20.3469C26.8721 20.4411 26.8645 20.5485 26.9282 20.5864C26.9919 20.6244 27.0786 20.6884 27.0913 20.7495C27.16 20.6476 27.2671 20.5175 27.3003 20.4208C27.2748 20.6224 27.257 21.5039 27.3507 21.9524C27.5471 21.9346 27.7484 21.9219 27.886 21.5675C27.7917 21.9143 27.7917 22.1231 27.8554 22.4188C27.9599 22.3476 28.0541 22.2201 28.0541 22.2201L28.0548 22.2206Z" fill="#C0993A"/>
<path fill-rule="evenodd" clip-rule="evenodd" d="M21.4329 8.17315C21.4329 8.17315 21.2366 8.25463 20.9028 8.25463C20.6124 8.25463 20.6938 8.14258 20.2402 8.14258C19.542 8.14258 17.103 8.54578 16.6748 8.54007C16.3969 8.53503 17.6125 8.65985 17.6125 8.65985L20.7194 8.70319L21.3437 8.65279L21.5757 8.18071L21.4329 8.17315Z" fill="#A88F33"/>
<path fill-rule="evenodd" clip-rule="evenodd" d="M13.377 14.2462C13.377 14.2462 12.9793 14.5494 12.8112 14.7814C12.643 15.0134 12.5538 15.1661 12.3626 15.3548C12.4075 15.3565 12.4523 15.3505 12.4952 15.337C12.4952 15.337 12.4952 15.3874 12.4646 15.4007C12.491 15.3977 12.5178 15.4007 12.5429 15.4094C12.568 15.4182 12.5908 15.4324 12.6097 15.4511C12.5536 15.4817 12.4007 15.6347 12.5205 15.8156C12.6097 15.9532 12.7984 15.9658 12.7984 15.9658C12.7984 15.9658 12.7551 16.0908 12.936 16.0781C13.3259 16.0602 13.7617 15.8894 13.963 15.9327C14.1646 15.9831 14.2792 16.0016 14.4218 16.2489C14.573 16.4935 14.7047 16.5318 14.7047 16.5318C14.7047 16.5318 14.7939 16.3048 14.7736 15.966C14.8467 15.7833 14.8873 15.5893 14.8934 15.3926L14.7608 14.4165L14.1824 13.6851L13.4331 14.1005L13.377 14.2457V14.2462Z" fill="#E3C571"/>
<path fill-rule="evenodd" clip-rule="evenodd" d="M14.088 14.1007C14.088 14.1007 14.1441 14.2333 14.3786 14.2459C14.3531 14.302 14.3531 14.3097 14.3608 14.3529C14.3658 14.3962 14.3734 14.4599 14.3734 14.4599C14.3992 14.4474 14.4225 14.4303 14.4423 14.4095C14.455 14.4656 14.4295 14.5547 14.4423 14.6185C14.4501 14.6573 14.463 14.695 14.4804 14.7306C14.4841 14.7218 14.4884 14.7134 14.4932 14.7052C14.4982 14.6924 14.5436 14.8428 14.6691 14.9572C14.669 14.9396 14.6733 14.9223 14.6817 14.9068C14.6836 14.9387 14.6942 14.9696 14.7122 14.996C14.7028 14.9915 14.6943 14.9855 14.6869 14.9782C14.6869 14.9782 14.6995 15.3814 14.7684 15.5899C14.7799 15.5764 14.7901 15.5619 14.7989 15.5465C14.7989 15.5339 14.7939 15.6588 14.7811 15.7481C14.7633 15.8373 14.7761 15.9622 14.7761 15.9622C14.822 15.926 14.8725 15.896 14.9263 15.873C15.0027 15.8422 15.1279 15.748 15.2041 15.539C15.2484 15.4206 15.2825 15.2987 15.3061 15.1746C15.3308 15.222 15.3478 15.273 15.3565 15.3258C15.3617 15.3895 15.4815 15.3564 15.4815 15.3564L15.507 15.0785L15.6582 14.449L15.7958 14.0591L16.4584 13.027L17.6556 12.1051L18.7006 12.3446L19.5822 11.1468L18.0633 10.2344L16.6259 10.3847L15.3214 12.1916L14.2766 13.8304L14.088 14.1006V14.1007Z" fill="#D8B65B"/>
<path fill-rule="evenodd" clip-rule="evenodd" d="M21.6164 11.4862C21.6164 11.4862 21.5272 11.504 21.2698 11.6374C21.0124 11.7708 20.834 11.8131 20.7346 12.0093C20.6351 12.2055 20.6276 12.3611 20.6276 12.3611C20.6276 12.3611 20.8035 12.2847 20.9054 12.2591C21.0124 12.2338 21.1322 12.2413 21.1195 12.2847C21.1072 12.3144 21.0902 12.3419 21.0691 12.3661C21.0691 12.3661 21.2707 12.3611 21.2653 12.4606C21.2599 12.56 21.2271 12.6696 21.189 12.7179C21.1507 12.7683 20.9928 12.8429 20.975 12.9016C20.9316 13.0213 20.9928 13.0264 20.9698 13.1232C20.952 13.2176 20.868 13.401 20.5926 13.7221C20.3097 14.0433 20.1894 14.2701 20.1894 14.2701C20.1894 14.2701 20.0518 14.0127 19.9804 13.791C19.93 13.8163 19.6594 13.9667 19.6594 13.9667L19.0324 11.7827L19.045 11.6374C19.045 11.6374 19.1011 11.5686 19.1139 11.4411C19.0196 11.4106 19.0069 11.385 18.8819 11.2654C18.7569 11.1458 18.6551 11.0003 18.4462 10.9008C18.4157 10.8447 18.3774 10.7685 18.2245 10.7377C18.0716 10.707 17.9799 10.6818 17.9799 10.6818C17.9799 10.6818 18.0614 10.651 18.0997 10.5874C18.0052 10.6001 17.929 10.6307 17.7225 10.6257C17.5135 10.6205 17.4905 10.6129 17.3759 10.6307C17.2613 10.6485 17.1239 10.6996 17.0727 10.5237C17.0166 10.4803 16.8968 10.5186 16.7948 10.6688C16.6928 10.819 16.6572 10.939 16.461 10.9976C16.4472 11.0841 16.4169 11.1672 16.3718 11.2422C16.3157 11.3366 16.2265 11.4309 16.1067 11.571C15.918 11.7928 15.9486 12.1572 15.6479 12.435C15.3446 12.7127 15.6983 11.6652 15.6983 11.6652L16.1824 10.506L17.5612 9.15785L19.702 9.0127L19.911 10.1215L20.956 10.4808L21.6161 11.4875L21.6164 11.4862Z" fill="#D3AE4D"/>
<path fill-rule="evenodd" clip-rule="evenodd" d="M21.9554 11.7306L21.0558 10.4335L20.4263 9.94917C20.4263 9.94917 19.9777 9.12362 19.9472 9.09808C19.9216 9.08027 19.4986 9.03441 19.2285 9.0166L19.2789 9.14143C19.3378 9.16058 19.3902 9.19591 19.4301 9.2434C19.5498 9.38099 19.6263 9.64089 19.3536 9.91876C19.4606 9.9569 19.5048 9.96916 19.5982 9.9569C19.504 10.0691 19.29 10.3087 19.2772 10.5177C19.2644 10.6884 19.3714 10.7393 19.3714 10.7393C19.3714 10.7393 19.2083 10.9279 19.2007 11.2433C19.2778 11.1564 19.3621 11.0763 19.4527 11.0037C19.6414 10.8525 19.9013 10.6825 20.0772 10.5755C20.0748 10.6204 20.0808 10.6653 20.095 10.708C20.095 10.708 20.4236 10.4379 20.6998 10.5577C20.8246 10.6138 20.7685 10.7897 20.7685 10.7897C20.7685 10.7897 20.9394 10.726 21.0592 10.8458C21.1789 10.9656 21.3496 11.2739 21.4363 11.3938C21.4745 11.4499 21.5739 11.5569 21.6757 11.7224C21.8148 11.9544 21.931 12.1994 22.0225 12.4539C22.0275 12.3519 22.048 12.2093 22.2241 12.2093L21.9564 11.7301L21.9554 11.7306Z" fill="#CAA13E"/>
<path fill-rule="evenodd" clip-rule="evenodd" d="M8.46861 15.4158C8.46861 15.4158 8.40493 15.2577 8.46861 14.9495C8.53228 14.6412 8.63173 14.4959 8.66483 14.0423C8.69793 13.5887 8.99361 13.0228 8.99361 13.0228L9.8116 12.6509L10.3902 12.8088L10.5609 13.5836L9.82941 13.9868C9.82941 13.9868 9.79127 14.1575 9.5848 14.2951C9.37833 14.4327 9.09289 14.5397 9.02418 14.68C8.98311 14.7659 8.95313 14.8567 8.93497 14.9501C8.93497 14.9501 8.72598 14.9068 8.60116 15.0444C8.46861 15.1847 8.47365 15.3095 8.46861 15.4165V15.4158Z" fill="#F4EFC8"/>
<path fill-rule="evenodd" clip-rule="evenodd" d="M10.12 15.2093C10.12 15.2093 10.0511 15.2527 10.0002 15.3605C9.94984 15.279 9.82939 14.7947 9.82435 14.3589C9.81931 13.9231 9.79327 13.8151 9.89407 13.6649C9.99487 13.5147 10.3902 13.3565 10.3341 13.086C10.2779 12.8286 10.0434 12.7216 9.75547 12.7955C9.55387 12.8459 9.40384 13.2746 9.19485 13.4887C9.03676 13.6518 8.84827 13.6263 8.79736 13.7155C8.72848 13.8353 8.79215 13.955 8.77183 14.0315C8.76662 14.057 8.70295 14.1946 8.5882 14.3603C8.35636 14.6941 7.96391 15.1656 7.91284 15.5887C7.93065 15.3491 7.91805 15.3441 7.98172 15.079L7.94342 15.0153L8.19542 14.1896L8.35855 13.5092L8.72311 12.3698L9.3652 11.2052L9.98966 10.5068L10.6395 10.5502L10.7159 11.5263L11.088 13.3588L11.8704 14.3221L10.6165 15.166L10.1195 15.2093H10.12Z" fill="#EBCC73"/>
<path fill-rule="evenodd" clip-rule="evenodd" d="M10.5099 15.5558C10.5099 15.5558 10.4029 15.5813 10.3646 15.561C10.3263 15.5407 10.2883 15.5177 10.3009 15.4921C10.3135 15.4666 10.3824 15.4234 10.3824 15.4029C10.3838 15.3844 10.3779 15.366 10.3661 15.3518C10.3542 15.3375 10.3372 15.3284 10.3187 15.3265C10.2601 15.3189 10.2423 15.357 10.2423 15.357C10.2423 15.357 10.1862 15.3139 10.1405 15.3066C10.1675 15.3033 10.1947 15.3016 10.2219 15.3014C10.1515 15.2695 10.0768 15.2481 10.0002 15.2378C10.0639 15.1996 10.1888 15.0874 10.2703 15.0874C10.3518 15.0874 10.4029 15.0748 10.3901 15.0315C10.3773 14.9881 10.3137 14.9244 10.245 14.8989C10.2703 14.8683 10.2883 14.8225 10.2272 14.6973C10.1633 14.5725 10.1888 14.4883 10.2093 14.4579C10.2272 14.4196 10.2908 14.3509 10.3214 14.3075C10.352 14.2642 10.3775 14.2056 10.4284 14.175C10.454 14.1572 10.5354 14.1246 10.6171 14.0935C10.7063 14.0629 10.7802 14.0246 10.8311 14.0629C10.8872 14.1011 10.8617 14.1521 10.8617 14.1521C10.8617 14.1521 11.0376 14.0883 11.1955 14.17C11.3536 14.2462 11.7385 14.2948 11.7385 14.2948L11.8764 14.5727L10.964 15.355L10.5868 15.5437L10.5104 15.5563L10.5099 15.5558Z" fill="#E5C66B"/>
<path fill-rule="evenodd" clip-rule="evenodd" d="M11.7763 14.2769C11.7763 14.2769 11.4934 14.4655 11.4297 14.5342C11.4679 14.5394 11.5316 14.565 11.506 14.6031C11.4754 14.6412 11.292 14.7738 11.19 14.8988C11.083 15.0236 10.981 15.1817 10.9454 15.2581C10.9073 15.3269 10.6166 15.5283 10.5173 15.5537C10.7263 15.5537 11.1468 15.2963 11.3047 15.2963C11.2997 15.3727 11.3481 15.4594 11.4373 15.467C11.5265 15.4745 11.7839 15.5231 12.1305 15.309C12.4771 15.1001 12.3625 14.9445 12.5076 14.8427C12.7855 14.6591 12.8976 14.4959 13.0504 14.3941C13.2033 14.2923 13.2824 14.2691 13.2824 14.2691C13.2824 14.2691 13.2875 14.1927 13.3328 14.2004C13.3453 14.2018 13.3571 14.2066 13.3669 14.2143C13.3768 14.2219 13.3844 14.2321 13.389 14.2438C13.389 14.2438 13.6541 14.0551 13.9938 14.0042C13.9858 14.0006 13.9795 13.9943 13.976 13.9864C13.976 13.9864 14.0013 13.9736 14.0065 13.9608C14.0065 13.9608 14.0243 13.9353 14.0371 13.9481C14.0499 13.9608 14.0677 14.0551 14.0932 14.0934C14.1493 14.0679 14.2563 13.8283 14.2563 13.8283L14.5139 13.0918V12.4189L14.3123 12.4572L12.8003 13.0993L11.8827 14.0501L11.7757 14.2769H11.7763Z" fill="#E6BD62"/>
<path fill-rule="evenodd" clip-rule="evenodd" d="M16.1294 10.9762C16.2112 10.9563 16.2896 10.9245 16.3621 10.8818C16.3315 10.9634 16.3315 11.0526 16.199 11.2463C16.0664 11.44 16.0614 11.4681 15.9543 11.6693C15.8473 11.8783 15.8346 12.1791 15.7326 12.3114C15.7783 12.2892 15.8273 12.2747 15.8777 12.2683C15.8777 12.2683 15.7759 12.3575 15.7326 12.4517C15.6892 12.546 15.6128 12.7422 15.4243 12.8621C15.2358 12.9821 14.9961 13.0584 14.7387 13.3413C14.4812 13.619 14.2162 13.9708 14.0835 14.0973C14.1524 13.9775 14.2466 13.7379 14.2722 13.58C14.2977 13.4221 14.267 13.2333 14.3103 13.0244C14.3536 12.8156 14.3536 12.6651 14.5623 12.3005C14.771 11.936 15.1281 10.6694 15.1281 10.6694L15.8977 10.4248L16.1297 10.9753L16.1294 10.9762Z" fill="#B6933F"/>
<path fill-rule="evenodd" clip-rule="evenodd" d="M15.5738 10.51C15.5738 10.51 15.342 10.8438 15.2783 11.1394C15.2146 11.4351 15.2731 11.4096 15.2349 11.5549C15.2121 11.6435 15.2121 11.7365 15.2349 11.8251C15.3152 11.6957 15.4252 11.5873 15.5557 11.5089C15.7749 11.3765 15.9533 11.2821 16.0597 11.17C16.1667 11.0502 16.2559 10.854 16.4877 10.7037C16.3935 10.6909 16.2609 10.6475 16.2357 10.6533C16.3301 10.5462 16.6129 10.3831 16.8983 10.1869C17.1812 9.98529 17.1634 9.90398 17.6222 9.70271C17.4719 9.72825 17.4005 9.68995 17.2755 9.70271C17.3259 9.5957 17.5023 9.54463 17.6787 9.3689C17.8551 9.19317 17.5666 8.93311 17.5666 8.93311L16.2226 9.74606L15.5728 10.5106L15.5738 10.51Z" fill="#C49937"/>
<path fill-rule="evenodd" clip-rule="evenodd" d="M11.9268 9.90336L11.9573 9.65875L12.3422 9.04202L12.7449 7.95893V6.47817L12.7143 5.62188L12.778 5.06109L12.8264 4.88284L12.8775 4.81396L13.2061 4.98465L13.6598 5.60138L13.7032 6.79166L13.2622 8.6699L12.0032 10.0436L11.9268 9.90336Z" fill="#DFC068"/>
<path fill-rule="evenodd" clip-rule="evenodd" d="M12.9284 4.74509C12.9284 4.74509 12.7268 4.75029 12.6838 5.58878C12.6408 6.42727 12.6199 6.8681 12.5894 7.28357C12.5588 7.69903 12.4875 7.9512 12.4518 8.19597C12.416 8.44075 12.3957 8.7744 12.2811 8.97835C12.2307 9.0726 12.123 9.36828 11.8707 9.59004C11.5877 9.83465 11.1651 10.0055 11.101 10.0183C10.9888 10.0436 10.4205 10.0998 10.1886 10.2273C10.1072 10.2706 9.96688 10.3215 9.81148 10.4668C9.50303 10.7445 9.09277 11.2415 8.79709 11.8404C8.34349 12.735 7.88989 15.2605 7.88989 15.2605L7.99187 15.0899C7.99187 15.0899 8.00464 14.8631 8.23144 14.4654C8.4532 14.0679 8.38952 13.6219 8.6978 12.8598C8.81759 12.5694 8.96795 12.1922 9.1514 11.871C9.44204 11.3485 9.79367 10.8999 10.148 10.6553C10.7264 10.2578 11.3636 10.1712 11.3636 10.1712L12.0492 9.71755C12.0492 9.71755 12.169 9.48571 12.3271 9.22061C12.5487 8.84865 12.8311 8.43319 12.8928 7.82923C12.9872 6.93463 12.7602 6.34848 12.773 5.81844C12.7857 5.2884 12.7908 4.89847 12.898 4.80405C13.0052 4.70964 12.9285 4.74542 12.9285 4.74542L12.9284 4.74509Z" fill="#A88F33"/>
<path fill-rule="evenodd" clip-rule="evenodd" d="M12.9284 8.7464C12.9284 8.7464 13.2308 8.00216 13.3693 7.34209C13.3948 7.20954 13.4457 7.07716 13.4585 6.97014C13.5221 6.34568 13.54 6.08831 13.4585 5.74676C13.3948 5.49476 13.1502 5.26763 13.0227 5.09156C12.8979 4.90794 12.8392 4.83956 12.8648 4.80092C12.8903 4.76228 12.9896 4.69912 13.0864 4.70668C13.1892 4.70967 13.2904 4.73355 13.3837 4.77688C13.4771 4.8202 13.5606 4.88205 13.6293 4.95868C13.8256 5.18548 13.981 5.95525 13.981 5.95525L14.1444 6.97098L14.5599 8.2503L12.9288 8.74741L12.9284 8.7464Z" fill="#C99E3D"/>
<path fill-rule="evenodd" clip-rule="evenodd" d="M15.7699 7.97146C15.7699 7.97146 15.7138 7.99682 15.612 7.97146C15.6163 8.01306 15.6091 8.05506 15.5911 8.09282C15.5731 8.13058 15.5451 8.16265 15.51 8.18549C15.403 8.14214 14.4012 8.22883 14.4012 8.22883C14.4012 8.22883 13.9349 8.14718 13.7895 7.53046C13.6877 7.12003 13.866 6.55438 13.8073 6.18226C13.7181 5.63424 13.5933 5.52706 13.5805 5.35654C13.5678 5.18602 13.555 5.14251 13.555 5.03549C13.4989 5.02272 13.4658 5.00491 13.4099 5.00491C13.3971 4.95451 13.4225 4.9105 13.3665 4.82129C13.3971 4.83406 13.6061 4.85959 13.8507 5.09143C14.0523 5.2801 14.0523 5.34881 14.0827 5.38711C14.1208 5.42525 14.4293 5.68951 14.5618 5.95294C14.6944 6.21636 14.9518 7.05636 15.0104 7.19395C15.0282 7.25006 15.0665 7.30618 15.1616 7.43352C15.3094 7.61714 15.526 7.92072 15.7706 7.97112L15.7699 7.97146Z" fill="#B58634"/>
<path fill-rule="evenodd" clip-rule="evenodd" d="M14.1187 5.3999C14.2731 5.6493 14.4118 5.90807 14.534 6.17472C14.6844 6.51357 14.7736 6.79145 14.9622 7.01825C14.8603 6.72273 14.6793 6.14162 14.5723 5.93515C14.4525 5.71675 14.2079 5.48155 14.1187 5.40007V5.3999Z" fill="#A88F33"/>
<path fill-rule="evenodd" clip-rule="evenodd" d="M12.3856 9.59001C12.3856 9.59001 12.1282 9.65368 11.6491 9.90602C11.491 9.9875 11.3408 10.0562 11.1955 10.1201C10.818 10.2907 10.4131 10.4485 10.0919 10.5355C10.1174 10.5661 10.13 10.5787 10.13 10.5787C10.13 10.5787 10.13 10.7037 10.1989 10.7749C10.1608 10.8132 9.65087 11.1598 9.8014 12.3193C9.90321 12.2812 10.023 12.2301 10.0408 12.2301C10.0715 12.2353 10.0791 12.3193 10.1172 12.3193C10.1554 12.3193 10.2804 12.2689 10.4129 12.0976C10.4079 12.1665 10.3314 12.8596 10.7417 13.326C10.8181 13.2368 11.0118 12.9411 11.0118 12.9411L11.0169 12.8469C11.0169 12.8469 11.0347 12.5181 11.1419 12.2174C11.2491 11.9166 11.4579 11.6949 11.4579 11.6949L12.5484 10.1377L12.3852 9.58984L12.3856 9.59001Z" fill="#E6C367"/>
<path fill-rule="evenodd" clip-rule="evenodd" d="M11.3662 11.8763C11.3163 11.9116 11.2613 11.939 11.2031 11.9578C11.1853 11.8941 11.1597 11.6749 11.3101 11.4608C11.486 11.2033 11.8707 10.8695 11.9777 10.604C12.0466 10.4332 12.016 10.0051 12.6277 9.45709C13.2394 8.90907 13.4788 8.72058 13.4788 8.72058L14.4676 8.22363L15.6833 8.70277L15.0793 11.0699L14.6104 12.1787L12.7456 11.8271L11.366 11.8763H11.3662Z" fill="#DCBA5A"/>
<path fill-rule="evenodd" clip-rule="evenodd" d="M12.078 11.2336L12.31 10.9432V10.7367C12.31 10.7367 12.5674 10.6678 12.8451 10.3849C13.1228 10.102 13.5077 9.55917 13.8467 9.59227C14.1857 9.63057 14.2188 10.3288 14.2316 10.5252C14.2444 10.7216 14.2877 11.1673 14.3564 11.407C14.4329 11.6466 13.5307 12.5538 13.5307 12.5538L12.918 13.0201L12.078 11.2336Z" fill="#E9CE77"/>
<path fill-rule="evenodd" clip-rule="evenodd" d="M12.7959 13.652C12.7959 13.652 12.9846 13.3563 12.8463 13.2927C12.9278 13.1092 13.0781 12.9155 13.0781 12.9155C13.0781 12.9155 13.1852 12.6506 13.5317 12.3243C13.8783 11.998 14.0925 11.7813 14.1486 11.5623C14.1832 11.4195 14.202 11.2733 14.2047 11.1265C14.2422 11.1571 14.2823 11.1843 14.3245 11.2079C14.3806 11.2335 14.6456 11.4526 14.6074 11.8936C14.5693 12.3346 14.4058 12.518 14.4058 12.518C14.4058 12.518 14.2479 12.6759 14.1359 12.7576C14.0159 12.8391 13.9727 12.9333 13.7713 12.941C13.792 12.9246 13.8153 12.9116 13.8402 12.9027C13.8402 12.9027 13.6312 12.8774 13.519 12.9792C13.4067 13.081 13.1682 13.3946 13.0484 13.489C12.9286 13.5655 12.7964 13.6522 12.7964 13.6522L12.7959 13.652Z" fill="#CDAE50"/>
<path fill-rule="evenodd" clip-rule="evenodd" d="M21.2698 8.6952C20.9687 8.58546 20.6523 8.52356 20.332 8.51174C19.7968 8.49393 19.0144 8.52451 18.2473 8.52955C17.4216 8.53459 16.6723 8.24664 15.6326 8.19573C15.4619 8.09376 15.0278 7.64772 13.6727 8.59322C13.7541 8.58818 14.6565 8.38423 14.9698 8.77685C15.2858 9.16677 15.1966 9.82937 15.1534 9.98729C15.0718 10.3391 14.8067 10.8513 14.6998 11.2107C14.593 11.57 14.6182 11.7588 14.5417 12.0108C14.4653 12.2628 14.2971 12.388 14.3964 12.6785C14.529 12.597 14.598 12.597 14.8194 12.1001C15.0409 11.6031 14.9953 11.2488 15.3624 10.8283C15.7218 10.4053 16.32 9.82668 16.5475 9.68136C16.775 9.53604 18.5811 8.59826 20.4723 9.49286C20.9284 9.44448 21.27 8.69503 21.27 8.69503L21.2698 8.6952Z" fill="#D2A83E"/>
<path fill-rule="evenodd" clip-rule="evenodd" d="M14.4345 8.34849C14.4326 8.32934 14.4284 8.31049 14.4219 8.29238C14.4042 8.25511 14.381 8.22073 14.353 8.1904C14.353 8.1904 13.9045 8.10892 13.6777 8.13429C13.28 8.17763 12.9207 8.66954 12.7525 8.92187C12.5843 9.17421 12.3753 9.56397 12.1485 9.7654C12.151 9.74578 12.1465 9.72591 12.1358 9.70929C12.1358 9.70929 12.1485 9.7271 12.1232 9.75263C12.0978 9.77817 12.0976 9.79077 12.1104 9.80303L12.1487 9.84117C12.1613 9.84117 12.5131 9.68308 12.9922 9.23637C13.5019 8.77 13.8919 8.53077 14.0958 8.44879C14.2046 8.40256 14.3183 8.36891 14.4347 8.34849H14.4345Z" fill="#C29637"/>
<path fill-rule="evenodd" clip-rule="evenodd" d="M23.1353 6.43213C23.1353 6.43213 23.0537 6.53394 22.9517 6.64616C22.7249 6.88573 22.4292 7.1557 22.1769 7.43358C21.9375 7.69868 21.6674 7.90515 21.364 8.25174C21.0605 8.59832 20.7087 8.98304 20.6197 9.09526C20.5382 9.20749 20.4746 9.39095 20.4746 9.48519C20.4312 9.45462 20.3803 9.42152 20.3803 9.42152C20.4017 9.46153 20.4274 9.49915 20.4568 9.53375C20.5204 9.62295 20.6197 9.73535 20.6708 9.80389C20.7334 9.89115 20.7784 9.98983 20.8032 10.0944C20.8337 10.0994 21.03 10.1377 21.2747 9.73501C21.5195 9.33231 21.8404 8.89148 21.8404 8.89148L22.3501 8.13447L22.6713 7.49238L23.0745 6.77367L23.1358 6.43213H23.1353Z" fill="#AC8132"/>
<path fill-rule="evenodd" clip-rule="evenodd" d="M23.6579 5.91748C23.6579 5.91748 23.3495 6.16948 23.2297 6.32068C23.1099 6.47188 22.8265 6.8687 22.8265 6.8687L22.9285 6.85593L23.4459 6.39729L23.6475 6.03794L23.6577 5.91815L23.6579 5.91748Z" fill="#A88F33"/>
<path fill-rule="evenodd" clip-rule="evenodd" d="M23.5635 26.1708C23.5635 26.1708 23.5585 25.9618 23.6758 25.837C23.7955 25.712 24.0988 25.5285 24.3945 24.8404C24.6901 24.1523 24.7231 23.9969 24.7231 23.9969C24.7231 23.9969 24.193 24.4505 23.8663 24.5575C23.9427 24.3994 23.9861 24.2873 24.0244 24.2057C23.981 24.1675 23.7976 24.1242 23.7798 24.1039C23.8816 24.0019 23.9377 23.7521 24.1441 23.5864C24.4093 23.3848 24.8934 23.0384 25.2697 22.7296C25.6461 22.4208 26.3859 21.7026 26.4804 21.4937C26.5365 21.5751 26.5491 21.626 26.5491 21.626C26.5491 21.626 26.1771 22.1104 25.9834 22.4187C25.8126 22.6838 25.8253 22.8341 25.8253 22.8341L26.1771 22.6829C26.1771 22.6829 26.2789 23.0601 25.8178 23.6336C26.0194 23.5572 26.1007 23.6031 26.2153 23.5392C26.0266 23.6592 25.7667 23.8223 25.5221 24.2707C25.2825 24.7193 24.9563 25.2417 24.4059 25.5678C23.8706 25.9119 23.5622 26.1693 23.5622 26.1693L23.5635 26.1708Z" fill="#A67A2E"/>
<path fill-rule="evenodd" clip-rule="evenodd" d="M22.1822 8.96027C22.1822 8.96027 21.9732 9.3959 21.9427 9.73492C21.9376 9.81657 21.9171 9.88024 21.9171 9.97449C21.9121 10.2777 21.9349 10.6168 21.8667 10.7747C21.8412 10.711 21.8284 10.6677 21.8029 10.6423C21.7648 10.7493 21.6959 11.0831 21.6398 11.2079C21.6144 11.1265 21.5583 10.8436 21.5635 10.5097C21.5687 10.1759 21.5761 10.1121 21.5761 10.0434C21.5635 10.1452 21.4946 10.2829 21.4691 10.3644C21.4309 10.2957 21.3876 10.2065 21.3365 10.1326C21.3059 10.183 21.2678 10.2574 21.2347 10.2957C21.2295 10.2651 21.2169 10.1835 21.2092 10.0689C21.2041 9.93635 21.1964 9.76567 21.2041 9.72988C21.2167 9.66117 21.3239 9.39103 21.5507 9.14373C21.8209 8.84805 22.0987 8.27987 22.1802 8.10398C22.2617 7.92808 22.6083 7.19678 22.6083 7.19678H22.8734L22.4885 8.0734C22.4885 8.0734 22.2567 8.55254 22.1369 8.7286C22.0171 8.90467 21.7648 9.40917 21.6525 9.60539C21.734 9.49838 21.8029 9.44227 21.8845 9.34029C21.9635 9.26889 22.1826 8.96061 22.1826 8.96061L22.1822 8.96027Z" fill="#8C6228"/>
<path fill-rule="evenodd" clip-rule="evenodd" d="M23.6629 5.88379C23.6195 6.01707 23.5511 6.14082 23.4613 6.24835C23.3032 6.43701 22.9641 6.68918 22.7987 6.89044C22.6475 7.08667 22.3451 7.62192 22.4825 8.25645C22.5329 8.11886 22.6278 7.8462 22.8801 7.53775C23.1325 7.2293 23.4026 6.87516 23.5353 6.59997C23.6677 6.3221 23.6855 6.10303 23.6855 6.10303L23.7359 6.03936L23.7054 5.89404L23.662 5.88379H23.6629Z" fill="#CBA94C"/>
<path fill-rule="evenodd" clip-rule="evenodd" d="M28.8237 22.7888C28.8237 22.7888 28.7218 22.5111 28.6912 22.2588C28.6606 22.0064 28.7416 21.9564 28.6479 21.6676C28.5917 21.4917 28.4899 21.5164 28.4644 21.4917C28.4389 21.467 28.421 21.2012 28.4261 21.0559C28.4311 20.9106 28.4211 20.7221 28.3955 20.6404C28.3574 20.6099 28.3318 20.5843 28.2757 20.3958C28.2121 20.2072 28.1815 20.1129 28.1509 20.057C28.1203 20.001 28.031 19.95 28.031 19.8938C28.031 19.7816 28.1329 19.7232 28.1329 19.6922C28.1279 19.6286 28.0514 19.6796 28.031 19.6617C28.0056 19.6311 28.0948 19.4476 28.0617 19.4221C28.0489 19.4095 27.9597 19.5165 27.9367 19.4859C27.9112 19.4552 27.8806 19.152 27.8347 18.9507C27.7916 18.7545 27.7455 18.6118 27.7405 18.5532C27.7354 18.4971 27.3887 17.5082 27.3047 17.2687C27.237 17.0662 27.18 16.8604 27.134 16.6519C27.1085 16.5322 27.0907 16.2874 27.0779 16.3129C27.0651 16.3385 27.0728 16.4633 27.0524 16.4582C27.0345 16.453 26.9709 16.0174 26.9505 15.9485C26.9327 15.8797 26.8256 15.6461 26.7993 15.4771C26.7738 15.3063 26.7179 14.8602 26.6796 14.557C26.6413 14.2537 26.6235 14.1289 26.6235 14.053C26.6297 13.8673 26.6195 13.6813 26.5929 13.4974C26.5425 13.1762 26.4417 12.7863 26.3533 12.5596C26.1826 12.1314 25.7288 11.0355 25.6477 10.7629C25.6477 10.694 25.7369 10.7323 25.7369 10.7323C25.7369 10.7323 25.9585 11.2879 26.1216 11.7159C26.2797 12.1442 26.4301 12.5213 26.4684 12.5596C26.499 12.5978 26.7385 13.0183 26.8455 13.7064C26.9526 14.3945 26.9907 15.0291 27.0545 15.4521C27.0851 15.6537 27.1106 15.8676 27.1743 16.0816C27.243 16.3136 27.3501 16.5532 27.4903 16.9201C27.6101 17.2285 27.6993 17.4859 27.7477 17.7077C27.8038 17.9906 27.8038 18.2046 27.8369 18.3449C27.8677 18.4647 27.9134 18.7041 28.0205 19.0505C28.1277 19.3969 28.2855 19.8431 28.3925 20.1208C28.6016 20.6764 28.6949 21.1402 28.7265 21.3875C28.7544 21.6424 28.8488 22.5242 28.8232 22.7892L28.8237 22.7888Z" fill="#A88F33"/>
<path fill-rule="evenodd" clip-rule="evenodd" d="M23.6757 5.85381L23.663 5.88439C23.663 5.88439 23.7011 5.89716 23.6935 5.94823C23.6941 6.0181 23.6898 6.08793 23.6808 6.15722C23.6682 6.24643 23.6426 6.31514 23.6376 6.37125C23.6376 6.49104 23.6554 6.62863 23.4864 6.97017C23.436 7.06442 23.4049 7.1459 23.3794 7.20201C23.3157 7.33961 23.3029 7.3601 23.2468 7.42377C23.336 7.37337 23.6572 7.17177 23.8202 7.20201C23.7082 7.26569 23.5373 7.39068 23.4303 7.55381C23.4558 7.55885 23.5628 7.57934 23.7327 7.55381C24.0156 7.51046 24.3316 7.40849 24.6093 7.42881C24.9127 7.44662 24.7929 7.06442 24.7929 7.06442L24.4428 6.29481L23.7802 5.82861L23.6757 5.85398V5.85381Z" fill="#BE9C44"/>
<path fill-rule="evenodd" clip-rule="evenodd" d="M25.4036 11.6188C25.4036 11.6188 25.1079 11.3231 24.9881 10.3084C24.8683 9.28898 24.8939 7.78841 24.8939 7.78841L24.6543 7.20225C24.6543 7.20225 24.6039 6.81233 24.4784 6.66717C24.3529 6.52202 24.1065 6.27725 23.9942 6.15746C23.882 6.03768 23.7547 5.87455 23.6782 5.84901C23.7164 5.78534 23.8872 5.42599 24.5421 5.42095C25.1969 5.41591 25.3989 5.7803 25.4673 5.91285C25.5356 6.04541 25.8444 6.61845 25.959 7.71045C26.066 8.80111 26.0712 8.88276 26.0534 9.25992C26.0406 9.46891 25.9718 9.95309 25.8518 10.4704C25.7423 10.9088 25.6225 11.3982 25.4032 11.6198L25.4036 11.6188Z" fill="#A17C34"/>
<path fill-rule="evenodd" clip-rule="evenodd" d="M24.4764 12.4878C24.575 12.4949 24.6734 12.4727 24.7593 12.4239C24.8536 12.4189 25.1951 12.4622 25.4575 12.1284C25.4754 12.2047 25.5214 12.4113 25.4014 12.5948C25.4653 12.5309 25.5595 12.5056 25.5723 12.4878C25.5773 12.582 25.6665 12.8725 25.2894 13.5784C25.3912 13.4664 25.511 13.4714 25.618 13.4586C25.6232 13.5912 25.6944 14.0371 25.5059 14.2768C25.3811 14.4399 25.1772 14.3889 25.1772 14.3889C25.1801 14.3532 25.1801 14.3175 25.1772 14.2818C25.1721 14.213 25.1466 14.1443 25.1646 14.0984C25.066 14.0534 24.9762 13.9912 24.8994 13.9148C24.6777 13.7058 24.3897 13.3491 24.3694 13.084C24.3439 12.7883 24.609 12.7246 24.609 12.7246C24.5868 12.7048 24.5678 12.6815 24.5529 12.6558C24.5401 12.6126 24.5273 12.5437 24.4764 12.4878Z" fill="#8C6228"/>
<path fill-rule="evenodd" clip-rule="evenodd" d="M22.5108 9.28143C22.5108 9.28143 22.498 9.26362 22.4293 9.3451C22.4421 9.26362 22.4549 9.18701 22.4599 9.11309C22.4924 9.04465 22.5345 8.98119 22.5849 8.92459C22.5466 9.00087 22.521 9.06975 22.521 9.06975C22.521 9.06975 22.6155 8.89385 22.7531 8.78683C22.8473 8.71039 22.9671 8.67478 23.018 8.60338C23.0741 8.52694 23.0613 8.51417 23.0741 8.5014C23.0741 8.5014 23.1991 8.41992 23.3903 8.18019C23.4156 8.14961 23.454 8.11651 23.4795 8.08594C23.5227 8.06813 23.6246 8.02227 23.7444 7.96095C23.8694 7.89223 24.0095 7.79799 24.0962 7.75935C24.2669 7.68291 24.448 7.69063 24.532 7.57068C24.5957 7.55287 24.6644 7.36169 24.6518 7.19873C24.746 7.23687 25.2302 7.53759 25.396 8.19514C25.5158 8.66151 25.3016 9.38021 25.2124 9.72696C25.1232 10.0737 25.1106 10.3309 24.9856 10.4888C24.8275 10.698 24.318 10.9928 24.193 11.1388C24.086 11.2586 23.7649 11.5619 23.7775 11.7809C23.7903 11.9441 23.9916 12.0329 24.0351 12.0638C24.0786 12.0948 24.0782 12.1327 24.1599 12.1142C24.2415 12.0958 24.2719 12.0581 24.3052 12.0581C24.3433 12.0632 24.3433 12.0709 24.3612 12.0709C24.3741 12.0705 24.3869 12.0688 24.3995 12.0657C24.3995 12.0657 24.3867 12.2977 23.8439 12.3681C23.8056 12.3733 23.7674 12.3859 23.7189 12.3936C23.7827 12.3631 23.8209 12.3631 23.8897 12.2688C23.8133 12.256 23.5941 12.2433 23.538 12.2255C23.5558 12.1949 23.6144 12.1132 23.6628 12.0751C23.7061 12.037 23.6577 12.0247 23.6196 12.0445C23.5539 12.0892 23.4909 12.1377 23.4309 12.1897C23.3673 12.2458 23.3112 12.3222 23.2092 12.3913C23.1786 12.2893 23.1836 12.0956 23.3036 11.9555C23.2728 11.9605 23.2142 12.0497 23.1583 12.0319C23.1482 11.939 23.1542 11.845 23.1761 11.7541C23.2067 11.6393 23.3723 11.438 23.3723 11.438L24.1725 10.0082L24.3432 8.9251L22.5108 9.28109V9.28143Z" fill="#92723A"/>
<path fill-rule="evenodd" clip-rule="evenodd" d="M22.4677 9.34239C22.4677 9.34239 22.4243 9.37296 22.511 9.4316C22.4982 9.4494 22.4677 9.51308 22.4294 9.55642C22.3862 9.60682 22.3402 9.63807 22.3224 9.68141C22.2842 9.77062 22.2536 9.83177 22.2536 9.87008C22.2536 9.90838 22.2409 10.153 22.1339 10.3109C22.0956 10.367 22.0522 10.4613 22.0216 10.5249C21.958 10.637 21.9018 10.7265 21.8891 10.7769C21.8637 10.8661 21.8459 11.1108 21.8459 11.1108C21.8459 11.1108 21.902 11.0419 21.9223 11.0165C21.8916 11.0802 21.8585 11.1489 21.8101 11.2C21.8407 11.1744 21.9299 11.1108 22.0803 10.9782C22.2893 10.8025 22.6155 10.5068 23.0132 10.2726C22.8932 10.3159 22.7914 10.3159 22.7099 10.3287C22.7736 10.265 23.347 9.5922 23.6477 9.52853C23.666 9.50538 23.675 9.47631 23.6732 9.44688L23.4157 9.42152L22.8932 9.53357L22.8169 9.13037L22.4677 9.34188V9.34239Z" fill="#B18E3E"/>
<path fill-rule="evenodd" clip-rule="evenodd" d="M23.2985 11.6365C23.2985 11.6365 23.2296 11.7052 23.1659 11.8761C23.1169 11.8249 23.0749 11.7674 23.0409 11.7052C22.9467 11.5473 22.8015 11.3459 22.4625 11.4606C22.4575 11.3536 22.4497 11.2975 22.4625 11.221C22.5186 11.2084 22.6893 11.0708 22.86 10.8694C22.98 10.7318 23.092 10.5737 23.1685 10.3725C23.2189 10.3342 23.306 10.2705 23.4205 10.1966C23.5836 10.0845 23.7798 9.93146 23.8104 9.76077C23.7339 9.79135 23.5708 9.86779 23.326 9.85519C23.4205 9.81185 23.5656 9.76598 23.5478 9.57732C23.5861 9.55178 23.6167 9.53397 23.6167 9.53397C23.5879 9.52439 23.5577 9.52007 23.5275 9.52121C23.5223 9.5034 23.5147 9.47803 23.4714 9.49063C23.428 9.50323 23.421 9.5034 23.4152 9.52121C23.3974 9.52641 23.3388 9.52121 23.2955 9.55195C23.2521 9.58269 23.1323 9.68433 23.0865 9.70214C23.1043 9.67157 23.1296 9.62587 23.1296 9.62587C23.1296 9.62587 23.0048 9.63847 22.9156 9.67627C22.7525 9.73238 22.564 9.83436 22.3728 9.93365C22.3906 9.90307 22.3983 9.88325 22.4109 9.87753C22.4235 9.87182 22.4543 9.86493 22.4543 9.85973C22.4543 9.85452 22.4417 9.80933 22.4492 9.79101C22.5064 9.66993 22.5738 9.55397 22.6508 9.44443C22.74 9.32448 22.7579 9.15379 22.7579 9.15379L23.1478 8.95757L24.2437 8.70557L24.9548 8.74891L24.8656 9.24081L24.4456 10.0996L24.0862 10.882L23.6758 11.3613L23.2987 11.6365H23.2985Z" fill="#543E26"/>
<path fill-rule="evenodd" clip-rule="evenodd" d="M25.0748 9.50756C25.0748 9.50756 24.6466 10.0376 24.5268 10.1192C24.6032 9.95612 25.0748 8.98508 25.2455 8.71494C25.2074 8.68436 25.1563 8.68436 25.2761 8.21094C25.1743 8.45034 25.1385 8.57533 25.0545 8.639C24.9705 8.70267 24.9601 8.68235 24.9033 8.68235C24.914 8.66295 24.9184 8.64069 24.9159 8.61867C24.9159 8.61867 24.5565 8.57533 24.3111 8.57533C24.0656 8.57533 23.5798 8.70788 23.3095 8.8149C23.0954 8.90411 22.9757 8.90411 22.8992 8.96005C22.8228 9.02372 22.7794 9.0926 22.7411 9.11041C22.7105 9.12822 22.5654 9.17408 22.5321 9.22247C22.5016 9.27287 22.4507 9.32948 22.4507 9.34225C22.4507 9.35502 22.4379 9.37299 22.4762 9.36006C22.4888 9.35502 22.5832 9.30395 22.6902 9.24027C22.8354 9.15879 23.0113 9.06455 23.1388 9.00843C23.5032 8.86311 23.6179 8.88865 23.7809 8.85807C23.9516 8.8275 24.1963 8.7561 24.3593 8.7561C24.5224 8.75106 24.8309 8.7561 24.9023 8.76887C24.8717 8.7944 24.8462 8.82498 24.8589 8.93199C24.8589 8.96257 24.8334 8.99567 24.8085 9.06959C24.7323 9.27858 24.5869 9.62516 24.5061 9.80106C24.3941 10.0405 24.2667 10.2419 24.2037 10.3667C24.1407 10.4915 24.0021 10.8203 23.8649 10.9962C23.7276 11.1721 23.6559 11.2791 23.6129 11.3174C23.5699 11.3557 23.2611 11.5824 23.2841 11.664C23.3402 11.6462 23.6945 11.5128 23.9517 11.2232C24.2089 10.9335 24.2602 10.7568 24.4614 10.5987C24.6627 10.4406 24.8208 10.1757 24.915 9.95663C24.994 9.75267 24.9762 9.689 25.0755 9.50807L25.0748 9.50756Z" fill="#806031"/>
<path fill-rule="evenodd" clip-rule="evenodd" d="M15.8467 13.4635C15.8467 13.4635 15.7905 13.6954 15.663 13.8101C15.5382 13.9223 15.3165 14.0191 15.2911 14.2078C15.2605 14.3962 15.5128 14.4907 15.5128 14.4907C15.5128 14.4907 15.3751 14.7175 15.3751 14.8882C15.3751 15.064 15.37 15.0971 15.3879 15.2653C15.3676 15.2783 15.3505 15.2955 15.3375 15.3157C15.3375 15.3157 15.3501 15.4788 15.475 15.5806C15.6 15.6825 15.7069 15.7438 15.7706 15.7182C15.7803 15.739 15.7888 15.7603 15.7961 15.7821C15.7961 15.7821 15.8905 15.5425 15.9542 15.3335C16.0179 15.1195 16.074 15.1499 16.0993 14.8619C16.1247 14.574 16.4017 14.0796 16.4017 14.0796L16.5907 13.657L16.2825 13.4175L15.8467 13.4633V13.4635Z" fill="#B6903C"/>
<path fill-rule="evenodd" clip-rule="evenodd" d="M16.42 13.8789C16.3564 13.9442 16.2978 14.014 16.2445 14.0879C16.163 14.2001 16.0993 14.3019 15.9795 14.3454C15.8597 14.389 15.7833 14.3886 15.7909 14.5086C15.7984 14.6285 15.9106 14.6793 15.9743 14.7404C16.0432 14.8041 16.0993 14.9111 16.0687 15.0311C16.1069 15.0132 16.1757 14.9927 16.2394 14.8552C16.3031 14.7176 16.7485 13.8791 16.7485 13.8791H16.42V13.8789Z" fill="#685026"/>
<path fill-rule="evenodd" clip-rule="evenodd" d="M18.1764 11.9444C18.1764 11.9444 18.2145 11.8426 18.1764 11.7686C18.1381 11.6922 17.9062 11.6667 17.7915 11.58C17.6717 11.4908 17.5264 11.4288 17.4066 11.4679C17.4244 11.4246 17.4958 11.3302 17.4372 11.3098C17.3811 11.292 17.1723 11.3863 17.1161 11.4296C17.06 11.473 16.9325 11.5239 16.9072 11.5546C16.8818 11.5853 16.8383 11.6438 16.8127 11.6183C16.7872 11.6005 16.7746 11.5546 16.7313 11.58C16.6879 11.6053 16.4793 11.7762 16.4408 11.8757C16.4023 11.9751 16.3158 12.1969 16.0559 12.449C15.796 12.7012 15.6838 12.8645 15.7602 12.9587C15.8367 13.053 15.8724 12.9843 15.8852 13.0658C15.895 13.1458 15.8907 13.2268 15.8724 13.3053C15.8419 13.4379 15.791 13.5627 15.8597 13.5882C16.0356 13.6444 16.2064 13.5378 16.2446 13.5704C16.321 13.6391 16.2012 13.8864 16.3822 13.9348C16.5658 13.9852 16.7467 13.8915 16.7467 13.8915L17.4143 13.5321L18.0566 13.1933L18.3852 12.5433L18.209 12.0005L18.1754 11.9444H18.1764Z" fill="#D4B968"/>
<path fill-rule="evenodd" clip-rule="evenodd" d="M17.5464 13.4966C17.5464 13.4966 17.4342 13.3259 17.572 13.1754C17.7097 13.0248 17.9058 12.9613 17.9822 12.8671C17.9677 12.8491 17.9482 12.8359 17.9261 12.829C17.9769 12.7382 18.0543 12.6651 18.1479 12.6198C18.1098 12.5817 18.0587 12.5511 18.0027 12.5511C17.8777 12.5511 17.8011 12.6275 17.6866 12.6275C17.5745 12.6275 17.5617 12.5714 17.5617 12.5714C17.5617 12.5714 17.7504 12.5536 17.7324 12.4694C17.7146 12.3802 17.682 12.3802 17.682 12.3802C17.682 12.3802 18.0464 12.229 18.1101 12.1484C18.1738 12.0678 18.1662 11.9725 18.179 11.9344C18.2221 11.9344 18.4745 11.8018 18.5765 11.8579C18.6784 11.914 18.607 12.0669 18.607 12.0669C18.607 12.0669 18.9156 11.8349 19.0729 11.6074C19.2105 11.6202 19.2745 11.5132 19.3753 11.5132C19.5003 11.5132 19.6965 11.6839 19.7346 12.0483C19.7602 12.2573 19.7983 12.377 19.7602 12.7466C19.7424 12.9556 19.7474 13.4018 19.8106 13.6233C19.8538 13.7992 19.9557 13.7814 19.9557 13.7814C19.9401 13.835 19.9091 13.8828 19.8665 13.9189C19.7976 13.9826 19.7901 14.151 19.7976 14.2146C19.8078 14.2612 19.8206 14.3071 19.836 14.3522C19.836 14.3522 19.7545 14.4465 19.734 14.5103C19.7162 14.574 19.6322 14.6173 19.5708 14.6173C19.5095 14.6173 19.5403 14.6121 19.4588 14.6173C19.3773 14.6225 19.3518 14.6351 19.3007 14.6173C19.2496 14.5995 19.2115 14.579 19.232 14.4157C19.2498 14.2526 18.6025 13.8729 18.6025 13.8729L17.5441 13.4958L17.5464 13.4966Z" fill="#CCA849"/>
<path fill-rule="evenodd" clip-rule="evenodd" d="M16.3307 15.1073C16.3307 15.1073 16.5625 15.4158 17.5157 15.4158C17.9693 15.4158 18.1274 15.3724 18.2213 15.3469C18.3233 15.3214 18.7055 15.1712 19.0904 14.7174C19.437 14.3071 19.3606 14.139 19.3606 14.139L19.159 14.1084L18.5038 14.1976L16.565 15.0233L16.3298 15.1073H16.3307Z" fill="#585136"/>
<path fill-rule="evenodd" clip-rule="evenodd" d="M17.0417 15.1841C17.0417 15.1841 16.2159 15.3677 16.2159 14.8452C16.2159 14.3355 16.7257 13.8002 16.8532 13.706C16.9857 13.6116 17.3017 13.5044 17.3017 13.5044H18.0638L18.2089 13.8893L18.1453 14.72L17.0417 15.1839V15.1841Z" fill="#252211"/>
<path fill-rule="evenodd" clip-rule="evenodd" d="M17.8038 13.6598C17.8038 13.6598 17.6459 13.5145 17.2865 13.7102C16.9271 13.9059 16.6365 14.315 16.6187 14.6865C16.6009 15.0151 16.8888 15.2598 17.3374 15.2726C17.6712 15.2852 17.8727 15.2471 17.9746 15.2222C17.9491 15.1916 17.8165 15.026 17.8165 15.026L17.8039 13.66L17.8038 13.6598Z" fill="#C3B378"/>
<path fill-rule="evenodd" clip-rule="evenodd" d="M17.6483 13.741C17.6483 13.741 17.6102 13.7105 17.4971 13.7716C17.4029 13.822 17.2653 13.9552 17.1583 14.0495C17.0894 14.1056 17.046 14.131 17.0071 14.1743C16.849 14.363 16.7164 14.6714 16.793 14.8243C16.8696 14.9772 17.1218 15.1531 17.7641 15.0333L17.6465 13.7412L17.6483 13.741Z" fill="#E6D89C"/>
<path fill-rule="evenodd" clip-rule="evenodd" d="M17.4394 14.0572C17.4394 14.0572 17.3374 14.2153 17.3374 14.4676C17.3374 14.725 17.4827 15.1352 18.018 15.1658C18.4282 15.1914 18.7034 14.5746 19.0016 14.3351C19.2284 14.1516 19.366 14.1464 19.366 14.1464C19.366 14.1464 19.1342 13.8944 18.5149 13.568C17.9032 13.2392 17.2176 13.1958 16.8455 13.7005C17.0214 13.6878 17.5898 13.5424 17.5898 13.5424L17.8676 13.6316L17.4394 14.0574V14.0572Z" fill="#252211"/>
<path fill-rule="evenodd" clip-rule="evenodd" d="M18.2396 14.3913C18.2218 14.3532 18.209 14.3021 18.2829 14.2895C18.3568 14.2769 18.3899 14.2843 18.4155 14.3399C18.441 14.3955 18.4659 14.4419 18.4281 14.4649C18.3899 14.4852 18.2905 14.4649 18.2394 14.391L18.2396 14.3913ZM18.1198 14.032C18.1198 14.032 18.0943 14.0498 18.107 14.0142C18.1121 13.971 18.1453 13.8944 18.2268 13.9124C18.3083 13.9303 18.2907 14.0194 18.2772 14.0449C18.2638 14.0704 18.1957 14.1136 18.1447 14.0953C18.1382 14.0936 18.1322 14.0905 18.1272 14.0861C18.1221 14.0817 18.1182 14.0761 18.1157 14.0699C18.1133 14.0637 18.1123 14.057 18.1129 14.0504C18.1134 14.0437 18.1156 14.0373 18.1191 14.0316L18.1198 14.032Z" fill="#6F674D"/>
<path fill-rule="evenodd" clip-rule="evenodd" d="M11.2212 14.1948C11.2212 14.1948 11.4228 14.346 11.657 14.3401C11.8888 14.3349 12.187 14.0955 12.3246 13.9424C12.4061 13.8532 12.4758 13.759 12.5514 13.6851C12.6153 13.6214 12.6584 13.5908 12.689 13.5475C12.7324 13.4971 12.7782 13.4023 12.8012 13.3716C12.7451 13.4149 12.6636 13.4915 12.5795 13.5424C12.498 13.5928 12.3221 13.6876 12.2507 13.7131C12.182 13.7387 11.4683 14.1163 11.4683 14.1163L11.2212 14.1948Z" fill="#AC924C"/>
<path fill-rule="evenodd" clip-rule="evenodd" d="M11.5293 12.3119C11.5293 12.3119 11.6414 12.2354 11.8581 12.1869C12.0671 12.1365 12.4876 12.0977 12.4876 12.0977L12.8342 12.2489L12.9717 12.7713L12.7197 13.3143L12.3987 13.5159L12.0341 12.9298L11.5301 12.3129L11.5293 12.3119Z" fill="#9F8E57"/>
<path fill-rule="evenodd" clip-rule="evenodd" d="M11.0756 12.7782L10.9557 12.8677C10.9557 12.8677 10.9864 12.8116 11.0118 12.6409C11.0372 12.4702 11.1699 12.0548 11.3636 11.8152C11.5573 11.5756 11.5523 11.5884 11.5523 11.5884C11.5344 11.5851 11.5161 11.5857 11.4985 11.5901C11.4809 11.5945 11.4645 11.6025 11.4503 11.6138C11.4758 11.5573 11.6389 11.3557 11.8021 11.2549C11.9652 11.1541 12.0289 11.1224 12.1996 11.2045C12.3702 11.2867 12.4136 11.3293 12.5386 11.3243C12.6636 11.3193 12.7704 11.1867 12.7704 11.1867C12.7704 11.1867 12.796 11.2682 12.7017 11.4569C12.6075 11.6455 12.2353 12.0302 12.2353 12.0302L11.4605 12.5603L11.0756 12.7787V12.7782Z" fill="#EAC970"/>
<path fill-rule="evenodd" clip-rule="evenodd" d="M11.6489 12.2479C11.6489 12.2479 12.2096 12.3244 12.3803 12.1665C12.3854 12.1843 12.4059 12.1843 12.4059 12.197C12.4045 12.2067 12.4 12.2156 12.3931 12.2224C12.4117 12.2194 12.4304 12.2178 12.4492 12.2174C12.4717 12.224 12.4948 12.2283 12.5181 12.2301C12.5369 12.2297 12.5557 12.228 12.5742 12.2249C12.5724 12.2376 12.5681 12.2498 12.5616 12.2607C12.555 12.2717 12.5462 12.2812 12.5359 12.2888C12.5614 12.2888 12.5863 12.2938 12.5863 12.3141C12.5863 12.3345 12.5913 12.3958 12.5608 12.4085C12.5354 12.4155 12.5085 12.4137 12.4843 12.4033C12.4864 12.4516 12.4995 12.4987 12.5226 12.5411C12.573 12.6353 12.6806 12.7427 12.825 12.7118C12.825 12.7118 12.9013 12.8952 12.5803 13.303C12.5371 13.3591 12.491 13.4355 12.4351 13.4992C12.413 13.5474 12.3961 13.5978 12.3847 13.6496C12.3847 13.6496 12.9277 13.4406 13.0831 12.964C13.2412 12.4848 13.2717 12.0134 13.2412 11.5726C13.236 11.4476 13.2156 11.3585 13.1851 11.2947C13.1086 11.1366 12.8944 11.1622 12.8079 11.2514C12.6829 11.3764 12.4739 11.6872 12.1834 11.9012C11.8878 12.1152 11.8752 12.1532 11.6482 12.2479H11.6489Z" fill="#D7BC6B"/>
<path fill-rule="evenodd" clip-rule="evenodd" d="M10.9764 12.9361C10.9764 12.9361 10.8694 12.9998 10.8132 13.2385C10.7571 13.4831 10.8636 13.7813 10.9253 13.8756C10.987 13.9698 11.1269 14.2273 11.4172 14.2401C11.4891 14.2397 11.5601 14.225 11.6262 14.1968C11.7275 14.1503 11.8226 14.0912 11.9091 14.0209C12.0341 13.9266 12.1359 13.8451 12.1231 13.8374C12.0926 13.8246 11.3535 13.213 11.3535 13.213L11.0757 12.9028L10.9762 12.9364L10.9764 12.9361Z" fill="#585136"/>
<path fill-rule="evenodd" clip-rule="evenodd" d="M11.6748 13.9505C11.6748 13.9505 11.8252 13.9379 11.9144 13.8818C12.0036 13.8257 11.3919 13.2192 11.3919 13.2192L11.4353 13.8744L11.6748 13.9505Z" fill="#453A25"/>
<path fill-rule="evenodd" clip-rule="evenodd" d="M11.0246 12.8901C11.0246 12.8901 10.9482 13.0354 10.9482 13.0737C10.9354 13.1985 10.9737 13.5909 11.0043 13.7158C11.0349 13.8483 11.2005 14.0496 11.4147 14.0496C11.5471 14.0496 11.7307 13.9681 11.7307 13.9478C11.7307 13.9222 11.5421 13.8974 11.4912 13.8025C11.4606 13.7521 11.4478 13.6267 11.4408 13.5001C11.4357 13.4186 11.4357 13.3294 11.4663 13.2985C11.5352 13.222 11.5478 13.0028 11.5478 13.0028L11.7924 12.5483H11.4707L11.0858 12.7879L11.0246 12.8901Z" fill="#84754B"/>
<path fill-rule="evenodd" clip-rule="evenodd" d="M10.9304 13.0303C10.9304 13.0303 11.1824 12.6965 11.4096 12.6199C11.6367 12.5433 11.7383 12.5893 11.7383 12.5893L11.6058 12.9283L11.4171 13.1373L11.4299 13.2443C11.4299 13.2443 11.3991 13.5272 11.5878 13.7235C11.7765 13.9197 11.9166 13.9121 11.9982 13.9121C12.0799 13.9121 12.3142 13.8432 12.434 13.5603C12.541 13.2954 12.6302 12.9555 12.4162 12.6148C12.2071 12.2758 11.8376 12.2627 11.7662 12.2627C11.6948 12.2627 11.1342 12.2908 10.9304 13.0298V13.0303Z" fill="#252211"/>
<path fill-rule="evenodd" clip-rule="evenodd" d="M17.4011 14.1644C17.3068 14.1211 17.396 13.8561 17.4903 13.7745C17.5845 13.6928 17.7043 13.5987 17.9135 13.5858C17.9897 13.5808 18.0637 13.6292 18.0511 13.6802C18.0333 13.7745 17.9007 13.907 17.7809 14.0013C17.6153 14.1313 17.5081 14.2128 17.4011 14.1644Z" fill="#F7F7E7"/>
<path fill-rule="evenodd" clip-rule="evenodd" d="M12.3039 12.7196C12.3728 12.7145 12.462 12.77 12.4798 12.8445C12.4976 12.926 12.4365 13.0892 12.3039 13.0892C12.1969 13.0892 12.1408 12.9566 12.1408 12.9185C12.142 12.8871 12.1508 12.8565 12.1663 12.8293C12.1714 12.8215 12.1842 12.7323 12.3039 12.7196Z" fill="#F8F6DE"/>
<path fill-rule="evenodd" clip-rule="evenodd" d="M11.3101 12.7778C11.3101 12.7778 11.1342 12.8593 11.0527 13.0298C10.9945 13.1557 10.9769 13.2967 11.0023 13.433C11.0151 13.4967 11.0787 13.6546 11.1221 13.7107C11.1654 13.7668 11.2241 13.8052 11.2674 13.7999C11.3107 13.7947 11.3998 13.6802 11.3998 13.6114C11.3998 13.5427 11.405 13.2521 11.489 13.094C11.5629 12.9361 11.3106 12.778 11.3106 12.778L11.3101 12.7778Z" fill="#D4C38B"/>
<path fill-rule="evenodd" clip-rule="evenodd" d="M11.3356 12.7654C11.305 12.7832 11.2541 12.8087 11.2667 12.8418C11.2794 12.8724 11.3865 12.8922 11.4248 12.9668C11.4681 13.0432 11.4681 13.1247 11.4553 13.163C11.4886 13.1472 11.5188 13.1256 11.5445 13.0992C11.6007 13.0355 11.6694 12.949 11.728 12.949C11.7663 12.949 11.8044 12.9668 11.8402 12.9668C11.8963 12.9668 11.9523 12.949 11.96 12.8903C11.9726 12.8139 11.853 12.745 11.7841 12.7578C11.7969 12.7074 11.8147 12.633 11.7586 12.5819C11.7025 12.5308 11.5267 12.6202 11.4884 12.6457C11.4501 12.6713 11.3356 12.7655 11.3356 12.7655V12.7654Z" fill="#E2D59D"/>
<path fill-rule="evenodd" clip-rule="evenodd" d="M15.3852 18.1197L15.7624 18.0083L15.8694 18.0847C15.8694 18.0847 15.9457 18.2479 16.0656 18.2682C16.0273 18.3497 15.9279 18.4194 15.9331 18.4772C15.9383 18.535 15.9892 18.5792 15.9892 18.5792C15.9892 18.5792 15.6502 19.1398 16.318 19.7048C16.1599 19.7684 15.9586 19.856 15.8516 19.9064C15.9279 19.9242 16.091 19.9568 16.1599 20.0186C16.2288 20.0804 16.2288 20.1001 16.2924 20.1384C16.3561 20.1767 16.3942 20.2276 16.3816 20.2504C16.3383 20.2249 16.193 20.1486 16.1676 20.2199C16.1422 20.2911 15.5381 20.2632 15.5381 20.2632L14.5187 20.4594C14.5187 20.4594 14.5568 20.3574 14.4498 20.2632C14.325 20.1511 14.1721 20.2682 14.009 20.1434C13.7949 19.9803 13.7872 19.7916 13.7185 19.7204C13.7872 19.677 13.9275 19.6134 14.2613 19.5692C14.2485 19.5437 14.2052 19.4672 14.2307 19.3985C14.2613 19.3093 14.3887 19.2532 14.3505 19.1465C14.4066 19.1337 14.432 19.1337 14.5723 18.9578C14.7048 18.7819 14.7863 18.7438 14.8883 18.731C14.9903 18.7183 15.0514 18.731 15.2401 18.5551C15.3725 18.4303 15.3293 18.3233 15.3293 18.3233C15.3293 18.3233 15.4158 18.2952 15.3854 18.1193L15.3852 18.1197Z" fill="#CBAC5A"/>
<path fill-rule="evenodd" clip-rule="evenodd" d="M14.2715 18.1766C14.2766 18.151 14.2971 18.1383 14.4347 18.151C14.5722 18.1638 15.4438 18.0695 15.6809 18.0568C15.9204 18.039 16.764 18.0516 17.1744 18.1383C17.5848 18.2249 18.0001 18.3269 18.2014 18.3778C18.403 18.4339 18.4665 18.4541 18.4588 18.4796C18.4537 18.5052 18.4084 18.53 18.3823 18.523C18.3569 18.5179 17.6891 18.314 17.4828 18.271C17.2765 18.228 16.5627 18.1129 16.1724 18.1198C15.8081 18.125 15.6627 18.1147 15.3545 18.1504C15.046 18.1887 14.5363 18.2396 14.3834 18.2192C14.2322 18.2014 14.2635 18.2014 14.2712 18.1759L14.2715 18.1766Z" fill="#D6BC6F"/>
<path fill-rule="evenodd" clip-rule="evenodd" d="M16.323 20.174C16.323 20.174 16.8455 20.4569 17.0341 20.8035C17.1717 21.0609 16.9527 21.1884 16.9527 21.1884C16.9527 21.1884 17.2483 21.1884 17.21 21.3515C17.1922 21.4534 16.7003 21.7285 16.3716 21.8739C16.0377 22.0192 16.0505 22.0116 15.8874 22.037C15.7293 22.0625 15.296 21.9866 15.2068 22.1134C15.1176 22.2403 15.1564 22.371 15.1813 22.3913C15.2068 22.4091 15.4133 22.4346 15.4133 22.4346C15.4133 22.4346 15.3699 22.5544 14.9419 22.5672C14.5138 22.58 14.4066 22.6104 14.3811 22.6564C14.3556 22.6996 14.4626 22.6742 14.659 22.7068C14.8552 22.7374 15.1304 22.7572 15.1304 22.7572C15.1304 22.7572 15.0412 22.8336 14.8093 22.8948C14.5442 22.9635 14.1288 23.0273 14.0039 23.1038C14.0676 23.1471 14.162 23.2108 14.2055 23.2158C14.0985 23.2414 13.948 23.2975 13.9226 23.3178C13.9608 23.3434 14.0118 23.3739 14.0118 23.3739C14.0118 23.3739 13.7976 23.6313 13.6728 23.6951C13.548 23.759 12.8293 24.0926 12.582 24.029C11.9653 23.8658 11.8888 23.1905 11.7385 23.1396C11.5117 23.0631 11.4046 23.2158 11.2032 23.1088C11.2924 23.0452 11.341 23.007 11.4352 22.9637C11.3332 22.9133 10.8057 22.5788 10.8057 22.5788C10.7506 22.4586 10.6893 22.3412 10.6223 22.2272C10.5203 22.0513 10.3703 21.8167 10.2577 21.6103C10.0131 21.1567 10.0003 20.9477 9.77856 20.6903C9.81687 20.6399 9.94925 20.647 9.94925 20.647L11.8073 21.2586L15.102 21.3541L15.9588 20.1309L16.3232 20.1742L16.323 20.174Z" fill="#DFC677"/>
<path fill-rule="evenodd" clip-rule="evenodd" d="M11.4426 22.0392C11.4624 22.0614 11.4856 22.0803 11.5113 22.0953C11.5751 22.1387 11.6694 22.1898 11.733 22.266C11.7586 22.2279 11.8222 22.159 11.9346 22.266C12.047 22.373 12.1866 22.2968 12.2735 22.3221C12.3627 22.3529 12.3677 22.3655 12.3677 22.3655C12.3677 22.3655 12.4181 22.3221 12.5309 22.2763C12.5998 22.2507 12.6812 22.2329 12.7704 22.2076C12.8519 22.1898 12.9411 22.1642 13.0024 22.1642C13.0586 22.2024 13.2598 22.4162 14.0677 22.1005C14.8298 21.8049 15.0055 21.7718 15.133 21.8175C15.1458 21.7869 15.1586 21.7283 15.3548 21.736C15.3548 21.6545 15.1917 21.3766 15.1917 21.3766L14.292 21.0684H13.7999L12.3244 21.3385L11.5067 21.805L11.4431 22.0402L11.4426 22.0392Z" fill="#C4A859"/>
<path fill-rule="evenodd" clip-rule="evenodd" d="M10.9507 21.5221C10.9507 21.5221 10.9685 21.6596 11.1724 21.805C11.374 21.9501 11.4374 22.0368 11.4374 22.0368C11.4374 22.0368 11.4757 21.9864 11.5063 21.935C11.5368 21.8789 11.5624 21.8152 11.6133 21.7974C11.7153 21.7541 11.9471 21.8355 11.9982 21.8228C12.0415 21.8102 12.0287 21.721 12.0746 21.721C12.1816 21.7158 12.2503 21.7897 12.2886 21.7897C12.3269 21.7897 12.421 21.7846 12.4338 21.7643C12.4466 21.744 12.4516 21.5323 12.5969 21.4303C12.755 21.3183 12.9487 21.3667 13.0001 21.3922C13.0001 21.4303 13.0052 21.5247 13.1071 21.5298C13.2091 21.5348 13.2192 21.517 13.3087 21.5476C13.3983 21.5782 13.505 21.5425 13.5533 21.6927C13.5967 21.6801 13.6987 21.6674 13.6731 21.5221C13.7235 21.4839 13.7675 21.4584 13.8747 21.308C13.9003 21.2699 13.9434 21.2265 13.9767 21.1704C14.0659 21.1704 14.1729 21.1526 14.3156 21.2774C14.2722 21.308 14.2467 21.3278 14.2341 21.3589C14.2714 21.3959 14.3054 21.4359 14.3359 21.4787C14.3742 21.5291 14.3997 21.5909 14.4481 21.6037C14.5551 21.6343 14.731 21.5909 14.9272 21.6037C15.1159 21.6165 15.2738 21.6852 15.3427 21.7285C15.3682 21.7159 15.3682 21.7107 15.4319 21.7235C15.4956 21.7363 15.544 21.7413 15.4753 21.6598C15.5134 21.6776 15.5567 21.7159 15.595 21.6776C15.6333 21.6393 15.6638 21.5834 15.7708 21.5706C15.8778 21.5578 15.9161 21.5756 15.9594 21.4636C16.0155 21.326 15.8218 21.326 15.8218 21.326C15.8218 21.326 15.9111 21.2443 16.0105 21.1373C16.1303 21.0253 16.2679 20.88 16.301 20.7015C16.3571 20.3728 16.036 20.3296 16.036 20.3296L14.4789 20.8087L12.5751 20.7143L10.9517 21.5222L10.9507 21.5221Z" fill="#927D49"/>
<path fill-rule="evenodd" clip-rule="evenodd" d="M9.55165 17.0238C9.55165 17.0238 9.50125 17.0875 9.47017 17.2379C9.43909 17.3882 9.45237 17.3704 9.42683 17.4774C9.40129 17.5845 9.08764 18.6497 9.20524 19.0091C9.32284 19.3684 9.52645 19.501 9.6538 19.7915C9.67933 19.8551 9.7042 19.8934 9.71747 19.9496C9.76081 20.1381 9.72268 20.2834 9.77358 20.472C9.79139 20.5357 9.83742 20.6096 9.90613 20.6861C10.0573 20.844 10.3038 20.9943 10.4101 21.1014C10.5603 21.2595 10.7745 21.5807 11.0472 21.6111C11.1925 21.6289 11.399 21.5677 11.5697 21.4659C11.7209 21.3715 11.8143 21.2391 11.9729 21.1635C12.0849 21.1074 12.2047 21.0871 12.3117 21.0615C12.5335 21.0182 12.7349 21.0111 12.8547 21.036C13.0382 21.0743 13.4714 21.2069 13.7115 21.2069C13.8991 21.2038 14.0856 21.1782 14.2671 21.1304C14.6315 21.0234 15.0723 20.8398 15.3629 20.7583C15.5336 20.7079 15.6712 20.6946 15.8115 20.6641C16.0511 20.6079 16.2523 20.5315 16.3671 20.3862C16.2906 20.297 16.1964 20.1594 15.6865 20.1644C15.1081 20.1772 14.4403 20.4982 14.1115 20.5493C13.7827 20.6004 13.6401 20.6436 13.273 20.511C12.9132 20.3771 12.9012 20.2886 12.9012 20.2886C12.9012 20.2886 12.5234 20.0243 12.3653 19.3506C12.2072 18.677 12.3653 18.1861 12.7757 17.7195C12.8828 17.5997 12.8572 17.4927 12.8572 17.4927C12.8572 17.4927 13.1274 17.1283 13.0534 16.7871C12.972 16.4481 12.4495 16.517 12.4495 16.517L9.55182 17.0238H9.55165Z" fill="#6E6342"/>
<path fill-rule="evenodd" clip-rule="evenodd" d="M9.98735 18.1577C9.96488 18.2 9.95431 18.2475 9.95677 18.2953C9.96181 18.364 9.98231 18.4532 10.1886 18.6547C10.3645 18.8304 10.3262 19.0266 10.3262 19.0266C10.3262 19.0266 10.4147 19.0444 10.655 18.932C10.8436 18.8428 10.907 19.0009 10.907 19.0009C10.9619 18.9721 11.0214 18.9531 11.0829 18.9448C11.1386 18.9397 11.1924 18.9225 11.2408 18.8944C11.2408 18.8944 11.4626 19.1212 11.6563 19.2282C11.8322 19.3226 11.9341 19.3863 12.0208 19.3226C12.1023 19.2665 12.1023 19.1518 12.0971 19.1009C12.0769 19.0539 12.0513 19.0094 12.0208 18.9683C11.9647 18.8868 11.8755 18.7924 11.8696 18.7163C11.8569 18.5406 12.0022 18.3314 11.9714 18.2805C11.9407 18.2296 11.8263 18.2169 11.5434 18.3188C11.2504 18.4156 9.98617 18.1582 9.98617 18.1582L9.98735 18.1577Z" fill="#39331F"/>
<path fill-rule="evenodd" clip-rule="evenodd" d="M10.6551 19.2972C10.6551 19.2972 10.5099 19.1596 10.5608 18.4918C10.6224 18.4909 10.684 18.4969 10.7443 18.5096C10.7443 18.5096 10.8234 19.027 10.6551 19.2972Z" fill="#292311"/>
<path fill-rule="evenodd" clip-rule="evenodd" d="M9.62058 16.5139C9.64083 16.4989 9.65962 16.482 9.67669 16.4635C9.62629 16.5577 9.39361 16.9349 9.58227 17.5287C9.77094 18.1199 10.2449 18.5608 10.8285 18.5813C11.4121 18.6018 11.7189 18.3162 12.0697 17.8881C12.2073 17.7174 12.3654 17.5032 12.5055 17.3581C12.7145 17.1311 12.8776 17.0674 12.8776 16.8483C12.8776 16.3998 12.4188 16.1984 11.7434 15.9971C11.0681 15.7958 10.4589 15.8207 10.1429 15.9585C9.83461 16.1086 9.70206 16.2667 9.62041 16.514L9.62058 16.5139Z" fill="#252211"/>
<path fill-rule="evenodd" clip-rule="evenodd" d="M11.7891 19.4982L11.8395 19.4727C11.8395 19.4727 11.8521 19.2711 11.9338 19.2765C12.0153 19.2892 12.0536 19.3964 12.0458 19.4346C12.0408 19.4727 12.0205 19.5365 11.9388 19.5288C11.8318 19.5313 11.7886 19.4982 11.7886 19.4982H11.7891Z" fill="#3F3824"/>
<path fill-rule="evenodd" clip-rule="evenodd" d="M11.5624 18.6425C11.5624 18.6425 11.6128 18.6247 11.6744 18.6859C11.7248 18.6859 11.9446 18.6604 12.0135 18.7037C12.0823 18.747 12.1027 18.7852 12.1027 18.7852C12.1027 18.7852 11.8453 18.8413 11.705 18.7852C11.5624 18.7368 11.5624 18.6425 11.5624 18.6425Z" fill="#2D2815"/>
<path fill-rule="evenodd" clip-rule="evenodd" d="M12.6965 18.6805C12.6965 18.6678 12.5589 18.5735 12.4136 18.5428C12.3881 18.5377 12.3829 18.5556 12.3632 18.5556C12.3504 18.5505 12.3454 18.5122 12.3454 18.5122L12.2627 18.5557C12.2627 18.5557 12.25 18.5735 12.2933 18.6061C12.3315 18.6367 12.3953 18.6622 12.4131 18.7131C12.4309 18.764 12.4309 18.7818 12.4386 18.7896C12.4437 18.7946 12.5329 18.7896 12.5762 18.764C12.6196 18.7385 12.7012 18.6968 12.696 18.68L12.6965 18.6805Z" fill="#82764F"/>
<path fill-rule="evenodd" clip-rule="evenodd" d="M11.4094 19.1978C11.4094 19.1978 11.4348 19.0221 11.6056 19.0144C11.7814 19.0016 11.8146 19.1723 11.8146 19.1723L11.7127 19.2743C11.7127 19.2717 11.6362 19.1647 11.4103 19.1978H11.4094Z" fill="#2D2816"/>
<path fill-rule="evenodd" clip-rule="evenodd" d="M12.5182 18.4411C12.5182 18.4411 12.4238 18.5431 12.215 18.5737C12.1972 18.5481 12.1589 18.4972 12.215 18.4158C12.2711 18.3343 12.3348 18.3087 12.3984 18.3341C12.4265 18.3387 12.4527 18.3512 12.474 18.3701C12.4952 18.3891 12.5106 18.4137 12.5182 18.4411Z" fill="#574F35"/>
<path fill-rule="evenodd" clip-rule="evenodd" d="M12.9029 18.5659C12.9081 18.5404 12.8903 18.5354 12.9029 18.5226C12.9155 18.5098 12.9845 18.4844 12.9973 18.497C13.0023 18.5023 12.9973 18.5226 12.9973 18.5474C12.9973 18.5723 12.9973 18.5978 12.9845 18.6162C12.9667 18.6417 12.9158 18.6545 12.8903 18.6469C12.8647 18.6393 12.8597 18.6036 12.8597 18.5965C12.8723 18.5915 12.9029 18.5787 12.9029 18.5659ZM13.338 18.2907C13.338 18.278 13.3813 18.2524 13.4069 18.2524C13.445 18.2524 13.445 18.283 13.4502 18.2907C13.4628 18.2958 13.4628 18.2855 13.4756 18.3086C13.4883 18.3316 13.5063 18.3722 13.4934 18.3978C13.4804 18.4233 13.4297 18.4409 13.4171 18.4359C13.3993 18.4231 13.3432 18.3086 13.338 18.2907Z" fill="#82764F"/>
<path fill-rule="evenodd" clip-rule="evenodd" d="M12.4621 18.6242C12.4621 18.6242 12.5182 18.6368 12.5946 18.7006C12.5691 18.7184 12.5308 18.7388 12.5308 18.7388C12.5308 18.7388 12.5258 18.6801 12.4621 18.624V18.6242Z" fill="#6E6342"/>
<path fill-rule="evenodd" clip-rule="evenodd" d="M12.3372 18.0634C12.3245 18.0508 12.3754 18.0202 12.4059 18.0252C12.4365 18.0303 12.4493 18.0508 12.4824 18.0558C12.5155 18.0608 12.5207 18.043 12.5328 18.0303C12.5449 18.0175 12.5889 18.0252 12.5964 18.0303C12.6012 18.0359 12.6054 18.0418 12.6092 18.0481C12.6097 18.0384 12.6123 18.0289 12.6166 18.0202C12.621 18.0116 12.6271 18.0039 12.6346 17.9977C12.6444 17.9905 12.6556 17.9856 12.6676 17.9834C12.6795 17.9812 12.6918 17.9817 12.7035 17.9849C12.7085 18.0027 12.734 18.0664 12.729 18.0792C12.724 18.0919 12.6475 18.1099 12.6346 18.097C12.6473 18.1277 12.7035 18.1914 12.711 18.204C12.7186 18.2166 12.6549 18.2473 12.6295 18.2423C12.5939 18.2398 12.3747 18.1122 12.3365 18.0639L12.3372 18.0634ZM12.671 17.6403C12.6663 17.6275 12.6573 17.6167 12.6455 17.6098C12.6277 17.6047 12.5691 17.6098 12.5691 17.6403C12.5691 17.6709 12.6195 17.8419 12.6761 17.931C12.7399 18.0202 12.7831 18.0939 12.8264 18.1144C12.84 18.1206 12.8555 18.1214 12.8697 18.1167C12.8839 18.112 12.8957 18.102 12.9029 18.0889C12.9079 18.0761 12.9207 17.9819 12.9156 17.7601C12.9106 17.5384 12.9029 17.3243 12.8901 17.3116C12.8773 17.2988 12.8264 17.299 12.8086 17.3243C12.7908 17.3497 12.6761 17.6022 12.6709 17.6403H12.671Z" fill="#585136"/>
<path fill-rule="evenodd" clip-rule="evenodd" d="M12.4442 18.9453C12.4442 18.9453 12.355 18.8891 12.2683 18.9274C12.1868 18.9657 12.1918 19.1161 12.1918 19.1161C12.2102 19.1233 12.23 19.1259 12.2495 19.1236C12.2691 19.1214 12.2878 19.1145 12.3041 19.1033C12.3602 19.0652 12.4314 19.0015 12.4442 18.9454V18.9453Z" fill="#574F35"/>
<path fill-rule="evenodd" clip-rule="evenodd" d="M12.6125 19.1469C12.6074 19.0965 12.5621 19.0965 12.5621 19.0705C12.5652 19.058 12.5724 19.047 12.5826 19.0391C12.5927 19.0313 12.6052 19.0271 12.618 19.0271C12.6436 19.0271 12.6684 19.0577 12.6997 19.0775C12.7302 19.0953 12.7761 19.1279 12.7811 19.1667C12.7862 19.2056 12.7307 19.3119 12.6691 19.3119C12.6074 19.3119 12.6257 19.1972 12.613 19.1462L12.6125 19.1469ZM13.1044 19.078C13.1044 19.078 13.0024 19.1086 13.01 19.078C13.0175 19.0475 13.0407 19.0399 13.0738 19.0399C13.0906 19.0223 13.1132 19.0114 13.1375 19.0092C13.1513 19.0085 13.165 19.013 13.1756 19.0219C13.1756 19.0219 13.2445 18.9914 13.2648 19.0092C13.2851 19.027 13.27 19.027 13.2826 19.0475C13.2987 19.0702 13.3092 19.0964 13.3134 19.1239C13.3134 19.1442 13.2369 19.1876 13.1756 19.18C13.1044 19.1647 13.117 19.0908 13.1044 19.078ZM13.6981 18.9633C13.6981 18.9633 13.7287 18.9811 13.7033 19.0016C13.6855 19.0194 13.5963 19.052 13.5197 19.0577C13.4432 19.0577 13.3745 19.0703 13.3745 19.0449C13.3745 19.0196 13.4382 18.9685 13.4763 18.9557C13.484 18.9462 13.4937 18.9384 13.5047 18.9331C13.5158 18.9278 13.5279 18.9251 13.5402 18.9252C13.5707 18.9252 13.6904 18.9124 13.7236 18.9074C13.7542 18.9021 13.7797 18.92 13.7618 18.9455C13.7542 18.9633 13.6981 18.9633 13.6981 18.9633ZM13.874 18.1764C13.874 18.1764 13.8357 18.2579 13.7925 18.2579C13.7492 18.2528 13.7492 18.2401 13.7492 18.2273C13.7492 18.2095 13.7925 18.1636 13.7873 18.1508C13.7747 18.1508 13.744 18.1508 13.7492 18.1203C13.7492 18.0947 13.7925 18.0642 13.8306 18.0699C13.8595 18.0462 13.8953 18.0328 13.9326 18.0317C13.976 18.0317 14.0141 18.0443 14.0141 18.0699C14.0141 18.0954 13.9637 18.1514 13.9452 18.1643C13.9249 18.1846 13.8994 18.1979 13.874 18.1769V18.1764ZM13.2929 19.6825C13.2929 19.6825 13.2425 19.6877 13.2425 19.7131C13.2425 19.7258 13.2551 19.7259 13.273 19.7183C13.2834 19.7177 13.2937 19.716 13.3036 19.7131C13.3087 19.7183 13.3087 19.7437 13.347 19.7437C13.3784 19.7394 13.4087 19.729 13.4362 19.7131C13.4668 19.7005 13.4923 19.6875 13.4923 19.6627C13.4795 19.6193 13.454 19.5988 13.4158 19.5988C13.3963 19.5976 13.3768 19.602 13.3597 19.6116C13.3597 19.6116 13.347 19.5861 13.3036 19.6116C13.2603 19.6371 13.2653 19.6371 13.2781 19.6499C13.3009 19.6702 13.2934 19.6835 13.2934 19.6835L13.2929 19.6825ZM13.0049 19.9476C13.0049 19.9348 13.0686 19.9093 13.0864 19.917C13.1042 19.9221 13.1551 20.0188 13.1551 20.0291C13.1551 20.0419 13.0914 20.0724 13.0659 20.0724C13.0404 20.0724 12.9972 20.0291 12.9972 20.022C12.9972 20.017 13.0278 20.0094 13.0278 20.0042C13.0353 19.9916 13.0049 19.9609 13.0049 19.9481V19.9476ZM12.8033 19.5755C12.8161 19.5705 12.8161 19.5577 12.8339 19.5449C12.8395 19.5412 12.8458 19.5388 12.8525 19.5379C12.8591 19.5371 12.8659 19.5377 12.8722 19.5399C12.8767 19.5319 12.8829 19.5249 12.8904 19.5196C12.8979 19.5143 12.9065 19.5107 12.9155 19.5091C12.9461 19.5041 12.9717 19.5091 12.9659 19.5219C12.9659 19.5602 12.9915 19.5856 12.9915 19.6161C12.9915 19.6467 12.9737 19.685 12.91 19.7106C12.8463 19.7284 12.7596 19.7284 12.7469 19.7233C12.7341 19.7183 12.7213 19.6672 12.7341 19.6417C12.7469 19.6161 12.7825 19.5883 12.803 19.5755H12.8033Z" fill="#82764F"/>
<path fill-rule="evenodd" clip-rule="evenodd" d="M12.8843 19.5928C12.8843 19.5928 12.841 19.6183 12.841 19.6311C12.8372 19.6434 12.8355 19.6563 12.836 19.6692C12.836 19.6768 12.8921 19.6642 12.8996 19.6564C12.9022 19.6514 12.8843 19.606 12.8843 19.5928Z" fill="#6E6342"/>
<path fill-rule="evenodd" clip-rule="evenodd" d="M12.5054 19.4728C12.5308 19.478 12.5741 19.4728 12.6072 19.4856C12.6328 19.4983 12.6506 19.5239 12.6251 19.5544C12.5995 19.585 12.5747 19.6309 12.518 19.6232C12.4544 19.6181 12.3932 19.585 12.3932 19.5595C12.3921 19.5433 12.3943 19.5271 12.3995 19.5118C12.4048 19.4965 12.413 19.4824 12.4238 19.4703C12.4493 19.4499 12.4619 19.4627 12.5053 19.4728H12.5054Z" fill="#585136"/>
<path fill-rule="evenodd" clip-rule="evenodd" d="M12.4747 19.4985C12.4747 19.4985 12.3933 19.5622 12.3728 19.593C12.3472 19.6235 12.2224 19.7814 12.1843 19.8145C12.1969 19.7922 12.2114 19.7709 12.2274 19.7509C12.177 19.7831 12.1393 19.8317 12.1204 19.8885C12.0898 19.9829 12.2913 20.0338 12.4237 20.0721C12.556 20.1104 12.6073 20.1225 12.6073 20.1225C12.5585 20.0492 12.5167 19.9716 12.4823 19.8906C12.4319 19.7709 12.4059 19.7581 12.439 19.702C12.4645 19.6459 12.5028 19.6077 12.5028 19.5644C12.4875 19.5241 12.4747 19.4985 12.4747 19.4985Z" fill="#574F35"/>
<path fill-rule="evenodd" clip-rule="evenodd" d="M9.56943 19.6999C9.58798 19.7033 9.60699 19.7033 9.62554 19.6999C9.66368 19.6947 10.0613 19.5487 10.4768 19.5749C10.7878 19.5937 11.0961 19.6444 11.3968 19.7261C11.9192 19.8637 12.5691 20.1364 12.9896 20.2919C13.1016 20.3351 13.2113 20.4117 13.292 20.4421C13.6132 20.5671 13.6258 20.5671 13.8145 20.6002C14.0362 20.6308 14.263 20.5569 14.5001 20.506C14.7905 20.4421 15.2875 20.4116 15.7233 20.3479C15.8642 20.3284 16.0032 20.2968 16.1387 20.2536C16.1387 20.2536 15.7921 20.6002 14.9612 20.7251C14.6254 20.7761 14.284 20.7803 13.947 20.7378C13.6819 20.7123 13.5062 20.674 13.3736 20.6358C13.2233 20.5925 12.9148 20.4778 12.5351 20.3838C12.27 20.315 11.9743 20.2641 11.6355 20.2004C10.7995 20.0473 9.89232 19.8716 9.56909 19.7009L9.56943 19.6999Z" fill="#252211"/>
<path fill-rule="evenodd" clip-rule="evenodd" d="M8.63141 18.125C8.42981 18.2957 8.21595 18.4588 8.00712 18.6167L7.37763 19.1004C7.1636 19.2583 6.95461 19.4215 6.74041 19.5795C6.52621 19.7376 6.31234 19.8878 6.08521 20.0331C6.28681 19.8625 6.50067 19.7044 6.7147 19.549C6.92873 19.3936 7.15066 19.2412 7.35713 19.0836L7.98663 18.5993C8.20318 18.4413 8.41217 18.2782 8.63141 18.1253V18.125ZM7.51774 19.909C7.51774 19.909 7.74454 19.7203 8.02745 19.4554C8.37908 19.1268 8.80983 18.7061 8.94742 18.6298L7.51757 19.9092L7.51774 19.909Z" fill="#CFB66C"/>
<path fill-rule="evenodd" clip-rule="evenodd" d="M7.51788 19.9086C7.63011 19.7965 7.74989 19.687 7.86968 19.5798L8.05313 19.4219C8.10924 19.3715 8.17308 19.3148 8.22903 19.2587C8.34108 19.1467 8.45079 19.0267 8.56284 18.9121C8.61838 18.8545 8.67711 18.8001 8.73874 18.749C8.76955 18.7217 8.80377 18.6986 8.84055 18.6801C8.87129 18.6623 8.90439 18.6297 8.94756 18.624C8.9222 18.6623 8.89162 18.6801 8.86608 18.7132C8.83551 18.7388 8.80997 18.7693 8.7846 18.7947C8.72849 18.8508 8.66482 18.9017 8.60871 18.9528C8.48892 19.0548 8.3641 19.1544 8.24432 19.2611C8.12453 19.3678 8.01248 19.4828 7.89252 19.5899C7.76266 19.6996 7.64288 19.8066 7.51788 19.9091V19.9086ZM9.04198 18.8891C9.04198 18.8891 8.21122 19.7022 8.04036 19.8346L9.04198 18.8891Z" fill="#CFB66C"/>
<path fill-rule="evenodd" clip-rule="evenodd" d="M9.0419 18.8892C8.96716 18.9757 8.88704 19.0574 8.80199 19.1338L8.54999 19.3733C8.46851 19.4548 8.39191 19.5365 8.30539 19.6179C8.21618 19.6944 8.1347 19.7691 8.04028 19.8397L8.28489 19.6001C8.36654 19.5187 8.45575 19.4499 8.54243 19.3683L8.78704 19.1287C8.87104 19.0447 8.95269 18.9631 9.0419 18.8892ZM9.08003 19.33C9.00346 19.5437 8.91322 19.7523 8.80989 19.9544C8.59586 20.3827 8.27481 20.9178 8.13453 21.1906L9.08003 19.33Z" fill="#CFB66C"/>
<path fill-rule="evenodd" clip-rule="evenodd" d="M9.08001 19.3306C9.08001 19.4248 9.05447 19.5065 9.0239 19.5879C8.99409 19.6695 8.96011 19.7495 8.92209 19.8275C8.88378 19.904 8.84044 19.9856 8.7971 20.0595C8.75375 20.1334 8.70285 20.2097 8.66454 20.2863L8.40717 20.7399C8.31796 20.8911 8.23127 21.0432 8.13702 21.1885C8.2007 21.0254 8.28738 20.8725 8.36903 20.7221C8.45824 20.5709 8.53972 20.4197 8.62103 20.2633C8.66073 20.1854 8.69645 20.1055 8.72805 20.0239C8.76618 19.9423 8.80432 19.8658 8.83506 19.7919C8.8732 19.7104 8.90378 19.6338 8.94208 19.5601C8.98526 19.4809 9.02104 19.4045 9.07967 19.3306H9.08001Z" fill="#CFB66C"/>
<path fill-rule="evenodd" clip-rule="evenodd" d="M9.98748 21.4204C9.98748 21.4204 9.73548 21.7542 9.76068 22.1773C9.82939 21.9557 9.91608 21.6166 9.98748 21.4204ZM10.2271 21.7551C10.2271 21.7551 10.1378 22.6623 10.0639 23.1083C10.1684 22.5927 10.1887 22.6361 10.2271 21.7551ZM11.8963 23.1619C11.8963 23.1619 11.5191 24.2707 11.5114 24.5788C11.5931 24.262 11.751 23.6147 11.8963 23.1611V23.1619Z" fill="#DEC270"/>
<path fill-rule="evenodd" clip-rule="evenodd" d="M12.7781 21.3516C12.7781 21.3516 13.3898 22.3607 13.8486 23.2221C13.7244 22.7886 13.4388 21.9937 12.7781 21.3516Z" fill="#CBAF59"/>
<path fill-rule="evenodd" clip-rule="evenodd" d="M14.4219 22.8374C14.7578 23.4311 15.0606 24.0428 15.3291 24.6698C15.2782 24.2365 15.1405 23.495 14.4219 22.8374Z" fill="#E3C677"/>
<path fill-rule="evenodd" clip-rule="evenodd" d="M19.2539 24.3251C19.3557 24.2614 19.5571 23.9147 19.733 23.8282C19.9088 23.7389 20.0413 23.7211 20.1994 23.5452C20.3573 23.3616 20.401 23.2496 20.7473 23.1044C21.2316 22.8952 20.8985 22.6251 20.8985 22.6251C20.9518 22.5727 21.0089 22.5242 21.0691 22.48C21.1941 22.3857 21.3393 22.271 21.3267 22.0695C21.3089 21.7307 21.2452 21.2388 20.9673 20.9533C21.2375 20.8972 21.7548 20.8591 22.0761 20.7776C22.4481 20.6832 22.6189 20.5506 22.6189 20.5506C22.6189 20.5506 22.4049 20.1863 22.7515 19.8193C23.0981 19.4524 23.381 19.2332 23.59 18.8228C23.3504 18.7922 22.9852 18.6648 22.0531 19.019C22.1034 19.0427 22.152 19.0699 22.1984 19.1005C22.1984 19.1005 21.6251 19.2586 21.4161 19.4345C21.0515 19.7427 21.0056 19.9951 20.6107 20.1837C20.2157 20.3724 19.8181 20.3213 19.4894 20.4742C19.1608 20.6271 19.1123 20.7571 18.9923 20.8132C19.0179 20.8438 18.9873 20.8947 19.0357 20.9381C19.0051 20.9814 18.8267 21.2719 18.6457 21.2719C18.6636 21.3407 18.8164 21.3917 18.8164 21.3917C18.8164 21.3917 18.7044 21.4733 18.4189 21.4936C18.5641 21.6448 18.7019 21.8096 19.0815 22.0492C19.051 22.1129 18.9235 22.2073 18.9745 22.3271C19.0306 22.4469 19.1761 22.61 19.7569 22.7425C19.4612 22.7551 19.1148 22.824 18.6481 22.7603C18.1817 22.7042 18.1053 22.6711 17.8173 22.7425C17.8479 22.7731 17.9294 22.7731 18.0008 22.8546C17.9244 22.8596 17.4452 22.7985 17.2821 23.0127C17.1114 23.2343 17.0375 23.5988 17.0503 23.8434C16.961 23.8868 16.8744 23.9632 16.9177 24.1213C16.961 24.2794 17.1878 24.3303 17.3332 24.4296C17.4783 24.5366 17.4911 24.5747 17.6288 24.5494C17.774 24.5188 17.988 24.3737 18.113 24.3737C18.238 24.3737 18.3271 24.4679 18.3271 24.4679C18.3271 24.4679 18.6661 24.3048 18.6992 24.3353C18.7297 24.3659 18.7042 24.5621 18.7373 24.5927C18.7709 24.6157 19.1528 24.3889 19.2547 24.3251H19.2539Z" fill="#ECD592"/>
<path fill-rule="evenodd" clip-rule="evenodd" d="M26.6626 14.1263C25.0698 10.013 21.1322 9.25098 21.1322 9.25098H9.89824L9.94158 13.4407H12.1788V22.7965H9.89807V26.9787H20.8213C23.4538 26.9787 25.5641 24.3332 25.5641 24.3332C28.9434 19.5369 26.6625 14.1263 26.6625 14.1263H26.6626ZM20.8799 21.5145C20.8799 21.5145 20.0231 22.7506 19.0909 22.7506H17.2261L17.1819 13.451H19.575C19.575 13.451 20.6838 13.6828 21.4585 15.8771C21.4585 15.8771 22.4855 19.0187 20.8799 21.5145Z" fill="white" fill-opacity="0.8"/>
</svg>
